<?xml version="1.0" encoding="utf-8"?>
<!-- Generator: Adobe Illustrator 23.0.6, SVG Export Plug-In . SVG Version: 6.00 Build 0)  -->
<svg version="1.1" id="Layer_1" xmlns="http://www.w3.org/2000/svg" xmlns:xlink="http://www.w3.org/1999/xlink" x="0px" y="0px"
	 viewBox="0 0 64 64" style="enable-background:new 0 0 64 64;" xml:space="preserve">
<g>
	<polygon points="46,40 46,46 40,46 40,50 46,50 46,56 50,56 50,50 56,50 56,46 50,46 50,40 	"/>
	<path d="M37.8,30.8L37.8,30.8C37.8,30.8,37.8,30.8,37.8,30.8L37.8,30.8z"/>
	<path d="M52.6,32.7c-1.4-0.4-2.7-0.6-4.1-0.6l0.2,4c0.9,0.1,1.8,0.2,2.8,0.5c6.3,1.9,9.9,8.6,8,14.9s-8.6,9.9-14.9,8
		c-6.3-1.9-9.9-8.6-8-14.9c0.7-2.4,2.2-4.5,4-5.9c1.2-0.9,2.5-1.6,3.9-2.1c0,0,0,0,0,0v0c1.3-0.4,2.8-0.6,4.2-0.5l-0.2-4
		c-1.9-0.1-3.7,0.2-5.4,0.8c-0.9,0.3-1.8,0.7-2.7,1.1l0,0c-0.8,0.4-1.6,0.9-2.3,1.5c-2.5,2-4.5,4.7-5.5,8
		c-2.5,8.4,2.3,17.4,10.7,19.9c8.4,2.5,17.4-2.3,19.9-10.7C65.8,44.2,61,35.2,52.6,32.7z"/>
	<path d="M37.8,30.8H26.2L32,14.4L37.8,30.8c0.3-0.2,0.5-0.3,0.7-0.4c1-0.6,2.1-1,3.2-1.4L34.3,7.9h-4.6L16,46.9h4.6l4.1-11.5h7.8
		C33.9,33.6,35.7,32.1,37.8,30.8z"/>
</g>
</svg>
