<?xml version="1.0" encoding="UTF-8"?>
<svg xmlns="http://www.w3.org/2000/svg" xmlns:xlink="http://www.w3.org/1999/xlink" viewBox="0 0 32 32" version="1.1" fill="#666666" width="96px" height="96px">
<g id="surface1" fill="#666666">
<path style=" " d="M 8 4 C 6.355469 4 5 5.355469 5 7 L 5 21 C 5 22.644531 6.355469 24 8 24 L 12 24 L 12 25 C 12 26.644531 13.355469 28 15 28 L 27 28 L 27 8 L 20 8 L 20 4 Z M 8 6 L 18 6 L 18 8 L 15 8 C 14.121094 8 13.332031 8.390625 12.78125 9 L 9 9 L 9 11 L 12 11 L 12 18 L 8 18 C 7.648438 18 7.316406 18.074219 7 18.1875 L 7 7 C 7 6.433594 7.433594 6 8 6 Z M 15 10 L 25 10 L 25 22 L 15 22 C 14.648438 22 14.316406 22.074219 14 22.1875 L 14 11 C 14 10.433594 14.433594 10 15 10 Z M 16 13 L 16 15 L 23 15 L 23 13 Z M 8 20 L 12 20 L 12 22 L 8 22 C 7.433594 22 7 21.566406 7 21 C 7 20.433594 7.433594 20 8 20 Z M 15 24 L 25 24 L 25 26 L 15 26 C 14.433594 26 14 25.566406 14 25 C 14 24.433594 14.433594 24 15 24 Z " fill="#666666"/>
</g>
</svg>
