<?xml version="1.0" encoding="UTF-8"?>
<svg xmlns="http://www.w3.org/2000/svg" xmlns:xlink="http://www.w3.org/1999/xlink" viewBox="0 0 32 32" version="1.1" fill="#666666" width="96px" height="96px">
<g id="surface1" fill="#666666">
<path style=" " d="M 8 5 L 8 27 L 24 27 L 24 5 Z M 10 7 L 22 7 L 22 25 L 10 25 Z M 19 9 L 19 13 L 21 13 L 21 9 Z M 25 9 L 25 13 L 27 13 L 27 9 Z M 20 17 C 19.449219 17 19 17.449219 19 18 C 19 18.550781 19.449219 19 20 19 C 20.550781 19 21 18.550781 21 18 C 21 17.449219 20.550781 17 20 17 Z " fill="#666666"/>
</g>
</svg>
