<?xml version="1.0" encoding="utf-8"?>
<!-- Generator: Adobe Illustrator 24.1.3, SVG Export Plug-In . SVG Version: 6.00 Build 0)  -->
<svg version="1.1" id="Layer_1" xmlns="http://www.w3.org/2000/svg" xmlns:xlink="http://www.w3.org/1999/xlink" x="0px" y="0px"
	 viewBox="0 0 32 32" style="enable-background:new 0 0 32 32;" xml:space="preserve">
<g>
	<polygon points="6.6,6.8 20.6,6.8 20.6,9.8 22.6,9.8 22.6,4.8 4.6,4.8 4.6,22.8 9.6,22.8 9.6,20.8 6.6,20.8 	"/>
	<polygon points="22.6,15.7 20.6,15.7 20.6,20.8 15.6,20.8 15.6,22.8 22.6,22.8 	"/>
	<rect x="20.6" y="11.7" width="2" height="2"/>
	<rect x="15.9" y="11.7" width="2" height="2"/>
	<rect x="11.2" y="11.7" width="2" height="2"/>
	<rect x="11.2" y="16.2" width="2" height="2"/>
	<rect x="11.2" y="20.7" width="2" height="2"/>
	<rect x="11.2" y="25.2" width="2" height="2"/>
	<rect x="15.9" y="25.2" width="2" height="2"/>
	<rect x="20.6" y="25.2" width="2" height="2"/>
	<rect x="25.4" y="25.2" width="2" height="2"/>
	<rect x="25.4" y="20.7" width="2" height="2"/>
	<rect x="25.4" y="16.2" width="2" height="2"/>
	<rect x="25.4" y="11.7" width="2" height="2"/>
</g>
</svg>
