<?xml version="1.0" encoding="UTF-8"?>
<svg xmlns="http://www.w3.org/2000/svg" xmlns:xlink="http://www.w3.org/1999/xlink" viewBox="0 0 32 32" version="1.1" fill="#ffffff" width="96px" height="96px">
<g id="surface1" fill="#ffffff">
<path style=" " d="M 10 2 L 10 30 L 22 30 L 22 20.1875 L 26.90625 25.09375 C 28.058594 26.246094 29.941406 26.246094 31.09375 25.09375 C 32.246094 23.941406 32.246094 22.058594 31.09375 20.90625 L 22 11.78125 L 22 2 Z M 12 4 L 20 4 L 20 10.59375 L 17.1875 10.03125 L 15.71875 9.71875 L 16.03125 11.1875 L 16.71875 14.6875 L 16.78125 15 L 20 18.21875 L 20 28 L 12 28 Z M 18.28125 12.28125 L 20 12.625 L 29.6875 22.3125 C 30.132813 22.757813 30.132813 23.242188 29.6875 23.6875 C 29.242188 24.132813 28.757813 24.132813 28.3125 23.6875 L 18.625 14 Z " fill="#ffffff"/>
</g>
</svg>
