<?xml version="1.0" encoding="UTF-8" standalone="yes"?>
<svg xmlns="http://www.w3.org/2000/svg" viewBox="0 0 32 32" width="96" height="96" fill="#000000">
  <path d="M 4 4 L 4 13 L 6 13 L 6 7.4375 L 13.28125 14.71875 L 14.71875 13.28125 L 7.4375 6 L 13 6 L 13 4 Z M 19 4 L 19 6 L 24.5625 6 L 17.28125 13.28125 L 18.71875 14.71875 L 26 7.4375 L 26 13 L 28 13 L 28 4 Z M 13.28125 17.28125 L 6 24.5625 L 6 19 L 4 19 L 4 28 L 13 28 L 13 26 L 7.4375 26 L 14.71875 18.71875 Z M 18.71875 17.28125 L 17.28125 18.71875 L 24.5625 26 L 19 26 L 19 28 L 28 28 L 28 19 L 26 19 L 26 24.5625 Z"/>
</svg>
