<?xml version="1.0" encoding="UTF-8"?>
<svg xmlns="http://www.w3.org/2000/svg" xmlns:xlink="http://www.w3.org/1999/xlink" viewBox="0 0 32 32" version="1.1" fill="#ff0000" width="32px" height="32px">
<g id="surface1" fill="#ff0000">
<path style=" " d="M 12 4 C 7.570313 4 4 7.570313 4 12 C 4 16.152344 7.144531 19.558594 11.1875 19.96875 L 8.125 25.5 L 7.3125 27 L 28.6875 27 L 27.875 25.5 L 19.96875 11.28125 C 19.515625 7.207031 16.136719 4 12 4 Z M 12 6 C 14.257813 6 16.1875 7.25 17.21875 9.125 L 17.125 9.3125 L 12.3125 17.96875 C 12.210938 17.980469 12.15625 18 12 18 C 8.628906 18 6 15.371094 6 12 C 6 8.628906 8.628906 6 12 6 Z M 11 8 L 11 12.5625 L 9.28125 14.28125 L 10.71875 15.71875 L 12.71875 13.71875 L 13 13.40625 L 13 8 Z M 18 11.84375 L 25.28125 25 L 10.71875 25 Z M 17 16 L 17 21 L 19 21 L 19 16 Z M 17 22 L 17 24 L 19 24 L 19 22 Z " fill="#ff0000"/>
</g>
</svg>
