<svg xmlns="http://www.w3.org/2000/svg" width="15.919" height="15.978" viewBox="0 0 15.919 15.978">
  <g transform="translate(-5 -5)">
    <path d="M18.068,10.405V5H5V18.068h5.346a5.638,5.638,0,0,0,10.573-2.732A5.693,5.693,0,0,0,18.068,10.405ZM15.1,6.188H16.88V7.97H15.1Zm0,2.97H16.88v.713a5,5,0,0,0-1.6-.238H15.1Zm-2.97-2.97H13.91V7.97H12.128Zm0,2.97H13.91v.653a6,6,0,0,0-1.782.772Zm-2.97-2.97H10.94V7.97H9.158Zm0,2.97H10.94V10.94H9.158Zm0,2.97h1.426a4.79,4.79,0,0,0-.772,1.782H9.217V12.128ZM7.97,16.88H6.188V15.1H7.97Zm0-2.97H6.188V12.128H7.97Zm0-2.97H6.188V9.158H7.97Zm0-2.97H6.188V6.188H7.97Zm1.188,8.91V15.1h.416v.178a5,5,0,0,0,.238,1.6Zm6.118,2.792a4.409,4.409,0,0,1-3.386-1.6,4.327,4.327,0,0,1-.891-1.9,4.585,4.585,0,0,1-.119-.891V15.1a4.649,4.649,0,0,1,1.247-2.911l.059-.059A4.649,4.649,0,0,1,15.1,10.881h.178a2.021,2.021,0,0,1,.594.059,4.611,4.611,0,0,1,2.2.95,4.5,4.5,0,0,1,1.6,3.386A4.424,4.424,0,0,1,15.276,19.672Z"/>
    <path d="M22.64,19.414a2.571,2.571,0,0,0-.3-.713l.416-.416-.95-.95-.416.416a3.634,3.634,0,0,0-.713-.3V16.8H19.373v.653a2.984,2.984,0,0,0-.772.3l-.535-.475-.891.95.475.416a3.634,3.634,0,0,0-.3.713H16.7v1.307h.653a3.634,3.634,0,0,0,.3.713l-.475.475.95.95.475-.475a3.633,3.633,0,0,0,.713.3v.653H20.62v-.653a3.633,3.633,0,0,0,.713-.3l.416.475.95-.891-.475-.475a2.984,2.984,0,0,0,.3-.772h.653V19.354H22.64Zm-2.614,2.079a1.426,1.426,0,1,1,1.426-1.426A1.445,1.445,0,0,1,20.026,21.493Z" transform="translate(-4.75 -4.791)"/>
  </g>
</svg>
