<?xml version="1.0"?>
<svg xmlns="http://www.w3.org/2000/svg" xmlns:xlink="http://www.w3.org/1999/xlink" version="1.1" viewBox="0 0 252 252" width="96px" height="96px"><g fill="none" fill-rule="nonzero" stroke="none" stroke-width="1" stroke-linecap="butt" stroke-linejoin="miter" stroke-miterlimit="10" stroke-dasharray="" stroke-dashoffset="0" font-family="none" font-weight="none" font-size="none" text-anchor="none" style="mix-blend-mode: normal"><path d="M0,252v-252h252v252z" fill="none"/><g><g id="surface1"><path d="M210,236.25h-168v-220.5h115.5l52.5,52.5z" fill="#90caf9"/><path d="M202.125,73.5h-49.875v-49.875z" fill="#e1f5fe"/></g></g><g fill="#ffffff"><path d="M97.455,134.59v7.57h-18v18.59h-9.38v-45.5h29.63v7.59h-20.25v11.75zM122.825,160.75h-17.68v-45.5h15.93v0c5.52,0 9.71,1.05667 12.57,3.17v0v0c2.85333,2.11333 4.28,5.21333 4.28,9.3v0v0c0,2.22667 -0.57333,4.19 -1.72,5.89v0v0c-1.14667,1.7 -2.74,2.94333 -4.78,3.73v0v0c2.33333,0.58667 4.17,1.76667 5.51,3.54v0v0c1.34667,1.76667 2.02,3.93333 2.02,6.5v0v0c0,4.37333 -1.39667,7.68333 -4.19,9.93v0v0c-2.79333,2.25333 -6.77333,3.4 -11.94,3.44zM123.105,140.94h-8.59v12.28h8.03v0c2.20667,0 3.93,-0.52667 5.17,-1.58v0v0c1.24,-1.05333 1.86,-2.50667 1.86,-4.36v0v0c0,-4.16667 -2.15667,-6.28 -6.47,-6.34zM114.515,122.84v11.47h6.94v0c4.72667,-0.08 7.09,-1.96333 7.09,-5.65v0v0c0,-2.06667 -0.6,-3.55333 -1.8,-4.46v0v0c-1.19333,-0.90667 -3.08333,-1.36 -5.67,-1.36v0zM153.735,115.25l8.53,15.69l8.53,-15.69h10.78l-13.25,22.56l13.6,22.94h-10.91l-8.75,-15.94l-8.75,15.94h-10.91l13.6,-22.94l-13.25,-22.56z"/></g></g></svg>
