<?xml version="1.0"?>
<svg xmlns="http://www.w3.org/2000/svg" xmlns:xlink="http://www.w3.org/1999/xlink" version="1.1" viewBox="0 0 252 252" width="96px" height="96px"><g fill="none" fill-rule="nonzero" stroke="none" stroke-width="1" stroke-linecap="butt" stroke-linejoin="miter" stroke-miterlimit="10" stroke-dasharray="" stroke-dashoffset="0" font-family="none" font-weight="none" font-size="none" text-anchor="none" style="mix-blend-mode: normal"><path d="M0,252v-252h252v252z" fill="none"/><g><g id="surface1"><path d="M210,236.25h-168v-220.5h115.5l52.5,52.5z" fill="#90caf9"/><path d="M202.125,73.5h-49.875v-49.875z" fill="#e1f5fe"/></g></g><g fill="#ffffff"><path d="M106.69,131.995v2.03v0c0,4.48 -0.79333,8.40667 -2.38,11.78v0v0c-1.58,3.38 -3.84333,5.98667 -6.79,7.82v0v0c-2.95333,1.83333 -6.33333,2.75 -10.14,2.75v0v0c-3.77333,0 -7.14,-0.90667 -10.1,-2.72v0v0c-2.96,-1.81333 -5.25,-4.40333 -6.87,-7.77v0v0c-1.62667,-3.36667 -2.45,-7.23667 -2.47,-11.61v0v-2.25v0c0,-4.48 0.80667,-8.42333 2.42,-11.83v0v0c1.61333,-3.40667 3.89333,-6.02 6.84,-7.84v0v0c2.95333,-1.82 6.32333,-2.73 10.11,-2.73v0v0c3.79333,0 7.16333,0.91 10.11,2.73v0v0c2.94667,1.82 5.23,4.43333 6.85,7.84v0v0c1.61333,3.40667 2.42,7.34 2.42,11.8zM97.19,134.185v-2.22v0c0,-4.77333 -0.85333,-8.4 -2.56,-10.88v0v0c-1.71333,-2.47333 -4.15333,-3.71 -7.32,-3.71v0v0c-3.14667,0 -5.57333,1.22333 -7.28,3.67v0v0c-1.70667,2.44667 -2.57,6.03333 -2.59,10.76v0v2.22v0c0,4.64667 0.85333,8.25 2.56,10.81v0v0c1.70667,2.56667 4.16667,3.85 7.38,3.85v0v0c3.14,0 5.55667,-1.23667 7.25,-3.71v0v0c1.68667,-2.46667 2.54,-6.06333 2.56,-10.79zM131.19,155.745h-17.69v-45.5h15.94v0c5.52,0 9.70667,1.05667 12.56,3.17v0v0c2.85333,2.11333 4.28,5.21333 4.28,9.3v0v0c0,2.22667 -0.57333,4.19 -1.72,5.89v0v0c-1.14667,1.7 -2.74,2.94333 -4.78,3.73v0v0c2.33333,0.58667 4.17333,1.76667 5.52,3.54v0v0c1.34,1.76667 2.01,3.93333 2.01,6.5v0v0c0,4.37333 -1.39333,7.68333 -4.18,9.93v0v0c-2.79333,2.25333 -6.77333,3.4 -11.94,3.44zM131.47,135.935h-8.59v12.28h8.03v0c2.20667,0 3.93,-0.52667 5.17,-1.58v0v0c1.24,-1.05333 1.86,-2.50667 1.86,-4.36v0v0c0,-4.16667 -2.15667,-6.28 -6.47,-6.34zM122.88,117.835v11.47h6.93v0c4.73333,-0.08 7.1,-1.96333 7.1,-5.65v0v0c0,-2.06667 -0.6,-3.55333 -1.8,-4.46v0v0c-1.2,-0.90667 -3.09,-1.36 -5.67,-1.36v0zM172.69,141.745v-31.5h9.37v31.5v0c0,2.89333 -0.64,5.45 -1.92,7.67v0v0c-1.28,2.22 -3.08667,3.93333 -5.42,5.14v0v0c-2.33333,1.21333 -4.97,1.82 -7.91,1.82v0v0c-4.81333,0 -8.56333,-1.22667 -11.25,-3.68v0v0c-2.68667,-2.44667 -4.03,-5.91 -4.03,-10.39v0h9.44v0c0,2.23333 0.47,3.88 1.41,4.94v0v0c0.93333,1.06 2.41,1.59 4.43,1.59v0v0c1.79333,0 3.22,-0.61333 4.28,-1.84v0v0c1.06667,-1.22667 1.6,-2.97667 1.6,-5.25z"/></g></g></svg>
