<?xml version="1.0"?>
<svg xmlns="http://www.w3.org/2000/svg" xmlns:xlink="http://www.w3.org/1999/xlink" version="1.1" viewBox="0 0 252 252" width="96px" height="96px"><g fill="none" fill-rule="nonzero" stroke="none" stroke-width="1" stroke-linecap="butt" stroke-linejoin="miter" stroke-miterlimit="10" stroke-dasharray="" stroke-dashoffset="0" font-family="none" font-weight="none" font-size="none" text-anchor="none" style="mix-blend-mode: normal"><path d="M0,252v-252h252v252z" fill="none"/><g><g id="surface1"><path d="M210,236.25h-168v-220.5h115.5l52.5,52.5z" fill="#90caf9"/><path d="M202.125,73.5h-49.875v-49.875z" fill="#e1f5fe"/></g></g><g fill="#ffffff"><path d="M93.66,147.805v0v0c0,-1.76667 -0.62667,-3.12667 -1.88,-4.08v0v0c-1.24667,-0.94667 -3.49667,-1.94667 -6.75,-3v0v0c-3.24667,-1.04667 -5.82,-2.08 -7.72,-3.1v0v0c-5.16667,-2.79333 -7.75,-6.55667 -7.75,-11.29v0v0c0,-2.45333 0.69333,-4.64333 2.08,-6.57v0v0c1.38667,-1.92667 3.37667,-3.43333 5.97,-4.52v0v0c2.59333,-1.08 5.50333,-1.62 8.73,-1.62v0v0c3.25333,0 6.15,0.58667 8.69,1.76v0v0c2.54,1.18 4.51333,2.84333 5.92,4.99v0v0c1.40667,2.14 2.11,4.57667 2.11,7.31v0h-9.37v0c0,-2.08667 -0.65667,-3.70667 -1.97,-4.86v0v0c-1.31333,-1.16 -3.15667,-1.74 -5.53,-1.74v0v0c-2.29333,0 -4.07667,0.48667 -5.35,1.46v0v0c-1.26667,0.96667 -1.9,2.24333 -1.9,3.83v0v0c0,1.47333 0.74333,2.71 2.23,3.71v0v0c1.49333,1 3.68667,1.94 6.58,2.82v0v0c5.33333,1.6 9.22,3.59 11.66,5.97v0v0c2.43333,2.37333 3.65,5.33 3.65,8.87v0v0c0,3.94 -1.49,7.03 -4.47,9.27v0v0c-2.97333,2.24 -6.98333,3.36 -12.03,3.36v0v0c-3.5,0 -6.68667,-0.64333 -9.56,-1.93v0v0c-2.87333,-1.28 -5.06667,-3.03333 -6.58,-5.26v0v0c-1.50667,-2.23333 -2.26,-4.81667 -2.26,-7.75v0h9.4v0c0,5.02 3,7.53 9,7.53v0v0c2.23333,0 3.97333,-0.45333 5.22,-1.36v0v0c1.25333,-0.90667 1.88,-2.17333 1.88,-3.8zM143.66,114.245v7.59h-13.94v37.91h-9.38v-37.91h-13.75v-7.59zM166.59,143.715h-8.21v16.03h-9.38v-45.5h17.75v0c3.42,0 6.42667,0.62667 9.02,1.88v0v0c2.59333,1.24667 4.58667,3.02 5.98,5.32v0v0c1.39333,2.30667 2.09,4.92667 2.09,7.86v0v0c0,4.46 -1.52333,7.97667 -4.57,10.55v0v0c-3.05333,2.57333 -7.28,3.86 -12.68,3.86zM158.38,121.835v14.29h8.37v0c2.48,0 4.37,-0.58333 5.67,-1.75v0v0c1.30667,-1.16667 1.96,-2.83333 1.96,-5v0v0c0,-2.23333 -0.65667,-4.03667 -1.97,-5.41v0v0c-1.31333,-1.37333 -3.12667,-2.08333 -5.44,-2.13v0z"/></g></g></svg>
