<?xml version="1.0" encoding="UTF-8"?>
<svg xmlns="http://www.w3.org/2000/svg" xmlns:xlink="http://www.w3.org/1999/xlink" viewBox="0 0 32 32" version="1.1" width="64px" height="64px">
<g id="surface1">
<path style=" " d="M 6 4 C 4.355469 4 3 5.355469 3 7 L 3 10 L 21 10 L 21 7 C 21 6.433594 21.433594 6 22 6 C 22.566406 6 23 6.433594 23 7 L 23 25 C 23 25.351563 23.074219 25.683594 23.1875 26 L 9 26 C 8.433594 26 8 25.566406 8 25 L 8 11 L 6 11 L 6 25 C 6 26.644531 7.355469 28 9 28 L 26 28 C 27.644531 28 29 26.644531 29 25 L 29 22 L 25 22 L 25 7 C 25 5.355469 23.644531 4 22 4 Z M 6 6 L 19.1875 6 C 19.074219 6.316406 19 6.648438 19 7 L 19 8 L 5 8 L 5 7 C 5 6.433594 5.433594 6 6 6 Z M 11 12 L 11 14 L 19 14 L 19 12 Z M 11 16 L 11 18 L 19 18 L 19 16 Z M 11 20 L 11 22 L 16 22 L 16 20 Z M 25 24 L 27 24 L 27 25 C 27 25.566406 26.566406 26 26 26 C 25.433594 26 25 25.566406 25 25 Z "/>
</g>
</svg>
