<svg xmlns="http://www.w3.org/2000/svg" width="14" height="12.25" viewBox="0 0 14 12.25"><g transform="translate(-2.1 -3.7)"><rect class="a" width="0.853" height="0.844" transform="translate(4.66 7.919)"/><rect class="a" width="2.871" height="0.996" transform="translate(6.632 10.174)"/><path class="a" d="M3.107,6.688H13.179V8.381h1.007V3.7H2.1V14.655H8.143v-1H3.107V6.688Zm0-1.992H13.179v1H3.107v-1Z" transform="translate(0 0)"/><rect class="a" width="0.853" height="0.844" transform="translate(4.66 10.45)"/><rect class="a" width="5.12" height="0.844" transform="translate(6.367 7.919)"/><path class="a" d="M21.1,22.276h1.007L23.114,16.3H22.107Z" transform="translate(-9.432 -6.326)"/><path class="a" d="M26.155,18.7l-.755.647.957,1.145-.957,1.2.755.647,1.511-1.842Z" transform="translate(-11.566 -7.53)"/><path class="a" d="M17.861,18.7,16.3,20.493l1.561,1.842.755-.647-1.007-1.2,1.007-1.145Z" transform="translate(-7.049 -7.53)"/></g></svg>