<svg xmlns="http://www.w3.org/2000/svg" width="14" height="14" viewBox="0 0 14 14"><path class="a" d="M22.66,18.2H18.833l-.233.325-.7.881v4.358h5.647v-4.4Zm-3.5.649h3.173l.373.464H18.833Zm3.593,4.172H18.74V20.008h4.013Z" transform="translate(-9.547 -9.763)"/><path class="a" d="M21.9,23.432a.22.22,0,0,0,.233.232H23.58a.232.232,0,1,0,0-.464H22.133A.3.3,0,0,0,21.9,23.432Z" transform="translate(-11.68 -12.445)"/><path class="a" d="M13.393,4.821,12.32,4.728,8.633,4.311,7.14.974,6.673,0l-.42.974L4.76,4.311l-3.687.417L0,4.821l.793.7,2.753,2.5-.793,3.616-.187,1.02.887-.51,3.22-1.854.747.417V9.642l-.513-.278-.233-.185-.233.185L3.92,10.8l.607-2.874L4.573,7.7,4.387,7.51,2.193,5.517l2.94-.278.233-.046.14-.232L6.673,2.272,7.887,4.96l.14.232.233.046,2.94.278L9.007,7.51h1.4L12.6,5.517Z"/></svg>