<?xml version="1.0"?>
<svg xmlns="http://www.w3.org/2000/svg" xmlns:xlink="http://www.w3.org/1999/xlink" version="1.1" viewBox="0 0 252 252" width="50px" height="50px"><g fill="none" fill-rule="nonzero" stroke="none" stroke-width="1" stroke-linecap="butt" stroke-linejoin="miter" stroke-miterlimit="10" stroke-dasharray="" stroke-dashoffset="0" font-family="none" font-weight="none" font-size="none" text-anchor="none" style="mix-blend-mode: normal"><path d="M0,252v-252h252v252z" fill="none"/><g id="original-icon" fill="#000000" opacity="0" visibility="hidden"><g id="surface1"><path d="M155.90531,163.93781c-0.74813,-8.13094 -0.45281,-13.80094 -0.45281,-21.22313c3.68156,-1.92937 10.27688,-14.23406 11.37938,-24.62906c2.89406,-0.23625 7.46156,-3.05156 8.80031,-14.19469c0.70875,-5.985 -2.14594,-9.35156 -3.89812,-10.41469c4.70531,-14.15531 14.49,-57.96 -18.07313,-62.48812c-3.36656,-5.88656 -11.95031,-8.85938 -23.09344,-8.85938c-44.63156,0.82688 -50.00625,33.705 -40.22156,71.3475c-1.75219,1.06313 -4.60687,4.42969 -3.89812,10.41469c1.35844,11.14313 5.90625,13.95844 8.80031,14.19469c1.1025,10.395 7.95375,22.69969 11.655,24.62906c0,7.42219 0.27562,13.09219 -0.4725,21.22313c-8.82,23.74312 -68.39438,17.06906 -71.15063,62.86219h191.52c-2.75625,-45.79312 -62.07469,-39.11906 -70.89469,-62.86219z"/></g></g><g id="subtracted-icon" fill="#000000"><g id="surface1 1"><path d="M226.8,226.8h-16.82159l13.83669,-13.72774c1.62327,3.97692 2.67096,8.51201 2.98489,13.72774zM35.28,226.8c2.75625,-45.79312 62.33063,-39.11906 71.15063,-62.86219c0.74812,-8.13094 0.4725,-13.80094 0.4725,-21.22313c-3.70125,-1.92937 -10.5525,-14.23406 -11.655,-24.62906c-2.89406,-0.23625 -7.44188,-3.05156 -8.80031,-14.19469c-0.70875,-5.985 2.14594,-9.35156 3.89812,-10.41469c-9.78469,-37.6425 -4.41,-70.52062 40.22156,-71.3475c11.14313,0 19.72688,2.97281 23.09344,8.85938c32.56313,4.52812 22.77844,48.33281 18.07313,62.48812c1.75219,1.06313 4.60687,4.42969 3.89812,10.41469c-1.33875,11.14313 -5.90625,13.95844 -8.80031,14.19469c-1.1025,10.395 -7.69781,22.69969 -11.37938,24.62906c0,7.42219 -0.29531,13.09219 0.45281,21.22313c2.38316,6.41537 8.45308,10.61006 16.09784,14.21909l-27.72474,27.9791c-2.016,2.016 -3.024,4.032 -4.032,6.552l-3.9984,14.112z"/></g></g><g fill="#000000"><g id="Layer_9"><path d="M245.952,147.168c-4.032,-4.032 -9.072,-6.048 -14.112,-6.048c-5.544,0 -11.088,2.52 -15.12,6.048l-65.52,66.024c-0.504,0.504 -1.008,1.512 -1.512,2.016l-8.568,30.24c-0.504,1.512 0,3.528 1.512,5.04c1.008,1.008 2.016,1.512 3.528,1.512c0.504,0 1.008,0 1.512,0l30.24,-8.064c1.008,0 1.512,-0.504 2.016,-1.512l66.024,-66.024c4.032,-4.032 6.048,-9.072 6.048,-14.616c0,-5.544 -2.016,-11.088 -6.048,-14.616zM223.776,154.728c4.032,-4.032 11.088,-4.536 15.12,-0.504c2.016,2.016 3.024,4.536 3.024,7.56c0,3.024 -1.008,5.544 -3.024,7.56l-3.024,3.024l-15.12,-15.12zM158.76,220.248l14.616,14.112l-20.16,5.544z"/></g></g></g></svg>
