<?xml version="1.0" encoding="UTF-8"?>
<svg xmlns="http://www.w3.org/2000/svg" xmlns:xlink="http://www.w3.org/1999/xlink" viewBox="0 0 32 32" version="1.1" width="96px" height="96px">
<g id="surface1">
<path style=" "
       d="M 19.75 2 C 18.078125 2 16.492188 2.660156 15.3125 3.84375 L 13.84375 5.3125 C 12.660156 6.496094 12 8.078125 12 9.75 C 12 10.542969 12.152344 11.316406 12.4375 12.03125 L 14.0625 10.40625 C 13.859375 9.109375 14.253906 7.714844 15.25 6.71875 L 16.71875 5.25 C 17.523438 4.445313 18.613281 4 19.75 4 C 20.886719 4 21.945313 4.445313 22.75 5.25 C 24.410156 6.910156 24.410156 9.621094 22.75 11.28125 L 22.03125 12 C 22.886719 12.003906 23.710938 12.109375 24.5 12.3125 C 25.476563 11.179688 26 9.761719 26 8.25 C 26 6.578125 25.339844 5.027344 24.15625 3.84375 C 22.976563 2.660156 21.421875 2 19.75 2 Z M 17.28125 9.28125 L 9.28125 17.28125 L 10.71875 18.71875 L 18.71875 10.71875 Z M 9.75 12 C 8.078125 12 6.492188 12.660156 5.3125 13.84375 L 3.84375 15.3125 C 2.660156 16.496094 2 18.078125 2 19.75 C 2 21.421875 2.660156 22.972656 3.84375 24.15625 C 5.023438 25.339844 6.578125 26 8.25 26 C 9.761719 26 11.179688 25.476563 12.3125 24.5 C 12.109375 23.707031 12.003906 22.886719 12 22.03125 L 11.28125 22.75 C 10.476563 23.554688 9.386719 24 8.25 24 C 7.113281 24 6.054688 23.554688 5.25 22.75 C 3.589844 21.089844 3.589844 18.378906 5.25 16.71875 L 6.71875 15.25 C 7.523438 14.445313 8.613281 14 9.75 14 C 9.972656 14 10.191406 14.023438 10.40625 14.0625 L 12.03125 12.4375 C 11.316406 12.152344 10.542969 12 9.75 12 Z M 22 14 C 17.59375 14 14 17.59375 14 22 C 14 26.40625 17.59375 30 22 30 C 26.40625 30 30 26.40625 30 22 C 30 17.59375 26.40625 14 22 14 Z M 22 16 C 25.324219 16 28 18.675781 28 22 C 28 25.324219 25.324219 28 22 28 C 18.675781 28 16 25.324219 16 22 C 16 18.675781 18.675781 16 22 16 Z M 21 18 L 21 21 L 18 21 L 18 23 L 21 23 L 21 26 L 23 26 L 23 23 L 26 23 L 26 21 L 23 21 L 23 18 Z "/>
</g>
</svg>
