<?xml version="1.0" encoding="UTF-8"?>
<svg xmlns="http://www.w3.org/2000/svg" xmlns:xlink="http://www.w3.org/1999/xlink" width="96px" height="96px" viewBox="0 0 96 96" version="1.1">
<g id="surface69647">
<path style=" stroke:none;fill-rule:nonzero;fill:rgb(0%,0%,0%);fill-opacity:1;" d="M 81 12 L 81 19.03125 L 80.34375 19.875 L 57 49.03125 L 57 58.449219 C 54.898438 58.660156 52.894531 59.039062 51 59.546875 L 51 51 L 45 51 L 45 61.6875 C 42.804688 62.671875 40.804688 63.804688 39 64.992188 L 39 49.03125 L 15.65625 19.875 L 15 19.03125 L 15 12 Z M 43.40625 45 L 52.59375 45 L 74.15625 18 L 21.84375 18 Z M 43.40625 45 "/>
<path style=" stroke:none;fill-rule:nonzero;fill:rgb(0%,0%,0%);fill-opacity:1;" d="M 60.835938 70.253906 C 70.378906 70.253906 77.523438 75.570312 81.328125 79.253906 C 77.515625 82.941406 70.371094 88.253906 60.835938 88.253906 C 51.296875 88.253906 44.152344 82.941406 40.347656 79.253906 C 44.15625 75.570312 51.304688 70.253906 60.835938 70.253906 M 60.835938 64.253906 C 42.835938 64.253906 32.335938 79.253906 32.335938 79.253906 C 32.335938 79.253906 42.835938 94.253906 60.835938 94.253906 C 78.835938 94.253906 89.335938 79.253906 89.335938 79.253906 C 89.335938 79.253906 78.835938 64.253906 60.835938 64.253906 Z M 65.335938 79.253906 C 62.851562 79.253906 60.835938 77.238281 60.835938 74.753906 C 60.835938 72.949219 61.910156 71.402344 63.445312 70.683594 C 62.617188 70.433594 61.753906 70.253906 60.835938 70.253906 C 55.867188 70.253906 51.835938 74.285156 51.835938 79.253906 C 51.835938 84.226562 55.867188 88.253906 60.835938 88.253906 C 65.808594 88.253906 69.835938 84.226562 69.835938 79.253906 C 69.835938 78.339844 69.660156 77.476562 69.410156 76.648438 C 68.691406 78.183594 67.144531 79.253906 65.335938 79.253906 Z M 65.335938 79.253906 "/>
</g>
</svg>
