<?xml version="1.0" encoding="UTF-8"?>
<svg xmlns="http://www.w3.org/2000/svg" xmlns:xlink="http://www.w3.org/1999/xlink" viewBox="0 0 32 32" version="1.1" width="64px" height="64px">
<g id="surface1">
<path style=" " d="M 4 4 L 4 12 L 7 12 L 7 20 L 4 20 L 4 28 L 12 28 L 12 25 L 20 25 L 20 28 L 28 28 L 28 20 L 25 20 L 25 12 L 28 12 L 28 4 L 20 4 L 20 7 L 12 7 L 12 4 Z M 6 6 L 10 6 L 10 10 L 6 10 Z M 22 6 L 26 6 L 26 10 L 22 10 Z M 12 9 L 20 9 L 20 12 L 23 12 L 23 20 L 20 20 L 20 23 L 12 23 L 12 20 L 9 20 L 9 12 L 12 12 Z M 22 22 L 26 22 L 26 26 L 22 26 Z "/>
</g>
</svg>
