<svg fill="#000000" xmlns="http://www.w3.org/2000/svg" viewBox="0 0 32 32" width="32px" height="32px"><path d="M 6 3 L 6 29 L 17.765625 29 C 19.233126 30.826376 21.480367 32 24 32 C 26.396 32 28.534 30.929859 30 29.255859 L 30 32 L 32 32 L 32 26 L 26 26 L 26 28 L 28.445312 28 C 27.347313 29.221 25.768 30 24 30 C 20.691 30 18 27.309 18 24 C 18 20.691 20.691 18 24 18 C 27.309 18 30 20.691 30 24 L 32 24 C 32 20.280606 29.444687 17.153349 26 16.261719 L 26 9.5859375 L 19.414062 3 L 6 3 z M 8 5 L 18 5 L 18 11 L 24 11 L 24 16 C 21.979283 16 20.136244 16.75962 18.726562 18 L 11 18 L 11 20 L 17.082031 20 C 16.722543 20.619242 16.445366 21.290505 16.261719 22 L 11 22 L 11 24 L 16 24 C 16 25.060938 16.211142 26.072669 16.587891 27 L 8 27 L 8 5 z M 20 6.4140625 L 22.585938 9 L 20 9 L 20 6.4140625 z M 11 14 L 11 16 L 21 16 L 21 14 L 11 14 z"/></svg>