<?xml version="1.0" encoding="UTF-8"?>
<svg xmlns="http://www.w3.org/2000/svg" xmlns:xlink="http://www.w3.org/1999/xlink" viewBox="0 0 32 32" version="1.1" width="96px" height="96px">
<g id="surface1">
<path style=" " d="M 16 4 C 9.382813 4 4 9.382813 4 16 C 4 22.617188 9.382813 28 16 28 C 22.617188 28 28 22.617188 28 16 C 28 9.382813 22.617188 4 16 4 Z M 16 6 C 21.535156 6 26 10.464844 26 16 C 26 21.535156 21.535156 26 16 26 C 10.464844 26 6 21.535156 6 16 C 6 10.464844 10.464844 6 16 6 Z M 16 7 C 15.449219 7 15 7.449219 15 8 C 15 8.550781 15.449219 9 16 9 C 16.550781 9 17 8.550781 17 8 C 17 7.449219 16.550781 7 16 7 Z M 10.34375 9.34375 C 9.792969 9.34375 9.34375 9.792969 9.34375 10.34375 C 9.34375 10.894531 9.792969 11.34375 10.34375 11.34375 C 10.894531 11.34375 11.34375 10.894531 11.34375 10.34375 C 11.34375 9.792969 10.894531 9.34375 10.34375 9.34375 Z M 20.9375 9.65625 L 16.5 14.0625 C 16.339844 14.019531 16.171875 14 16 14 C 14.894531 14 14 14.894531 14 16 C 14 17.105469 14.894531 18 16 18 C 17.105469 18 18 17.105469 18 16 C 18 15.828125 17.980469 15.660156 17.9375 15.5 L 22.375 11.0625 Z M 8 15 C 7.449219 15 7 15.449219 7 16 C 7 16.550781 7.449219 17 8 17 C 8.550781 17 9 16.550781 9 16 C 9 15.449219 8.550781 15 8 15 Z M 24 15 C 23.449219 15 23 15.449219 23 16 C 23 16.550781 23.449219 17 24 17 C 24.550781 17 25 16.550781 25 16 C 25 15.449219 24.550781 15 24 15 Z M 10.34375 20.65625 C 9.792969 20.65625 9.34375 21.105469 9.34375 21.65625 C 9.34375 22.207031 9.792969 22.65625 10.34375 22.65625 C 10.894531 22.65625 11.34375 22.207031 11.34375 21.65625 C 11.34375 21.105469 10.894531 20.65625 10.34375 20.65625 Z M 21.65625 20.65625 C 21.105469 20.65625 20.65625 21.105469 20.65625 21.65625 C 20.65625 22.207031 21.105469 22.65625 21.65625 22.65625 C 22.207031 22.65625 22.65625 22.207031 22.65625 21.65625 C 22.65625 21.105469 22.207031 20.65625 21.65625 20.65625 Z "/>
</g>
</svg>
