<?xml version="1.0" encoding="UTF-8"?>
<svg xmlns="http://www.w3.org/2000/svg" xmlns:xlink="http://www.w3.org/1999/xlink" width="64pt" height="64pt" viewBox="0 0 64 64" version="1.1">
<g id="surface161419">
<path style=" stroke:none;fill-rule:nonzero;fill:rgb(0%,0%,0%);fill-opacity:1;" d="M 28 10.375 C 29.296875 10.132812 30.625 10 32 10 C 33.367188 10 34.703125 10.132812 36 10.375 C 37.296875 10.132812 38.625 10 40 10 C 52.125 10 62 19.875 62 32 C 62 32.558594 61.980469 33.109375 61.9375 33.65625 C 60.742188 32.496094 59.40625 31.480469 57.949219 30.648438 C 57.414062 23.386719 52.59375 17.386719 46 15.0625 C 50.121094 18.46875 52.980469 23.320312 53.773438 28.847656 C 52.425781 28.441406 51.019531 28.171875 49.570312 28.0625 C 48.214844 21.984375 43.792969 17.105469 38 15.0625 C 41.945312 18.320312 44.730469 22.90625 45.660156 28.136719 C 44.3125 28.292969 43.003906 28.582031 41.75 28.996094 C 40.328125 20.472656 32.9375 14 24 14 C 14.039062 14 6 22.039062 6 32 C 6 41.960938 14.039062 50 24 50 C 25.394531 50 26.753906 49.84375 28.058594 49.542969 C 28.167969 51 28.4375 52.414062 28.84375 53.765625 C 28.5625 53.722656 28.28125 53.675781 28 53.625 C 26.703125 53.867188 25.367188 54 24 54 C 11.875 54 2 44.125 2 32 C 2 19.875 11.875 10 24 10 C 25.367188 10 26.703125 10.132812 28 10.375 Z M 26 20 L 26 22.375 C 28.3125 23.210938 30 25.414062 30 28 L 26 28 C 26 26.867188 25.132812 26 24 26 C 22.867188 26 22 26.867188 22 28 C 22 29.132812 22.867188 30 24 30 C 27.289062 30 30 32.710938 30 36 C 30 38.585938 28.3125 40.789062 26 41.625 L 26 44 L 22 44 L 22 41.625 C 19.6875 40.789062 18 38.585938 18 36 L 22 36 C 22 37.132812 22.867188 38 24 38 C 25.132812 38 26 37.132812 26 36 C 26 34.867188 25.132812 34 24 34 C 20.710938 34 18 31.289062 18 28 C 18 25.414062 19.6875 23.210938 22 22.375 L 22 20 Z M 26 20 "/>
<path style=" stroke:none;fill-rule:nonzero;fill:rgb(0%,0%,0%);fill-opacity:1;" d="M 52 52 L 64 52 L 64 64 L 60 64 L 60 58.511719 C 57.066406 61.859375 52.792969 64 48 64 C 39.179688 64 32 56.820312 32 48 C 32 39.179688 39.179688 32 48 32 C 56.820312 32 64 39.179688 64 48 L 60 48 C 60 41.382812 54.617188 36 48 36 C 41.382812 36 36 41.382812 36 48 C 36 54.617188 41.382812 60 48 60 C 51.535156 60 54.695312 58.441406 56.890625 56 L 52 56 Z M 52 52 "/>
</g>
</svg>
