<?xml version="1.0" encoding="UTF-8"?>
<svg xmlns="http://www.w3.org/2000/svg" xmlns:xlink="http://www.w3.org/1999/xlink" viewBox="0 0 32 32" version="1.1" width="96px" height="96px">
<g id="surface1">
<path style=" " d="M 6 3 L 6 29 L 26 29 L 26 13.4375 L 27.71875 11.71875 L 28 11.40625 L 28 3 Z M 8 5 L 22 5 L 22 11.40625 L 22.28125 11.71875 L 24 13.4375 L 24 27 L 8 27 Z M 24 5 L 26 5 L 26 10.5625 L 25 11.5625 L 24 10.5625 Z M 16 11 C 13.800781 11 12 12.800781 12 15 C 12 16.113281 12.476563 17.117188 13.21875 17.84375 C 11.886719 18.746094 11 20.28125 11 22 L 13 22 C 13 20.332031 14.332031 19 16 19 C 17.667969 19 19 20.332031 19 22 L 21 22 C 21 20.28125 20.113281 18.746094 18.78125 17.84375 C 19.523438 17.117188 20 16.113281 20 15 C 20 12.800781 18.199219 11 16 11 Z M 16 13 C 17.117188 13 18 13.882813 18 15 C 18 16.117188 17.117188 17 16 17 C 14.882813 17 14 16.117188 14 15 C 14 13.882813 14.882813 13 16 13 Z "/>
</g>
</svg>
