<?xml version="1.0" encoding="UTF-8"?>
<svg xmlns="http://www.w3.org/2000/svg" xmlns:xlink="http://www.w3.org/1999/xlink" viewBox="0 0 32 32" version="1.1" width="96px" height="96px">
<g id="surface1">
<path style=" " d="M 22.71875 2.5 L 22.34375 3.5625 L 22.03125 4.46875 C 20.226563 3.527344 18.171875 3 16 3 C 8.832031 3 3 8.832031 3 16 C 3 23.167969 8.832031 29 16 29 C 23.167969 29 29 23.167969 29 16 C 29 14.304688 28.65625 12.703125 28.0625 11.21875 L 29.1875 10.8125 L 30.21875 10.46875 L 29.78125 9.46875 C 28.597656 6.714844 26.46875 4.398438 23.71875 3 Z M 14.875 5.0625 C 14.917969 5.058594 14.957031 5.066406 15 5.0625 L 15 15 L 5.0625 15 C 5.535156 9.757813 9.648438 5.589844 14.875 5.0625 Z M 17 5.0625 C 18.550781 5.203125 20.015625 5.660156 21.3125 6.375 L 19.0625 12.65625 L 18.34375 14.65625 L 20.34375 13.9375 L 26.1875 11.875 C 26.703125 13.148438 27 14.539063 27 16 C 27 18.679688 26.054688 21.125 24.46875 23.03125 L 17 15.5625 Z M 23.78125 5.5 C 25.292969 6.492188 26.484375 7.789063 27.34375 9.34375 L 21.65625 11.34375 Z M 5.0625 17 L 15.5625 17 L 23.03125 24.46875 C 21.125 26.054688 18.679688 27 16 27 C 10.25 27 5.566406 22.613281 5.0625 17 Z "/>
</g>
</svg>
