<?xml version="1.0"?>
<svg xmlns="http://www.w3.org/2000/svg" xmlns:xlink="http://www.w3.org/1999/xlink" version="1.1" viewBox="0 0 252 252" width="100px" height="100px"><g fill="none" fill-rule="nonzero" stroke="none" stroke-width="1" stroke-linecap="butt" stroke-linejoin="miter" stroke-miterlimit="10" stroke-dasharray="" stroke-dashoffset="0" font-family="none" font-weight="none" font-size="none" text-anchor="none" style="mix-blend-mode: normal"><path d="M0,252v-252h252v252z" fill="none"/><g id="original-icon" fill="#000000" opacity="0" visibility="hidden"><g id="surface1"><path d="M172.4625,20.79c-5.13844,0.29531 -10.19812,1.55531 -14.9625,3.9375l-27.72,13.545h-78.75l-44.73,-10.8675c-0.66937,-0.19687 -1.35844,-0.23625 -2.0475,-0.1575c-2.44125,0.29531 -4.29187,2.30344 -4.41,4.76438c-0.11812,2.44125 1.53563,4.62656 3.9375,5.15812l45.36,11.025l0.63,0.1575h59.3775l-42.84,20.9475c-0.17719,0.07875 -0.29531,0.23625 -0.4725,0.315c-6.65437,2.93344 -8.40656,12.02906 -3.465,17.325l-0.1575,0.1575c0.07875,0.07875 0.23625,0.07875 0.315,0.1575c15.00188,16.43906 38.76469,21.8925 59.6925,13.7025h0.1575l29.61,-11.4975l61.11,61.2675c4.62656,4.62656 4.62656,11.91094 0,16.5375c-4.62656,4.62656 -11.91094,4.62656 -16.5375,0c-2.00812,-1.61437 -4.90219,-1.45687 -6.73312,0.35438c-1.81125,1.83094 -1.96875,4.725 -0.35438,6.73312c4.62656,4.62656 4.62656,12.06844 0,16.695c-4.62656,4.62656 -11.91094,4.62656 -16.5375,0l-3.6225,-3.6225c-2.00812,-1.61437 -4.90219,-1.45687 -6.73312,0.35438c-1.81125,1.83094 -1.96875,4.725 -0.35438,6.73312c4.62656,4.62656 4.62656,12.06844 0,16.695c-4.62656,4.62656 -11.91094,4.62656 -16.5375,0l-3.465,-3.6225c-1.94906,-2.00812 -5.15812,-2.02781 -7.16625,-0.07875c-2.00812,1.94906 -2.02781,5.15813 -0.07875,7.16625c4.62656,4.62656 4.62656,12.06844 0,16.695c-4.62656,4.62656 -11.91094,4.62656 -16.5375,0l-6.3,-6.3l3.78,-3.78c7.38281,-7.38281 7.38281,-19.39219 0,-26.775c-3.68156,-3.68156 -8.54437,-5.5125 -13.3875,-5.5125c-0.05906,0 -0.09844,0 -0.1575,0c0.07875,-4.96125 -1.75219,-9.94219 -5.5125,-13.7025c-3.68156,-3.68156 -8.54437,-5.5125 -13.3875,-5.5125c-0.25594,0 -0.53156,-0.01969 -0.7875,0c0.1575,-5.05969 -1.65375,-10.15875 -5.5125,-14.0175c-3.68156,-3.68156 -8.54437,-5.67 -13.3875,-5.67c-0.25594,0 -0.53156,-0.01969 -0.7875,0c0.1575,-5.05969 -1.65375,-10.15875 -5.5125,-14.0175c-3.68156,-3.68156 -8.54437,-5.5125 -13.3875,-5.5125c-4.84312,0 -9.70594,1.83094 -13.3875,5.5125l-4.5675,4.5675l-20.3175,-3.465c-0.315,-0.07875 -0.63,-0.13781 -0.945,-0.1575c-2.77594,-0.17719 -5.17781,1.94906 -5.355,4.725c-0.17719,2.77594 1.94906,5.17781 4.725,5.355l16.5375,2.9925c-1.49625,6.20156 0.05906,12.97406 4.8825,17.7975c3.89813,3.89813 9.07594,5.72906 14.175,5.5125c-0.21656,5.09906 1.61438,10.27688 5.5125,14.175c3.89813,3.89813 9.07594,5.72906 14.175,5.5125c-0.1575,5.05969 1.65375,10.15875 5.5125,14.0175c3.76031,3.76031 8.74125,5.59125 13.7025,5.5125c-0.11812,4.98094 1.65375,10.00125 5.355,13.7025l0.1575,0.1575c5.25656,5.13844 12.81656,6.49688 19.3725,4.2525l7.7175,7.7175c8.46563,8.46563 22.40438,8.46563 30.87,0c4.11469,-4.11469 6.02438,-9.54844 6.1425,-14.9625c7.28438,1.92938 15.2775,0.4725 20.9475,-5.1975c4.11469,-4.11469 6.18188,-9.54844 6.3,-14.9625c7.26469,1.90969 15.2775,0.4725 20.9475,-5.1975c4.84313,-4.84312 6.67406,-11.43844 5.985,-17.7975c6.35906,0.70875 12.95438,-1.14187 17.7975,-5.985c5.41406,-5.41406 7.34344,-13.01344 5.8275,-20.0025l2.9925,-2.9925l18.585,-2.6775c2.77594,-0.43312 4.68563,-3.05156 4.2525,-5.8275c-0.43312,-2.77594 -3.05156,-4.68562 -5.8275,-4.2525l-20.16,3.15l-1.575,0.1575l-2.9925,2.9925c-0.35437,-0.41344 -0.70875,-0.86625 -1.1025,-1.26l-62.055,-62.055c-0.23625,-0.23625 -0.51187,-0.45281 -0.7875,-0.63c-0.05906,-0.05906 -0.09844,-0.09844 -0.1575,-0.1575c-1.31906,-1.94906 -3.79969,-2.71687 -5.985,-1.89l-32.76,12.6c-17.22656,6.81188 -36.61875,2.38219 -48.825,-11.1825l-0.1575,-0.1575c-0.64969,-0.64969 -0.68906,-1.1025 0.1575,-1.4175h0.315l0.1575,-0.1575l62.2125,-30.3975c1.06313,-0.1575 2.06719,-0.64969 2.835,-1.4175l26.6175,-13.0725h0.1575c9.2925,-4.64625 20.14031,-3.70125 28.665,2.0475l1.89,2.205l0.4725,0.63l0.63,0.315c9.15469,6.3 20.17969,7.97344 30.555,5.1975v0.1575l0.315,-0.1575l23.4675,-4.8825c2.73656,-0.61031 4.46906,-3.32719 3.85875,-6.06375c-0.61031,-2.73656 -3.32719,-4.46906 -6.06375,-3.85875l-23.625,5.04l-0.1575,0.1575h-0.1575c-7.52062,2.08688 -15.2775,0.70875 -22.05,-3.78l-1.89,-2.205l-0.4725,-0.4725l-0.63,-0.4725c-5.78812,-4.05562 -12.40312,-6.26062 -19.215,-6.7725c-1.71281,-0.11812 -3.48469,-0.09844 -5.1975,0zM44.1,140.3325c2.205,0 4.44938,0.98438 6.3,2.835c3.70125,3.70125 3.70125,8.89875 0,12.6l-3.9375,3.78l-0.4725,0.4725l-0.63,0.7875c-3.70125,3.70125 -8.89875,3.70125 -12.6,0c-3.03187,-3.03187 -3.48469,-7.00875 -1.575,-10.395c0.88594,-0.63 1.53563,-1.49625 1.89,-2.52l4.095,-3.9375l0.63,-0.7875c1.85063,-1.85062 4.095,-2.835 6.3,-2.835zM63.7875,160.02c2.205,0 4.44938,0.98438 6.3,2.835c3.70125,3.70125 3.70125,8.74125 0,12.4425l-5.04,5.04c-3.70125,3.70125 -8.89875,3.70125 -12.6,0c-3.70125,-3.70125 -3.70125,-8.74125 0,-12.4425l5.04,-5.04c1.85063,-1.85062 4.095,-2.835 6.3,-2.835zM83.475,179.7075c2.205,0 4.29188,0.98438 6.1425,2.835c3.05156,3.05156 3.56344,7.02844 1.575,10.395c-0.68906,0.51188 -1.4175,0.945 -2.0475,1.575l-5.04,5.04v0.1575h-0.1575c-0.55125,0.61031 -0.96469,1.24031 -1.4175,1.89c-3.36656,1.98844 -7.34344,1.47656 -10.395,-1.575c-3.70125,-3.70125 -3.70125,-8.74125 0,-12.4425l3.78,-3.9375l0.945,-0.7875l0.315,-0.315c1.85063,-1.85062 4.095,-2.835 6.3,-2.835zM102.5325,198.9225c2.205,0 4.44938,0.82688 6.3,2.6775c3.70125,3.70125 3.70125,8.89875 0,12.6l-5.04,5.04c-0.43312,0.43313 -0.7875,0.92531 -1.26,1.26c-0.03937,0.01969 -0.11812,-0.01969 -0.1575,0c-3.52406,2.44125 -7.93406,1.98844 -11.1825,-1.26c-2.38219,-2.38219 -2.93344,-7.14656 -1.26,-10.71c0.63,-0.49219 1.31906,-0.84656 1.89,-1.4175l5.04,-5.04c0.66938,-0.66937 1.18125,-1.45687 1.7325,-2.205c1.26,-0.63 2.61844,-0.945 3.9375,-0.945z"/></g></g><g id="subtracted-icon" fill="#000000"><g id="surface1 1"><path d="M177.66,20.79c6.81188,0.51188 13.42688,2.71688 19.215,6.7725l0.63,0.4725l0.4725,0.4725l1.89,2.205c6.7725,4.48875 14.52938,5.86688 22.05,3.78h0.1575l0.1575,-0.1575l23.625,-5.04c2.73656,-0.61031 5.45344,1.12219 6.06375,3.85875c0.61031,2.73656 -1.12219,5.45344 -3.85875,6.06375l-23.4675,4.8825l-0.315,0.1575v-0.1575c-10.37531,2.77594 -21.40031,1.1025 -30.555,-5.1975l-0.63,-0.315l-0.4725,-0.63l-1.89,-2.205c-8.52469,-5.74875 -19.3725,-6.69375 -28.665,-2.0475h-0.1575l-26.6175,13.0725c-0.76781,0.76781 -1.77187,1.26 -2.835,1.4175l-62.2125,30.3975l-0.1575,0.1575h-0.315c-0.84656,0.315 -0.80719,0.76781 -0.1575,1.4175l0.1575,0.1575c12.20625,13.56469 31.59844,17.99438 48.825,11.1825l32.76,-12.6c2.18531,-0.82687 4.66594,-0.05906 5.985,1.89c0.05906,0.05906 0.09844,0.09844 0.1575,0.1575c0.27563,0.17719 0.55125,0.39375 0.7875,0.63l50.77702,50.77702c-5.4229,-1.73893 -11.17272,-2.72942 -17.12641,-2.84845l-39.9506,-40.05357l-29.61,11.4975h-0.1575c-20.92781,8.19 -44.69062,2.73656 -59.6925,-13.7025c-0.07875,-0.07875 -0.23625,-0.07875 -0.315,-0.1575l0.1575,-0.1575c-4.94156,-5.29594 -3.18937,-14.39156 3.465,-17.325c0.17719,-0.07875 0.29531,-0.23625 0.4725,-0.315l42.84,-20.9475h-59.3775l-0.63,-0.1575l-45.36,-11.025c-2.40187,-0.53156 -4.05562,-2.71687 -3.9375,-5.15812c0.11813,-2.46094 1.96875,-4.46906 4.41,-4.76438c0.68906,-0.07875 1.37813,-0.03937 2.0475,0.1575l44.73,10.8675h78.75l27.72,-13.545c4.76438,-2.38219 9.82406,-3.64219 14.9625,-3.9375c1.71281,-0.09844 3.48469,-0.11812 5.1975,0zM246.1725,138.6c2.77594,-0.43312 5.39438,1.47656 5.8275,4.2525c0.43313,2.77594 -1.47656,5.39438 -4.2525,5.8275l-11.45216,1.64989c-2.81036,-3.22362 -5.95505,-6.14918 -9.37858,-8.72118zM142.2225,238.455c-8.46562,8.46563 -22.40437,8.46563 -30.87,0l-7.7175,-7.7175c-6.55594,2.24438 -14.11594,0.88594 -19.3725,-4.2525l-0.1575,-0.1575c-3.70125,-3.70125 -5.47312,-8.72156 -5.355,-13.7025c-4.96125,0.07875 -9.94219,-1.75219 -13.7025,-5.5125c-3.85875,-3.85875 -5.67,-8.95781 -5.5125,-14.0175c-5.09906,0.21656 -10.27687,-1.61437 -14.175,-5.5125c-3.89812,-3.89812 -5.72906,-9.07594 -5.5125,-14.175c-5.09906,0.21656 -10.27687,-1.61437 -14.175,-5.5125c-4.82344,-4.82344 -6.37875,-11.59594 -4.8825,-17.7975l-16.5375,-2.9925c-2.77594,-0.17719 -4.90219,-2.57906 -4.725,-5.355c0.17719,-2.77594 2.57906,-4.90219 5.355,-4.725c0.315,0.01969 0.63,0.07875 0.945,0.1575l20.3175,3.465l4.5675,-4.5675c3.68156,-3.68156 8.54438,-5.5125 13.3875,-5.5125c4.84313,0 9.70594,1.83094 13.3875,5.5125c3.85875,3.85875 5.67,8.95781 5.5125,14.0175c0.25594,-0.01969 0.53156,0 0.7875,0c4.84313,0 9.70594,1.98844 13.3875,5.67c3.85875,3.85875 5.67,8.95781 5.5125,14.0175c0.25594,-0.01969 0.53156,0 0.7875,0c4.84313,0 9.70594,1.83094 13.3875,5.5125c3.76031,3.76031 5.59125,8.74125 5.5125,13.7025c0.05906,0 0.09844,0 0.1575,0c4.84313,0 9.70594,1.83094 13.3875,5.5125c7.38281,7.38281 7.38281,19.39219 0,26.775l-3.78,3.78l6.3,6.3c4.62656,4.62656 11.91094,4.62656 16.5375,0c3.3113,-3.3113 4.25266,-8.06474 2.82406,-12.196c2.4804,4.46593 5.50975,8.5897 8.99524,12.27852c-1.00653,2.55367 -2.514,4.94468 -4.5743,7.00498zM134.9775,214.6725c-1.24836,-1.28618 -1.68908,-3.06503 -1.31698,-4.68993c0.74485,2.10896 1.60385,4.16524 2.56948,6.16134c-0.37096,-0.515 -0.78845,-1.00737 -1.25249,-1.47141zM37.8,143.1675l-0.63,0.7875l-4.095,3.9375c-0.35437,1.02375 -1.00406,1.89 -1.89,2.52c-1.90969,3.38625 -1.45687,7.36313 1.575,10.395c3.70125,3.70125 8.89875,3.70125 12.6,0l0.63,-0.7875l0.4725,-0.4725l3.9375,-3.78c3.70125,-3.70125 3.70125,-8.89875 0,-12.6c-1.85062,-1.85062 -4.095,-2.835 -6.3,-2.835c-2.205,0 -4.44937,0.98438 -6.3,2.835zM57.4875,162.855l-5.04,5.04c-3.70125,3.70125 -3.70125,8.74125 0,12.4425c3.70125,3.70125 8.89875,3.70125 12.6,0l5.04,-5.04c3.70125,-3.70125 3.70125,-8.74125 0,-12.4425c-1.85062,-1.85062 -4.095,-2.835 -6.3,-2.835c-2.205,0 -4.44937,0.98438 -6.3,2.835zM77.175,182.5425l-0.315,0.315l-0.945,0.7875l-3.78,3.9375c-3.70125,3.70125 -3.70125,8.74125 0,12.4425c3.05156,3.05156 7.02844,3.56344 10.395,1.575c0.45281,-0.64969 0.86625,-1.27969 1.4175,-1.89h0.1575v-0.1575l5.04,-5.04c0.63,-0.63 1.35844,-1.06312 2.0475,-1.575c1.98844,-3.36656 1.47656,-7.34344 -1.575,-10.395c-1.85062,-1.85062 -3.9375,-2.835 -6.1425,-2.835c-2.205,0 -4.44937,0.98438 -6.3,2.835zM98.595,199.8675c-0.55125,0.74813 -1.06312,1.53563 -1.7325,2.205l-5.04,5.04c-0.57094,0.57094 -1.26,0.92531 -1.89,1.4175c-1.67344,3.56344 -1.12219,8.32781 1.26,10.71c3.24844,3.24844 7.65844,3.70125 11.1825,1.26c0.03938,-0.01969 0.11813,0.01969 0.1575,0c0.4725,-0.33469 0.82688,-0.82687 1.26,-1.26l5.04,-5.04c3.70125,-3.70125 3.70125,-8.89875 0,-12.6c-1.85062,-1.85062 -4.095,-2.6775 -6.3,-2.6775c-1.31906,0 -2.6775,0.315 -3.9375,0.945z"/></g></g><g fill="#000000"><g id="Layer_9"><path d="M190.7214,139.58141c-27.72,0 -50.4,22.68 -50.4,50.4c0,27.72 22.68,50.4 50.4,50.4c27.72,0 50.4,-22.68 50.4,-50.4c0,-27.72 -22.68,-50.4 -50.4,-50.4zM211.8894,204.09341c2.016,2.016 2.016,5.04 0,7.056c-1.008,1.008 -2.52,1.512 -3.528,1.512c-1.008,0 -2.52,-0.504 -3.528,-1.512l-14.112,-14.112l-14.112,14.112c-1.008,1.008 -2.52,1.512 -3.528,1.512c-1.008,0 -2.52,-0.504 -3.528,-1.512c-2.016,-2.016 -2.016,-5.04 0,-7.056l14.112,-14.112l-14.112,-14.112c-2.016,-2.016 -2.016,-5.04 0,-7.056c2.016,-2.016 5.04,-2.016 7.056,0l14.112,14.112l14.112,-14.112c2.016,-2.016 5.04,-2.016 7.056,0c2.016,2.016 2.016,5.04 0,7.056l-14.112,14.112z"/></g></g></g></svg>
