<?xml version="1.0" encoding="UTF-8"?>
<svg xmlns="http://www.w3.org/2000/svg" xmlns:xlink="http://www.w3.org/1999/xlink" viewBox="0 0 32 32" version="1.1" width="64px" height="64px">
<g id="surface1">
<path style=" " d="M 20.953125 4.9375 L 20 7.875 L 26.046875 9.9375 L 27 7 Z M 19.90625 9.9375 L 18 12.277344 L 23.09375 16.277344 L 25 13.9375 Z M 5 10 L 5 13 L 9 13 L 9 15 L 12 15 L 12 10 Z M 5 14 L 5 27 L 23 27 L 23 24 L 8 24 L 8 14 Z M 9 16 L 9 19 L 19 19 L 19 16 Z M 9 20 L 9 23 L 19 23 L 19 20 Z M 20 20 L 20 23 L 23 23 L 23 20 Z "/>
</g>
</svg>
