<?xml version="1.0" encoding="UTF-8"?>
<svg xmlns="http://www.w3.org/2000/svg" xmlns:xlink="http://www.w3.org/1999/xlink" viewBox="0 0 32 32" version="1.1" width="96px" height="96px">
<g id="surface1">
<path style=" " d="M 4 6 L 4 12 L 1 12 L 1 26 L 31 26 L 31 12 L 28 12 L 28 6 L 26 6 L 26 12 L 24 12 L 24 6 L 20 6 L 20 12 L 18 12 L 18 6 L 16 6 L 16 12 L 14 12 L 14 6 L 8 6 L 8 12 L 6 12 L 6 6 Z M 3 14 L 29 14 L 29 24 L 3 24 Z M 4 15 L 4 22 L 6 22 L 6 15 Z M 8 15 L 8 22 L 14 22 L 14 15 Z M 16 15 L 16 22 L 18 22 L 18 15 Z M 20 15 L 20 22 L 24 22 L 24 15 Z M 26 15 L 26 22 L 28 22 L 28 15 Z "/>
</g>
</svg>
