<?xml version="1.0" encoding="UTF-8"?>
<svg xmlns="http://www.w3.org/2000/svg" xmlns:xlink="http://www.w3.org/1999/xlink" width="64pt" height="64pt" viewBox="0 0 64 64" version="1.1">
<g id="surface231666">
<path style=" stroke:none;fill-rule:nonzero;fill:rgb(0%,0%,0%);fill-opacity:1;" d="M 54 10 L 54 28.914062 C 52.71875 28.511719 51.378906 28.234375 50 28.097656 L 50 14 L 33.6875 14 L 12.8125 35 L 28.132812 50.320312 C 28.367188 52.355469 28.910156 54.300781 29.710938 56.101562 L 29 56.8125 L 27.5625 55.4375 L 8.5625 36.4375 L 7.1875 35 L 8.5625 33.625 L 31.375 10.5625 L 32 10 Z M 46 20 C 46 21.101562 45.101562 22 44 22 C 42.898438 22 42 21.101562 42 20 C 42 18.898438 42.898438 18 44 18 C 45.101562 18 46 18.898438 46 20 Z M 46 20 "/>
<path style=" stroke:none;fill-rule:nonzero;fill:rgb(0%,0%,0%);fill-opacity:1;" d="M 48 64 C 39.199219 64 32 56.800781 32 48 C 32 39.199219 39.199219 32 48 32 C 56.800781 32 64 39.199219 64 48 C 64 56.800781 56.800781 64 48 64 Z M 48 36 C 41.398438 36 36 41.398438 36 48 C 36 54.601562 41.398438 60 48 60 C 54.601562 60 60 54.601562 60 48 C 60 41.398438 54.601562 36 48 36 Z M 56 46 L 50 46 L 50 40 L 46 40 L 46 46 L 40 46 L 40 50 L 46 50 L 46 56 L 50 56 L 50 50 L 56 50 Z M 56 46 "/>
</g>
</svg>
