<?xml version="1.0" encoding="UTF-8" standalone="yes"?>
<svg xmlns="http://www.w3.org/2000/svg" viewBox="0 0 32 32" width="64" height="64" fill="#000000">
  <path d="M 5 3.3828125 L 5 23 A 1.0001 1.0001 0 0 0 5.0214844 23.210938 C 5.0168057 23.308168 5 23.401353 5 23.5 C 5 24.659513 5.3257249 25.727499 5.9179688 26.556641 C 6.5102126 27.385782 7.431336 28 8.5 28 C 8.5145973 28 8.528427 27.998275 8.5429688 27.998047 A 1.0001 1.0001 0 0 0 8.6230469 28 L 9 28 L 25.53125 28 A 1.0001 1.0001 0 0 0 25.769531 27.972656 A 1.0001 1.0001 0 0 0 25.775391 27.972656 C 26.692639 27.847038 27.487427 27.299315 28.03125 26.574219 C 28.652762 25.745536 29 24.668899 29 23.5 C 29 22.331101 28.652762 21.254464 28.03125 20.425781 C 27.750037 20.05083 27.398025 19.7314 27 19.486328 L 27 3.3828125 L 22.072266 5.8457031 L 19 3.7988281 L 16 5.7988281 L 13 3.7988281 L 9.9277344 5.8457031 L 5 3.3828125 z M 13 6.2011719 L 16 8.2011719 L 19 6.2011719 L 21.927734 8.1542969 L 25 6.6171875 L 25 19 L 8.4355469 19 L 8.4355469 19.003906 C 7.9132653 19.016208 7.4279313 19.174697 7 19.431641 L 7 6.6171875 L 10.072266 8.1542969 L 13 6.2011719 z M 9 9.9921875 L 9 11.992188 L 14 11.992188 L 14 9.9921875 L 9 9.9921875 z M 16 9.9921875 L 16 11.992188 L 23 11.992188 L 23 9.9921875 L 16 9.9921875 z M 18.998047 13.990234 L 13.998047 14 L 14.001953 16 L 19.001953 15.990234 L 18.998047 13.990234 z M 9 13.992188 L 9 15.992188 L 12 15.992188 L 12 13.992188 L 9 13.992188 z M 21 13.992188 L 21 15.992188 L 23 15.992188 L 23 13.992188 L 21 13.992188 z M 8.5 21 C 8.8120479 21 9.1405468 21.167859 9.453125 21.605469 C 9.7657032 22.043078 10 22.726516 10 23.5 C 10 24.273484 9.7657032 24.956922 9.453125 25.394531 C 9.1405468 25.832141 8.8120479 26 8.5 26 C 8.1879521 26 7.8594532 25.832141 7.546875 25.394531 C 7.2342968 24.956922 7 24.273484 7 23.5 C 7 22.726516 7.2342968 22.043078 7.546875 21.605469 C 7.8594532 21.167859 8.1879521 21 8.5 21 z M 11.410156 21 L 25.375 21 C 25.738791 21 26.102902 21.186682 26.431641 21.625 C 26.760379 22.063318 27 22.736899 27 23.5 C 27 24.263101 26.760379 24.936682 26.431641 25.375 C 26.102902 25.813318 25.738791 26 25.375 26 L 11.410156 26 C 11.788084 25.270507 12 24.416708 12 23.5 C 12 22.583292 11.788084 21.729493 11.410156 21 z"/>
</svg>
