<?xml version="1.0" encoding="UTF-8"?>
<svg xmlns="http://www.w3.org/2000/svg" xmlns:xlink="http://www.w3.org/1999/xlink" viewBox="0 0 32 32" version="1.1" width="64px" height="64px">
<g id="surface1">
<path style=" " d="M 8.5 5 L 5 9.65625 L 5 27 L 27 27 L 27 9.65625 L 23.5 5 Z M 9.5 7 L 22.5 7 L 24 9 L 8 9 Z M 7 11 L 25 11 L 25 25 L 7 25 Z M 13 13 C 12.449219 13 12 13.449219 12 14 C 12 14.550781 12.449219 15 13 15 L 19 15 C 19.554688 15 20 14.550781 20 14 C 20 13.449219 19.554688 13 19 13 Z M 19 18 L 18 19 L 18 21 L 20 21 L 20 19 Z M 23 18 L 22 19 L 22 21 L 24 21 L 24 19 Z M 18 22 L 18 24 L 24 24 L 24 22 Z "/>
</g>
</svg>
