<?xml version="1.0" encoding="utf-8"?>
<!-- Generator: Adobe Illustrator 23.1.0, SVG Export Plug-In . SVG Version: 6.00 Build 0)  -->
<svg version="1.1" id="Layer_1" xmlns="http://www.w3.org/2000/svg" xmlns:xlink="http://www.w3.org/1999/xlink" x="0px" y="0px"
	 viewBox="0 0 26 26" style="enable-background:new 0 0 26 26;" xml:space="preserve">
<g>
	<g>
		<path d="M10.8,13.4c-1.1,0-2.2-0.4-3-1.2c-0.4-0.4-0.4-1.2,0-1.6c0.4-0.4,1.2-0.4,1.6,0c0.8,0.8,2.1,0.7,3-0.2L16,6.8
			c0.5-0.5,0.8-1.1,0.8-1.7c0-0.4-0.1-0.9-0.6-1.3c-0.5-0.5-1.1-0.6-1.4-0.6c-0.6,0-1.1,0.3-1.6,0.7L11.1,6c-0.5-0.5-2.4-0.8-3-0.3
			l3.4-3.4c0.8-0.8,2-1.3,3.1-1.4c1.2-0.1,2.3,0.4,3.2,1.2c0.8,0.8,1.2,1.8,1.2,3s-0.5,2.4-1.4,3.3l-3.5,3.5
			C13.2,12.9,12,13.4,10.8,13.4z"/>
	</g>
	<g>
		<path d="M9.2,6.6c1.1,0,2.2,0.4,3,1.2c0.4,0.4,0.4,1.2,0,1.6s-1.2,0.4-1.6,0c-0.8-0.8-2.1-0.7-3,0.2L4,13.2
			c-0.5,0.5-0.8,1.1-0.8,1.7c0,0.4,0.1,0.9,0.6,1.3c0.5,0.5,1.1,0.6,1.4,0.6c0.6,0,1.1-0.3,1.6-0.7L8.9,14c0.5,0.5,2.4,0.8,3,0.3
			l-3.4,3.4c-0.8,0.8-2,1.3-3.1,1.4c-1.2,0.1-2.3-0.4-3.2-1.2c-0.8-0.8-1.2-1.8-1.2-3s0.5-2.4,1.4-3.3l3.5-3.5
			C6.8,7.1,8,6.6,9.2,6.6z"/>
	</g>
</g>
<g>
	<polygon points="19,14 17.3,14 17,14 17,15.9 17,17 14,17 14,19 17,19 17,22 19,22 19,19 22,19 22,17 19,17 	"/>
	<path d="M18,10c-1.7,0-3.2,0.5-4.5,1.4c-0.6,0.4-1.2,0.9-1.7,1.5C10.7,14.3,10,16.1,10,18c0,4.4,3.6,8,8,8s8-3.6,8-8
		C26,13.6,22.4,10,18,10z M18,24c-3.3,0-6-2.7-6-6c0-1.2,0.3-2.3,0.9-3.2c0.7-1,1.6-1.9,2.8-2.3c0.7-0.3,1.5-0.5,2.3-0.5
		c3.3,0,6,2.7,6,6S21.3,24,18,24z"/>
</g>
</svg>
