<?xml version="1.0" encoding="UTF-8"?>
<svg xmlns="http://www.w3.org/2000/svg" xmlns:xlink="http://www.w3.org/1999/xlink" viewBox="0 0 32 32" version="1.1" width="64px" height="64px">
<g id="surface1">
<path style=" " d="M 16 5 C 14.355469 5 13 6.355469 13 8 C 13 9.292969 13.84375 10.394531 15 10.8125 L 15 14 L 11 14 L 11 20 L 13 20 L 13 16 L 27 16 L 27 20 L 29 20 L 29 14 L 17 14 L 17 10.8125 C 18.15625 10.394531 19 9.292969 19 8 C 19 6.355469 17.644531 5 16 5 Z M 16 7 C 16.5625 7 17 7.4375 17 8 C 17 8.5625 16.5625 9 16 9 C 15.4375 9 15 8.5625 15 8 C 15 7.4375 15.4375 7 16 7 Z M 4 21 C 2.894531 21 2 21.894531 2 23 C 2 24.105469 2.894531 25 4 25 C 5.105469 25 6 24.105469 6 23 C 6 21.894531 5.105469 21 4 21 Z M 12 21 C 10.894531 21 10 21.894531 10 23 C 10 24.105469 10.894531 25 12 25 C 13.105469 25 14 24.105469 14 23 C 14 21.894531 13.105469 21 12 21 Z M 20 21 C 18.894531 21 18 21.894531 18 23 C 18 24.105469 18.894531 25 20 25 C 21.105469 25 22 24.105469 22 23 C 22 21.894531 21.105469 21 20 21 Z M 28 21 C 26.894531 21 26 21.894531 26 23 C 26 24.105469 26.894531 25 28 25 C 29.105469 25 30 24.105469 30 23 C 30 21.894531 29.105469 21 28 21 Z "/>
</g>
</svg>
