<?xml version="1.0"?>
<svg xmlns="http://www.w3.org/2000/svg" xmlns:xlink="http://www.w3.org/1999/xlink" version="1.1" viewBox="0 0 172 172" width="64px" height="64px"><g fill="none" fill-rule="nonzero" stroke="none" stroke-width="1" stroke-linecap="butt" stroke-linejoin="miter" stroke-miterlimit="10" stroke-dasharray="" stroke-dashoffset="0" font-family="none" font-weight="none" font-size="none" text-anchor="none" style="mix-blend-mode: normal"><path d="M0,172v-172h172v172z" fill="none" stroke="none"/><g id="original-icon" fill="#000000" stroke="none" opacity="0" visibility="hidden"><g id="surface1"><path d="M21.5,21.5v107.5h37.625v-10.75h-26.875v-86h64.5v5.375h10.75v-16.125zM64.5,43v107.5h86v-107.5zM75.25,53.75h64.5v86h-64.5z"/></g></g><g id="subtracted-icon" fill="#000000" stroke="none"><g id="surface1 1"><path d="M107.5,21.5v16.125h-10.75v-5.375h-64.5v86h26.875v10.75h-37.625v-107.5zM150.5,43v36.7222c-3.41314,-1.49119 -7.01109,-2.63818 -10.75,-3.39708v-22.57511h-64.5v86h1.07511c0.75891,3.73891 1.90589,7.33686 3.39708,10.75h-15.2222v-107.5z"/></g></g><g fill="#000000" stroke="none"><g id="Layer_1"><path d="M129,172c-23.65,0 -43,-19.35 -43,-43c0,-23.65 19.35,-43 43,-43c23.65,0 43,19.35 43,43c0,23.65 -19.35,43 -43,43zM129,96.75c-17.7375,0 -32.25,14.5125 -32.25,32.25c0,17.7375 14.5125,32.25 32.25,32.25c17.7375,0 32.25,-14.5125 32.25,-32.25c0,-17.7375 -14.5125,-32.25 -32.25,-32.25zM150.5,123.625h-16.125v-16.125h-10.75v16.125h-16.125v10.75h16.125v16.125h10.75v-16.125h16.125z"/></g><g id="Layer_1" opacity="0"><path d="M182.75,129c0,29.68613 -24.06387,53.75 -53.75,53.75c-29.68613,0 -53.75,-24.06387 -53.75,-53.75c0,-29.68613 24.06387,-53.75 53.75,-53.75c29.68613,0 53.75,24.06387 53.75,53.75z"/></g></g><path d="M86,172v-86h86v86z" id="overlay-drag" fill="#ff0000" stroke="none" opacity="0"/></g></svg>
