<?xml version="1.0" encoding="UTF-8"?>
<svg xmlns="http://www.w3.org/2000/svg" xmlns:xlink="http://www.w3.org/1999/xlink" viewBox="0 0 32 32" version="1.1" width="64px" height="64px">
<g id="surface1">
<path style=" " d="M 8 3 C 5.800781 3 4 4.800781 4 7 C 4 9.199219 5.800781 11 8 11 C 8.707031 11 9.359375 10.796875 9.9375 10.46875 L 12.125 12.90625 C 11.433594 13.765625 11 14.824219 11 16 C 11 17.089844 11.367188 18.082031 11.96875 18.90625 L 10.21875 20.6875 C 10.210938 20.683594 10.195313 20.691406 10.1875 20.6875 C 9.554688 20.265625 8.8125 20 8 20 C 5.800781 20 4 21.800781 4 24 C 4 26.199219 5.800781 28 8 28 C 10.199219 28 12 26.199219 12 24 C 12 23.34375 11.816406 22.734375 11.53125 22.1875 L 13.4375 20.28125 C 14.191406 20.738281 15.0625 21 16 21 C 16.710938 21 17.386719 20.835938 18 20.5625 L 19.15625 22.21875 C 18.449219 22.941406 18 23.917969 18 25 C 18 27.199219 19.800781 29 22 29 C 24.199219 29 26 27.199219 26 25 C 26 22.800781 24.199219 21 22 21 C 21.609375 21 21.230469 21.082031 20.875 21.1875 L 19.625 19.40625 C 20.25 18.742188 20.714844 17.921875 20.90625 17 L 22.15625 17 C 22.601563 18.71875 24.148438 20 26 20 C 28.199219 20 30 18.199219 30 16 C 30 13.800781 28.199219 12 26 12 C 24.148438 12 22.601563 13.28125 22.15625 15 L 20.90625 15 C 20.667969 13.851563 20.007813 12.84375 19.125 12.125 L 19.5625 10.9375 C 19.707031 10.953125 19.851563 11 20 11 C 22.199219 11 24 9.199219 24 7 C 24 4.800781 22.199219 3 20 3 C 17.800781 3 16 4.800781 16 7 C 16 8.328125 16.683594 9.488281 17.6875 10.21875 L 17.3125 11.1875 C 16.890625 11.070313 16.457031 11 16 11 C 15.148438 11 14.363281 11.242188 13.65625 11.625 L 11.375 9.125 C 11.769531 8.507813 12 7.78125 12 7 C 12 4.800781 10.199219 3 8 3 Z M 8 5 C 9.117188 5 10 5.882813 10 7 C 10 7.558594 9.765625 8.046875 9.40625 8.40625 C 9.046875 8.765625 8.558594 9 8 9 C 6.882813 9 6 8.117188 6 7 C 6 5.882813 6.882813 5 8 5 Z M 20 5 C 21.117188 5 22 5.882813 22 7 C 22 8.117188 21.117188 9 20 9 C 18.882813 9 18 8.117188 18 7 C 18 5.882813 18.882813 5 20 5 Z M 16 13 C 17.65625 13 19 14.34375 19 16 C 18.996094 16.042969 18.996094 16.082031 19 16.125 C 18.933594 17.71875 17.613281 19 16 19 C 15.25 19 14.558594 18.734375 14.03125 18.28125 C 13.394531 17.730469 13 16.90625 13 16 C 13 14.34375 14.34375 13 16 13 Z M 26 14 C 27.117188 14 28 14.882813 28 16 C 28 17.117188 27.117188 18 26 18 C 24.882813 18 24 17.117188 24 16 C 24 14.882813 24.882813 14 26 14 Z M 8 22 C 9.117188 22 10 22.882813 10 24 C 10 25.117188 9.117188 26 8 26 C 6.882813 26 6 25.117188 6 24 C 6 22.882813 6.882813 22 8 22 Z M 22 23 C 23.117188 23 24 23.882813 24 25 C 24 26.117188 23.117188 27 22 27 C 20.882813 27 20 26.117188 20 25 C 20 24.335938 20.324219 23.769531 20.8125 23.40625 C 20.964844 23.355469 21.105469 23.269531 21.21875 23.15625 C 21.230469 23.152344 21.238281 23.128906 21.25 23.125 C 21.480469 23.035156 21.734375 23 22 23 Z "/>
</g>
</svg>
