<?xml version="1.0" encoding="UTF-8"?>
<svg xmlns="http://www.w3.org/2000/svg" xmlns:xlink="http://www.w3.org/1999/xlink" viewBox="0 0 32 32" version="1.1" width="96px" height="96px">
<g id="surface1">
<path style=" " d="M 4 4 L 4 15 L 15 15 L 15 4 Z M 17 4 L 17 15 L 28 15 L 28 4 Z M 19 6 L 26 6 L 26 13 L 19 13 Z M 4 17 L 4 28 L 15 28 L 15 17 Z M 17 17 L 17 28 L 28 28 L 28 17 Z M 6 19 L 13 19 L 13 26 L 6 26 Z M 19 19 L 19.5625 19 L 19 19.5625 Z M 22.4375 19 L 24.5625 19 L 19 24.5625 L 19 22.4375 Z M 8 20 C 7.449219 20 7 20.449219 7 21 C 7 21.550781 7.449219 22 8 22 C 8.550781 22 9 21.550781 9 21 C 9 20.449219 8.550781 20 8 20 Z M 11 20 C 10.449219 20 10 20.449219 10 21 C 10 21.550781 10.449219 22 11 22 C 11.550781 22 12 21.550781 12 21 C 12 20.449219 11.550781 20 11 20 Z M 26 20.4375 L 26 22.5625 L 22.5625 26 L 20.4375 26 Z M 8 23 C 7.449219 23 7 23.449219 7 24 C 7 24.550781 7.449219 25 8 25 C 8.550781 25 9 24.550781 9 24 C 9 23.449219 8.550781 23 8 23 Z M 11 23 C 10.449219 23 10 23.449219 10 24 C 10 24.550781 10.449219 25 11 25 C 11.550781 25 12 24.550781 12 24 C 12 23.449219 11.550781 23 11 23 Z M 26 25.4375 L 26 26 L 25.4375 26 Z "/>
</g>
</svg>
