<?xml version="1.0" encoding="UTF-8"?>
<svg xmlns="http://www.w3.org/2000/svg" xmlns:xlink="http://www.w3.org/1999/xlink" viewBox="0 0 32 32" version="1.1" width="96px" height="96px">
<g id="surface1">
<path style=" " d="M 5 4 L 5.0625 27.125 C 5.011719 27.625 5.371094 28 5.8125 28 L 20.1875 28 L 27 21 L 27 4 L 24 6 L 22 4 L 20 6 L 18 4 L 16 6 L 14 4 L 12 6 L 10 4 L 8 6 Z M 10 6.6875 L 10.65625 7.34375 C 11.011719 7.699219 11.496094 7.90625 12 7.90625 C 12.503906 7.90625 12.988281 7.699219 13.34375 7.34375 L 14 6.6875 L 14.65625 7.34375 C 15.027344 7.714844 15.515625 7.90625 16 7.90625 C 16.484375 7.90625 16.972656 7.714844 17.34375 7.34375 L 18 6.6875 L 18.65625 7.34375 C 19.011719 7.699219 19.496094 7.90625 20 7.90625 C 20.503906 7.90625 20.988281 7.699219 21.34375 7.34375 L 22 6.6875 L 22.65625 7.34375 C 23.027344 7.714844 23.515625 7.90625 24 7.90625 C 24.363281 7.90625 24.679688 7.808594 25 7.59375 L 25 21 L 19 21 L 19 22 L 20 22 L 20 23 L 19 23 L 19 24 L 20 24 L 20 26 L 7 26 L 7 7.625 C 7.308594 7.8125 7.65625 7.90625 8 7.90625 C 8.488281 7.90625 8.976563 7.710938 9.34375 7.34375 Z M 8 9 L 8 11 L 24 11 L 24 9 Z M 8 13 L 8 22 L 17 22 L 17 13 Z M 19 13 L 19 14 L 24 14 L 24 13 Z M 11 15 L 11 16 L 12 15 L 15 15 L 16 16 L 13 16 L 13 18 L 14 17 L 16 17 L 16 19 L 15 20 L 11 20 L 10 19 L 10 16 Z M 13 18 L 12 19 L 15 19 L 15 18 Z M 12 19 L 12 16 L 11 16 L 11 19 Z M 19 15 L 19 16 L 24 16 L 24 15 Z M 19 17 L 19 18 L 24 18 L 24 17 Z M 19 19 L 19 20 L 24 20 L 24 19 Z M 8 23 L 8 24 L 17 24 L 17 23 Z "/>
</g>
</svg>
