<?xml version="1.0" encoding="UTF-8"?>
<svg xmlns="http://www.w3.org/2000/svg" xmlns:xlink="http://www.w3.org/1999/xlink" viewBox="0 0 32 32" version="1.1" width="96px" height="96px">
<g id="surface1">
<path style=" " d="M 6 6 C 3.800781 6 2 7.800781 2 10 C 2 12.199219 3.800781 14 6 14 C 6.957031 14 7.808594 13.628906 8.5 13.0625 L 13.71875 16.03125 L 8.5625 18.96875 C 7.863281 18.375 6.980469 18 6 18 C 3.800781 18 2 19.800781 2 22 C 2 24.199219 3.800781 26 6 26 C 8.199219 26 10 24.199219 10 22 C 10 21.507813 9.882813 21.03125 9.71875 20.59375 L 30 9 L 26 9 L 15.78125 14.84375 L 9.71875 11.40625 C 9.882813 10.96875 10 10.492188 10 10 C 10 7.800781 8.199219 6 6 6 Z M 6 8 C 7.117188 8 8 8.882813 8 10 C 8 11.117188 7.117188 12 6 12 C 4.882813 12 4 11.117188 4 10 C 4 9.859375 4.003906 9.726563 4.03125 9.59375 C 4.214844 8.675781 5.023438 8 6 8 Z M 19.09375 16.8125 L 17.09375 17.90625 L 26 23 L 30 23 Z M 6 20 C 7.117188 20 8 20.882813 8 22 C 8 23.117188 7.117188 24 6 24 C 4.882813 24 4 23.117188 4 22 C 4 21.859375 4.003906 21.726563 4.03125 21.59375 C 4.214844 20.675781 5.023438 20 6 20 Z "/>
</g>
</svg>
