<?xml version="1.0" encoding="UTF-8"?>
<svg xmlns="http://www.w3.org/2000/svg" xmlns:xlink="http://www.w3.org/1999/xlink" viewBox="0 0 32 32" version="1.1" width="64px" height="64px">
<g id="surface1">
<path style=" " d="M 16 5 C 12.144531 5 9 8.144531 9 12 C 9 14.410156 10.230469 16.550781 12.09375 17.8125 C 8.527344 19.34375 6 22.882813 6 27 L 8 27 C 8 24.769531 8.910156 22.761719 10.375 21.3125 L 12.21875 23.625 L 12.78125 24.34375 L 13.5625 23.84375 L 16 22.21875 L 18.4375 23.84375 L 19.28125 24.375 L 19.84375 23.5625 L 21.4375 21.15625 C 23.003906 22.613281 24 24.683594 24 27 L 26 27 C 26 22.882813 23.472656 19.34375 19.90625 17.8125 C 21.769531 16.550781 23 14.410156 23 12 C 23 8.144531 19.855469 5 16 5 Z M 16 7 C 18.773438 7 21 9.226563 21 12 C 21 14.773438 18.773438 17 16 17 C 13.226563 17 11 14.773438 11 12 C 11 9.226563 13.226563 7 16 7 Z M 16 19 C 17.382813 19 18.679688 19.355469 19.8125 19.96875 L 18.71875 21.59375 L 16.5625 20.15625 L 16 19.8125 L 15.4375 20.15625 L 13.21875 21.65625 L 12 20.09375 C 13.179688 19.410156 14.535156 19 16 19 Z "/>
</g>
</svg>
