<?xml version="1.0" encoding="UTF-8"?>
<svg xmlns="http://www.w3.org/2000/svg" xmlns:xlink="http://www.w3.org/1999/xlink" viewBox="0 0 32 32" version="1.1" width="96px" height="96px">
<g id="surface1">
<path style=" " d="M 6 12 C 3.800781 12 2 13.800781 2 16 C 2 18.199219 3.800781 20 6 20 C 8.199219 20 10 18.199219 10 16 C 10 13.800781 8.199219 12 6 12 Z M 16 12 C 13.800781 12 12 13.800781 12 16 C 12 18.199219 13.800781 20 16 20 C 18.199219 20 20 18.199219 20 16 C 20 13.800781 18.199219 12 16 12 Z M 26 12 C 23.800781 12 22 13.800781 22 16 C 22 18.199219 23.800781 20 26 20 C 28.199219 20 30 18.199219 30 16 C 30 13.800781 28.199219 12 26 12 Z M 6 14 C 7.117188 14 8 14.882813 8 16 C 8 17.117188 7.117188 18 6 18 C 4.882813 18 4 17.117188 4 16 C 4 14.882813 4.882813 14 6 14 Z M 16 14 C 17.117188 14 18 14.882813 18 16 C 18 17.117188 17.117188 18 16 18 C 14.882813 18 14 17.117188 14 16 C 14 14.882813 14.882813 14 16 14 Z M 26 14 C 27.117188 14 28 14.882813 28 16 C 28 17.117188 27.117188 18 26 18 C 24.882813 18 24 17.117188 24 16 C 24 14.882813 24.882813 14 26 14 Z "/>
</g>
</svg>
