<?xml version="1.0" encoding="UTF-8"?>
<svg xmlns="http://www.w3.org/2000/svg" xmlns:xlink="http://www.w3.org/1999/xlink" viewBox="0 0 50 50" version="1.1" width="50px" height="50px">
<g id="surface1">
<path style=" " d="M 7 2 L 7 48 L 43 48 L 43 2 Z M 15 28 L 23 28 L 23 30 L 15 30 Z M 28 36 L 15 36 L 15 34 L 28 34 Z M 28 24 L 15 24 L 15 22 L 28 22 Z M 35 36 L 32 36 L 32 34 L 35 34 Z M 35 30 L 32 30 L 32 28 L 35 28 Z M 35 24 L 32 24 L 32 22 L 35 22 Z M 35 14 L 15 14 L 15 12 L 35 12 Z "/>
</g>
</svg>
