<svg xmlns="http://www.w3.org/2000/svg" width="14" height="11" viewBox="0 0 14 11"><g transform="translate(-2.5 -5)"><rect class="a" width="3.111" height="1" transform="translate(2.5 11)"/><rect class="a" width="4.148" height="1" transform="translate(2.5 9)"/><rect class="a" width="2.074" height="1" transform="translate(2.5 13)"/><rect class="a" width="1.037" height="1" transform="translate(2.5 15)"/><rect class="a" width="6.222" height="1" transform="translate(2.5 5)"/><rect class="a" width="5.185" height="1" transform="translate(2.5 7)"/><path class="a" d="M18.611,11.25V6.9l1.348,1.3.726-.7-2.23-2.15L18.093,5l-.415.35L15.5,7.5l.726.7,1.348-1.3v4.35Z" transform="translate(-6.259 0)"/><path class="a" d="M23.959,17.55l-1.348,1.3V14.5H21.574v4.35l-1.348-1.3-.726.7,2.23,2.15.363.35.415-.35,2.178-2.15Z" transform="translate(-8.185 -4.75)"/></g></svg>