<?xml version="1.0" encoding="UTF-8" standalone="yes"?>
<svg xmlns="http://www.w3.org/2000/svg" viewBox="0 0 32 32" width="32" height="32" fill="#000000">
  <path d="M 17 5 C 16.476563 5 15.941406 5.183594 15.5625 5.5625 C 15.183594 5.941406 15 6.476563 15 7 L 15 8 C 15 8.269531 15.179688 8.496094 15.28125 8.75 C 15.097656 8.910156 14.925781 9.050781 14.75 9.25 C 14.375 9.671875 14.039063 10.203125 13.75 10.8125 C 12.957031 10.285156 12.015625 10 11 10 C 8.25 10 6 12.25 6 15 L 4 15 L 4 18.1875 L 4.0625 18.34375 L 7.0625 26.34375 L 7.3125 27 L 24.6875 27 L 24.9375 26.34375 L 27.9375 18.34375 L 28 18.1875 L 28 15 L 25 15 L 25 13.90625 C 25 12.605469 24.414063 11.289063 23.71875 10.1875 C 23.390625 9.671875 23.039063 9.253906 22.65625 8.875 C 22.796875 8.585938 23 8.316406 23 8 L 23 7 C 23 6.476563 22.816406 5.941406 22.4375 5.5625 C 22.058594 5.183594 21.523438 5 21 5 Z M 17 7 L 21 7 L 21 8 L 17 8 Z M 17 10 L 20.875 10 C 20.835938 10.007813 21.003906 10.046875 21.1875 10.21875 C 21.429688 10.449219 21.753906 10.84375 22.03125 11.28125 C 22.585938 12.15625 23 13.308594 23 13.90625 L 23 15 L 16 15 C 16 14.058594 15.738281 13.191406 15.28125 12.4375 C 15.503906 11.648438 15.84375 11.011719 16.21875 10.59375 C 16.5625 10.210938 16.941406 10.042969 17 10 Z M 11 12 C 12.667969 12 14 13.332031 14 15 L 8 15 C 8 13.332031 9.332031 12 11 12 Z M 6 17 L 26 17 L 26 17.8125 L 23.3125 25 L 8.6875 25 L 6 17.8125 Z M 16 18 C 15.449219 18 15 18.449219 15 19 C 15 19.550781 15.449219 20 16 20 C 16.550781 20 17 19.550781 17 19 C 17 18.449219 16.550781 18 16 18 Z"/>
</svg>
