<?xml version="1.0" encoding="UTF-8"?>
<svg xmlns="http://www.w3.org/2000/svg" xmlns:xlink="http://www.w3.org/1999/xlink" viewBox="0 0 32 32" version="1.1" width="64px" height="64px">
<g id="surface1">
<path style=" " d="M 3 3 L 3 25 L 14.96875 25 L 12.96875 23 L 5 23 L 5 21 L 7 21 L 7 19 L 5 19 L 5 9 L 7 9 L 7 7 L 5 7 L 5 5 L 27 5 L 27 7 L 25 7 L 25 9 L 27 9 L 27 19 L 25 19 L 25 21 L 27 21 L 27 23 L 26.9375 23 C 27.40625 23.609375 27.757813 24.289063 27.90625 25 L 29 25 L 29 3 Z M 9 7 L 9 9 L 11 9 L 11 7 Z M 13 7 L 13 9 L 15 9 L 15 7 Z M 17 7 L 17 9 L 19 9 L 19 7 Z M 21 7 L 21 9 L 23 9 L 23 7 Z M 9.71875 12.71875 L 10.03125 14.1875 L 10.71875 17.6875 L 10.78125 18 L 11 18.21875 L 20.90625 28.09375 C 22.058594 29.246094 23.941406 29.246094 25.09375 28.09375 C 26.246094 26.941406 26.246094 25.058594 25.09375 23.90625 L 15.21875 14 L 15 13.78125 L 14.6875 13.71875 L 11.1875 13.03125 Z M 12.28125 15.28125 L 14 15.625 L 23.6875 25.3125 C 24.132813 25.757813 24.132813 26.242188 23.6875 26.6875 C 23.242188 27.132813 22.757813 27.132813 22.3125 26.6875 L 12.625 17 Z M 9 19 L 9 21 L 11 21 L 11 19 Z "/>
</g>
</svg>
