<?xml version="1.0" encoding="UTF-8"?>
<svg xmlns="http://www.w3.org/2000/svg" xmlns:xlink="http://www.w3.org/1999/xlink" viewBox="0 0 32 32" version="1.1" width="96px" height="96px">
<g id="surface1">
<path style=" " d="M 5 3 L 5 9 L 4 9 L 4 11 L 8 11 L 8 9 L 7 9 L 7 5 L 26 5 L 26 27 L 7 27 L 7 24 L 5 24 L 5 29 L 28 29 L 28 3 Z M 11 9 L 11 17 L 22 17 L 22 9 Z M 13 11 L 20 11 L 20 15 L 13 15 Z M 5 12 L 5 15 L 4 15 L 4 17 L 8 17 L 8 15 L 7 15 L 7 12 Z M 5 18 L 5 21 L 4 21 L 4 23 L 8 23 L 8 21 L 7 21 L 7 18 Z "/>
</g>
</svg>
