<?xml version="1.0"?>
<svg xmlns="http://www.w3.org/2000/svg" xmlns:xlink="http://www.w3.org/1999/xlink" version="1.1" viewBox="0 0 224 224" width="64px" height="64px"><g fill="none" fill-rule="nonzero" stroke="none" stroke-width="1" stroke-linecap="butt" stroke-linejoin="miter" stroke-miterlimit="10" stroke-dasharray="" stroke-dashoffset="0" font-family="none" font-weight="none" font-size="none" text-anchor="none" style="mix-blend-mode: normal"><path d="M0,224v-224h224v224z" fill="none"/><g fill="#ff0000"><path d="M42,21v182h112v-14h-98v-154h112v56h14v-70zM70,49v7v35h84v-42zM84,63h56v14h-56zM77,105v14h14v-14zM105,105v14h14v-14zM133,105v14h14v-14zM182,105v14c-11.9,2.1 -21,11.9 -21,24.5c0,14 10.5,24.5 24.5,24.5h7c5.6,0 10.5,4.9 10.5,10.5c0,5.6 -4.9,10.5 -10.5,10.5h-24.5v14h14v14h14v-14c11.9,-2.1 21,-11.9 21,-24.5c0,-14 -10.5,-24.5 -24.5,-24.5h-7c-5.6,0 -10.5,-4.9 -10.5,-10.5c0,-5.6 4.9,-10.5 10.5,-10.5h24.5v-14h-14v-14zM77,133v14h14v-14zM105,133v14h14v-14zM133,133v14h14v-14zM77,161v14h14v-14zM105,161v14h14v-14zM133,161v14h14v-14z"/></g></g></svg>
