<?xml version="1.0" encoding="utf-8"?>
<!-- Generator: Adobe Illustrator 23.0.4, SVG Export Plug-In . SVG Version: 6.00 Build 0)  -->
<svg version="1.1" id="Layer_1" xmlns="http://www.w3.org/2000/svg" xmlns:xlink="http://www.w3.org/1999/xlink" x="0px" y="0px"
	 viewBox="0 0 52 52" style="enable-background:new 0 0 52 52;" xml:space="preserve">
<g>
	<path fill="#000" id="Path_940"
		   d="M1.5,2.3v38.6h22.8v-3.5H5V12.9h35v10.5h3.5v-21L1.5,2.3L1.5,2.3z M5,5.8h35v3.5H5V5.8z M10.2,18.1v3.5h3.5
		v-3.5H10.2z M17.2,18.1v3.5h17.5v-3.5H17.2z M10.2,25.1v3.5h3.5v-3.5H10.2z M17.2,25.1v3.5h10.5v-3.5H17.2z M31.3,25.1v15.8h-3.5
		v3.5c0,2.9,2.4,5.2,5.3,5.2h12.3c2.9,0,5.2-2.4,5.3-5.3V25.1H31.3z M34.8,28.6H47v15.8c0,1-0.8,1.8-1.8,1.8s-1.8-0.8-1.8-1.8v-3.5
		h-8.8V28.6H34.8z M31.3,44.4H40c0,0.6,0.1,1.2,0.3,1.8H33C32.1,46.2,31.3,45.4,31.3,44.4C31.3,44.5,31.3,44.4,31.3,44.4L31.3,44.4z
		"/>
</g>
</svg>
