<?xml version="1.0" encoding="UTF-8"?>
<svg xmlns="http://www.w3.org/2000/svg" xmlns:xlink="http://www.w3.org/1999/xlink" viewBox="0 0 32 32" version="1.1" width="64px" height="64px">
<g id="surface1">
<path style=" " d="M 16.03125 4 C 14.921875 4 13.8125 4.15625 12.71875 4.46875 L 11.9375 4.6875 L 12 5.5 C 12.042969 6.238281 11.679688 6.949219 11 7.34375 C 10.320313 7.738281 9.523438 7.6875 8.90625 7.28125 L 8.25 6.84375 L 7.65625 7.375 C 6.023438 8.957031 4.910156 10.957031 4.375 13.09375 L 4.1875 13.875 L 4.875 14.21875 C 5.535156 14.550781 6 15.210938 6 16 C 6 16.789063 5.535156 17.449219 4.875 17.78125 L 4.15625 18.125 L 4.375 18.90625 C 4.636719 19.957031 5.019531 21.007813 5.59375 22 C 6.167969 22.992188 6.878906 23.871094 7.65625 24.625 L 8.25 25.1875 L 8.90625 24.75 C 9.523438 24.34375 10.316406 24.261719 11 24.65625 C 11.683594 25.050781 12.042969 25.761719 12 26.5 L 11.9375 27.3125 L 12.71875 27.53125 C 14.109375 27.925781 15.558594 28.039063 17 27.90625 L 17 32 L 32 32 L 32 18 L 27.59375 18 L 27.125 17.78125 C 26.464844 17.449219 26 16.789063 26 16 C 26 15.210938 26.464844 14.550781 27.125 14.21875 L 27.84375 13.875 L 27.625 13.09375 C 27.363281 12.042969 26.980469 10.992188 26.40625 10 C 25.832031 9.007813 25.121094 8.128906 24.34375 7.375 L 23.78125 6.8125 L 23.09375 7.28125 C 22.476563 7.6875 21.683594 7.738281 21 7.34375 L 20.96875 7.3125 C 20.3125 6.914063 19.957031 6.222656 20 5.5 L 20.0625 4.6875 L 19.28125 4.46875 C 18.222656 4.167969 17.140625 4 16.03125 4 Z M 16 6.09375 C 16.742188 6.09375 17.496094 6.179688 18.21875 6.34375 C 18.429688 7.4375 18.960938 8.460938 20 9.0625 C 21.050781 9.667969 22.21875 9.597656 23.28125 9.21875 C 23.785156 9.757813 24.273438 10.335938 24.65625 11 C 25.042969 11.671875 25.285156 12.378906 25.5 13.09375 C 24.648438 13.824219 24 14.792969 24 16 C 24 16.730469 24.214844 17.410156 24.5625 18 L 21.65625 18 C 21.882813 17.378906 22 16.703125 22 16 C 22 12.699219 19.300781 10 16 10 C 12.699219 10 10 12.699219 10 16 C 10 19.300781 12.699219 22 16 22 C 16.34375 22 16.671875 21.960938 17 21.90625 L 17 25.90625 C 15.910156 26.007813 14.832031 25.921875 13.78125 25.6875 C 13.574219 24.582031 13.050781 23.542969 12 22.9375 C 10.949219 22.332031 9.78125 22.402344 8.71875 22.78125 C 8.210938 22.238281 7.726563 21.664063 7.34375 21 C 6.957031 20.328125 6.714844 19.621094 6.5 18.90625 C 7.351563 18.175781 8 17.207031 8 16 C 8 14.792969 7.351563 13.824219 6.5 13.09375 C 6.933594 11.667969 7.710938 10.371094 8.75 9.25 C 9.800781 9.609375 10.960938 9.660156 12 9.0625 C 13.039063 8.464844 13.570313 7.4375 13.78125 6.34375 C 14.523438 6.175781 15.257813 6.09375 16 6.09375 Z M 16 12 C 18.21875 12 20 13.78125 20 16 C 20 16.730469 19.785156 17.40625 19.4375 18 L 17 18 L 17 19.84375 C 16.675781 19.933594 16.351563 20 16 20 C 13.78125 20 12 18.21875 12 16 C 12 13.78125 13.78125 12 16 12 Z M 19 20 L 30 20 L 30 21 L 19 21 Z M 19 23 L 30 23 L 30 30 L 19 30 Z M 26.28125 23.78125 L 24 26.0625 L 22.71875 24.78125 L 21.28125 26.21875 L 23.28125 28.21875 L 24 28.90625 L 24.71875 28.21875 L 27.71875 25.21875 Z "/>
</g>
</svg>
