<svg fill="#000000" xmlns="http://www.w3.org/2000/svg" viewBox="0 0 32 32" width="32px" height="32px"><path d="M 2 5 L 2 6 L 2 23 L 6 23 L 6 27 L 30 27 L 30 9 L 26 9 L 26 5 L 2 5 z M 4 7 L 24 7 L 24 18.189453 L 19.150391 13.339844 L 15.365234 17.125 L 10.394531 12.109375 L 4 18.503906 L 4 7 z M 20.5 9 C 19.672 9 19 9.672 19 10.5 C 19 11.328 19.672 12 20.5 12 C 21.328 12 22 11.328 22 10.5 C 22 9.672 21.328 9 20.5 9 z M 26 11 L 28 11 L 28 25 L 8 25 L 8 23 L 26 23 L 26 11 z M 10.388672 14.943359 L 16.388672 21 L 4.3320312 21 L 10.388672 14.943359 z M 19.150391 16.169922 L 23.982422 21 L 19.205078 21 L 16.773438 18.546875 L 19.150391 16.169922 z"/></svg>