<?xml version="1.0" encoding="UTF-8"?>
<svg xmlns="http://www.w3.org/2000/svg" xmlns:xlink="http://www.w3.org/1999/xlink" viewBox="0 0 32 32" version="1.1" width="96px" height="96px">
<g id="surface1">
<path style=" " d="M 5 5 L 5 27 L 27 27 L 27 5 Z M 7 7 L 10 7 L 10 10 L 7 10 Z M 12 7 L 15 7 L 15 10 L 12 10 Z M 17 7 L 20 7 L 20 10 L 17 10 Z M 22 7 L 25 7 L 25 10 L 22 10 Z M 7 12 L 10 12 L 10 15 L 7 15 Z M 12 12 L 15 12 L 15 15 L 12 15 Z M 17 12 L 20 12 L 20 15 L 17 15 Z M 22 12 L 25 12 L 25 15 L 22 15 Z M 7 17 L 10 17 L 10 20 L 7 20 Z M 12 17 L 15 17 L 15 20 L 12 20 Z M 17 17 L 20 17 L 20 20 L 17 20 Z M 22 17 L 25 17 L 25 20 L 22 20 Z M 7 22 L 10 22 L 10 25 L 7 25 Z M 12 22 L 15 22 L 15 25 L 12 25 Z M 17 22 L 20 22 L 20 25 L 17 25 Z M 22 22 L 25 22 L 25 25 L 22 25 Z "/>
</g>
</svg>
