<?xml version="1.0" encoding="UTF-8"?>
<svg xmlns="http://www.w3.org/2000/svg" xmlns:xlink="http://www.w3.org/1999/xlink" viewBox="0 0 32 32" version="1.1" width="50px" height="50px">
<g id="surface1">
<path style=" " d="M 16 4 C 9.382813 4 4 9.382813 4 16 C 4 22.617188 9.382813 28 16 28 C 22.617188 28 28 22.617188 28 16 C 28 9.382813 22.617188 4 16 4 Z M 15 6.21875 L 15 10 L 12.03125 10 C 12.210938 9.527344 12.40625 9.085938 12.625 8.6875 C 13.328125 7.398438 14.160156 6.582031 15 6.21875 Z M 17 6.21875 C 17.839844 6.582031 18.671875 7.398438 19.375 8.6875 C 19.59375 9.085938 19.789063 9.527344 19.96875 10 L 17 10 Z M 11.1875 7.25 C 11.082031 7.417969 10.972656 7.574219 10.875 7.75 C 10.5 8.4375 10.175781 9.1875 9.90625 10 L 8.03125 10 C 8.882813 8.875 9.941406 7.933594 11.1875 7.25 Z M 20.8125 7.25 C 22.058594 7.933594 23.117188 8.875 23.96875 10 L 22.09375 10 C 21.824219 9.1875 21.5 8.4375 21.125 7.75 C 21.027344 7.574219 20.917969 7.417969 20.8125 7.25 Z M 6.8125 12 L 9.40625 12 C 9.214844 12.957031 9.078125 13.953125 9.03125 15 L 6.0625 15 C 6.167969 13.945313 6.40625 12.929688 6.8125 12 Z M 11.4375 12 L 15 12 L 15 15 L 11.03125 15 C 11.085938 13.945313 11.226563 12.933594 11.4375 12 Z M 17 12 L 20.5625 12 C 20.773438 12.933594 20.914063 13.945313 20.96875 15 L 17 15 Z M 22.59375 12 L 25.1875 12 C 25.59375 12.929688 25.832031 13.945313 25.9375 15 L 22.96875 15 C 22.921875 13.953125 22.785156 12.957031 22.59375 12 Z M 6.0625 17 L 9.03125 17 C 9.078125 18.046875 9.214844 19.042969 9.40625 20 L 6.8125 20 C 6.40625 19.070313 6.167969 18.054688 6.0625 17 Z M 11.03125 17 L 15 17 L 15 20 L 11.4375 20 C 11.226563 19.066406 11.085938 18.054688 11.03125 17 Z M 17 17 L 20.96875 17 C 20.914063 18.054688 20.773438 19.066406 20.5625 20 L 17 20 Z M 22.96875 17 L 25.9375 17 C 25.832031 18.054688 25.59375 19.070313 25.1875 20 L 22.59375 20 C 22.785156 19.042969 22.921875 18.046875 22.96875 17 Z M 8.03125 22 L 9.90625 22 C 10.175781 22.8125 10.5 23.5625 10.875 24.25 C 10.972656 24.425781 11.082031 24.582031 11.1875 24.75 C 9.941406 24.066406 8.882813 23.125 8.03125 22 Z M 12.03125 22 L 15 22 L 15 25.78125 C 14.160156 25.417969 13.328125 24.601563 12.625 23.3125 C 12.40625 22.914063 12.210938 22.472656 12.03125 22 Z M 17 22 L 19.96875 22 C 19.789063 22.472656 19.59375 22.914063 19.375 23.3125 C 18.671875 24.601563 17.839844 25.417969 17 25.78125 Z M 22.09375 22 L 23.96875 22 C 23.117188 23.125 22.058594 24.066406 20.8125 24.75 C 20.917969 24.582031 21.027344 24.425781 21.125 24.25 C 21.5 23.5625 21.824219 22.8125 22.09375 22 Z "/>
</g>
</svg>
