<?xml version="1.0" encoding="utf-8"?>
<!-- Generator: Adobe Illustrator 23.0.5, SVG Export Plug-In . SVG Version: 6.00 Build 0)  -->
<svg version="1.1" id="Layer_1" xmlns="http://www.w3.org/2000/svg" xmlns:xlink="http://www.w3.org/1999/xlink" x="0px" y="0px"
	 viewBox="0 0 32 32" style="enable-background:new 0 0 32 32;" xml:space="preserve">
<g>
	<path d="M28.8,9l-3.2-0.9c-0.5-0.9-1.3-1.5-2.3-1.7l-4-0.5c-0.7-0.9-1.7-1.5-2.9-1.5H4.7c-2,0-3.6,1.6-3.6,3.6v15.9
		c0,2,1.6,3.6,3.6,3.6h11.6c0.9,0,1.7-0.3,2.3-0.8c0,0,0,0,0,0l2,0.3c0.4,0.1,0.8,0,1.1-0.1l2.1,0.6c1.5,0.4,3.1-0.6,3.6-2.2
		l3.4-12.7C31.2,11.1,30.3,9.4,28.8,9z M17.9,23.9c0,0.1,0,0.2,0,0.3c0,0.2-0.1,0.4-0.2,0.6c-0.3,0.4-0.7,0.7-1.2,0.7l0.1,0l-0.2,0
		c0,0-0.1,0-0.1,0H10H4.7c-0.9,0-1.6-0.7-1.6-1.6V8.1c0-0.9,0.7-1.6,1.6-1.6h4.7h6.8c0.3,0,0.5,0.1,0.8,0.2c0.2,0.1,0.4,0.3,0.5,0.4
		c0.1,0.1,0.2,0.3,0.3,0.5c0.1,0.2,0.1,0.3,0.1,0.5c0,0,0,0,0,0V23.9z M21.7,26.9L21.7,26.9C21.7,26.9,21.7,26.9,21.7,26.9
		C21.7,26.9,21.7,26.9,21.7,26.9z M21.4,25.1l-1.5-0.4c0.1-0.3,0.1-0.5,0.1-0.8V8.3V8.1c0-0.1,0-0.2,0-0.2L23,8.2
		c0.6,0.1,1.1,0.6,1.2,1.2c0,0.1,0,0.3,0,0.4l-1.9,14.1C22.2,24.5,21.8,24.9,21.4,25.1z M29.2,12.2l-3.4,12.7
		c-0.2,0.7-0.9,1.2-1.6,1l-0.9-0.2c0.3-0.4,0.5-0.9,0.6-1.5l1.9-14.1c0-0.1,0-0.1,0-0.2l2.4,0.7C29,10.8,29.4,11.5,29.2,12.2z"/>
	<path d="M14.5,9.9c0-0.6-0.4-1-1-1h-3H8.8H7.5c-0.6,0-1,0.4-1,1s0.4,1,1,1h1h1.7h3.3C14.1,10.9,14.5,10.4,14.5,9.9z"/>
	<polygon points="10.5,20.5 12.3,20.5 12.5,20.5 12.5,19.6 12.5,18.5 11.5,17.5 10.5,18.5 	"/>
	<polygon points="15.5,17.5 14.5,18.5 14.5,20.5 15.9,20.5 16.5,20.5 16.5,18.5 15.7,17.7 	"/>
	<polygon points="13.7,21.5 12,21.5 10.5,21.5 10.5,23.5 12.4,23.5 15.3,23.5 16,23.5 16.5,23.5 16.5,21.5 15.9,21.5 	"/>
</g>
</svg>
