<?xml version="1.0" encoding="UTF-8"?>
<svg xmlns="http://www.w3.org/2000/svg" xmlns:xlink="http://www.w3.org/1999/xlink" viewBox="0 0 32 32" version="1.1" width="64px" height="64px">
<g id="surface1">
<path style=" " d="M 4 7 L 4 8 C 4 9.117188 3.117188 10 2 10 L 1 10 L 1 22 L 2 22 C 3.117188 22 4 22.882813 4 24 L 4 25 L 28 25 L 28 24 C 28 22.882813 28.882813 22 30 22 L 31 22 L 31 10 L 30 10 C 28.882813 10 28 9.117188 28 8 L 28 7 Z M 5.8125 9 L 26.1875 9 C 26.554688 10.386719 27.613281 11.445313 29 11.8125 L 29 20.1875 C 27.613281 20.554688 26.554688 21.613281 26.1875 23 L 5.8125 23 C 5.445313 21.613281 4.386719 20.554688 3 20.1875 L 3 11.8125 C 4.386719 11.445313 5.445313 10.386719 5.8125 9 Z M 8 13 L 8 15 L 24 15 L 24 13 Z M 8 17 L 8 19 L 24 19 L 24 17 Z "/>
</g>
</svg>
