<?xml version="1.0" encoding="UTF-8"?>
<svg xmlns="http://www.w3.org/2000/svg" xmlns:xlink="http://www.w3.org/1999/xlink" viewBox="0 0 32 32" version="1.1" width="96px" height="96px">
<g id="surface1">
<path style=" " d="M 5 5 L 5 27 L 27 27 L 27 5 Z M 7 7 L 25 7 L 25 25 L 7 25 Z M 16 8 C 14.894531 8 14 8.894531 14 10 C 14 10.738281 14.402344 11.371094 15 11.71875 L 15 14.28125 C 14.882813 14.351563 14.789063 14.441406 14.6875 14.53125 L 11.96875 13.625 L 11.96875 13.59375 C 11.78125 12.683594 10.964844 12 10 12 C 8.894531 12 8 12.894531 8 14 C 8 15.105469 8.894531 16 10 16 C 10.511719 16 10.957031 15.785156 11.3125 15.46875 L 14.03125 16.375 C 14.03125 16.386719 14.027344 16.394531 14.03125 16.40625 C 14.054688 16.511719 14.085938 16.617188 14.125 16.71875 L 12.3125 19.03125 C 12.210938 19.015625 12.105469 19 12 19 C 10.894531 19 10 19.894531 10 21 C 10 22.105469 10.894531 23 12 23 C 13.105469 23 14 22.105469 14 21 C 14 20.746094 13.960938 20.503906 13.875 20.28125 L 15.71875 17.96875 C 15.8125 17.980469 15.902344 18 16 18 C 16.097656 18 16.1875 17.980469 16.28125 17.96875 L 18.125 20.28125 C 18.039063 20.503906 18 20.746094 18 21 C 18 22.105469 18.894531 23 20 23 C 21.105469 23 22 22.105469 22 21 C 22 19.894531 21.105469 19 20 19 C 19.894531 19 19.789063 19.015625 19.6875 19.03125 L 17.875 16.71875 C 17.914063 16.617188 17.945313 16.511719 17.96875 16.40625 L 20.6875 15.5 C 21.039063 15.808594 21.496094 16 22 16 C 23.105469 16 24 15.105469 24 14 C 24 12.894531 23.105469 12 22 12 C 21.023438 12 20.207031 12.699219 20.03125 13.625 L 17.3125 14.53125 C 17.210938 14.441406 17.117188 14.351563 17 14.28125 L 17 11.71875 C 17.597656 11.371094 18 10.738281 18 10 C 18 8.894531 17.105469 8 16 8 Z "/>
</g>
</svg>
