<?xml version="1.0" encoding="UTF-8"?>
<svg xmlns="http://www.w3.org/2000/svg" xmlns:xlink="http://www.w3.org/1999/xlink" viewBox="0 0 32 32" version="1.1" width="96px" height="96px">
<g id="surface1">
<path style=" " d="M 16 4 C 14.894531 4 14 4.894531 14 6 C 14 6.300781 14.070313 6.585938 14.1875 6.84375 L 9.1875 14 C 9.125 13.996094 9.0625 14 9 14 C 7.894531 14 7 14.894531 7 16 C 7 16.519531 7.207031 16.988281 7.53125 17.34375 L 5.53125 24.0625 C 4.652344 24.273438 4 25.058594 4 26 C 4 27.105469 4.894531 28 6 28 C 7.105469 28 8 27.105469 8 26 C 8 25.480469 7.792969 25.011719 7.46875 24.65625 L 9 19.5 L 10.53125 24.65625 C 10.207031 25.011719 10 25.480469 10 26 C 10 27.105469 10.894531 28 12 28 C 13.105469 28 14 27.105469 14 26 C 14 25.058594 13.347656 24.273438 12.46875 24.0625 L 10.46875 17.34375 C 10.796875 16.988281 11 16.523438 11 16 C 11 15.699219 10.929688 15.414063 10.8125 15.15625 L 15.8125 8 C 15.875 8.003906 15.9375 8 16 8 C 16.0625 8 16.125 8.003906 16.1875 8 L 21.1875 15.15625 C 21.070313 15.414063 21 15.699219 21 16 C 21 16.519531 21.207031 16.988281 21.53125 17.34375 L 19.53125 24.0625 C 18.652344 24.273438 18 25.058594 18 26 C 18 27.105469 18.894531 28 20 28 C 21.105469 28 22 27.105469 22 26 C 22 25.480469 21.792969 25.011719 21.46875 24.65625 L 23 19.5 L 24.53125 24.65625 C 24.207031 25.011719 24 25.480469 24 26 C 24 27.105469 24.894531 28 26 28 C 27.105469 28 28 27.105469 28 26 C 28 25.058594 27.347656 24.273438 26.46875 24.0625 L 24.46875 17.34375 C 24.792969 16.988281 25 16.519531 25 16 C 25 14.894531 24.105469 14 23 14 C 22.9375 14 22.875 13.996094 22.8125 14 L 17.8125 6.84375 C 17.929688 6.585938 18 6.300781 18 6 C 18 4.894531 17.105469 4 16 4 Z "/>
</g>
</svg>
