<?xml version="1.0" encoding="UTF-8"?>
<svg xmlns="http://www.w3.org/2000/svg" xmlns:xlink="http://www.w3.org/1999/xlink" viewBox="0 0 32 32" version="1.1" width="96px" height="96px">
<g id="surface1">
<path style=" " d="M 23 2.625 L 17.625 8 L 13.90625 8 C 13.4375 5.726563 11.40625 4 9 4 C 6.25 4 4 6.25 4 9 C 4 11.40625 5.726563 13.4375 8 13.90625 L 8 18 L 4 18 L 4 28 L 14 28 L 14 18 L 10 18 L 10 13.90625 C 11.949219 13.503906 13.503906 11.949219 13.90625 10 L 17.5 10 L 22 14.5 L 22 18.09375 C 19.726563 18.5625 18 20.59375 18 23 C 18 25.75 20.25 28 23 28 C 25.75 28 28 25.75 28 23 C 28 20.59375 26.273438 18.5625 24 18.09375 L 24 14.5 L 29.4375 9.0625 Z M 23 5.46875 L 26.59375 9.0625 L 23 12.65625 L 19.40625 9.0625 Z M 9 6 C 10.667969 6 12 7.332031 12 9 C 12 10.667969 10.667969 12 9 12 C 7.332031 12 6 10.667969 6 9 C 6 7.332031 7.332031 6 9 6 Z M 6 20 L 12 20 L 12 26 L 6 26 Z M 23 20 C 24.667969 20 26 21.332031 26 23 C 26 24.667969 24.667969 26 23 26 C 21.332031 26 20 24.667969 20 23 C 20 21.332031 21.332031 20 23 20 Z "/>
</g>
</svg>
