<svg xmlns="http://www.w3.org/2000/svg" width="14" height="14" viewBox="0 0 14 14"><g transform="translate(-2.5 -2.5)"><path class="a" d="M12.093,2.5l1.815,2.437V8.515a4.052,4.052,0,0,0-1.037-.57V5.611H3.537V12.87H7.893a4.052,4.052,0,0,0,.57,1.037H2.5V4.937L4.315,2.5Zm-.519,1.037H4.833L4.056,4.574h8.3ZM9.759,6.648a.519.519,0,1,1,0,1.037H6.648a.519.519,0,1,1,0-1.037ZM6.648,9.241l.519.519V10.8H6.13V9.759Zm-2.074,0,.519.519V10.8H4.056V9.759Zm2.593,2.074v1.037H4.056V11.315Z"/><path class="a" d="M14.5,17.352A2.877,2.877,0,0,0,17.352,20.2a2.961,2.961,0,0,0,1.607-.519l2.593,2.593.726-.726-2.593-2.593a2.828,2.828,0,0,0,.519-1.607,2.852,2.852,0,1,0-5.7,0Zm1.037,0a1.815,1.815,0,1,1,1.815,1.815A1.837,1.837,0,0,1,15.537,17.352Z" transform="translate(-5.778 -5.778)"/></g></svg>