<?xml version="1.0" encoding="UTF-8"?>
<svg xmlns="http://www.w3.org/2000/svg" xmlns:xlink="http://www.w3.org/1999/xlink" viewBox="0 0 32 32" version="1.1" width="96px" height="96px">
<g id="surface1">
<path style=" " d="M 16 6 C 10.488281 6 6 10.488281 6 16 C 6 21.511719 10.488281 26 16 26 C 21.511719 26 26 21.511719 26 16 C 26 10.488281 21.511719 6 16 6 Z M 5 7.375 C 3.132813 9.746094 2 12.75 2 16 C 2 19.25 3.132813 22.253906 5 24.625 L 6.5625 23.375 C 4.960938 21.34375 4 18.792969 4 16 C 4 13.207031 4.960938 10.65625 6.5625 8.625 Z M 27 7.375 L 25.4375 8.625 C 27.039063 10.65625 28 13.207031 28 16 C 28 18.792969 27.039063 21.34375 25.4375 23.375 L 27 24.625 C 28.867188 22.253906 30 19.25 30 16 C 30 12.75 28.867188 9.746094 27 7.375 Z M 16 8 C 20.429688 8 24 11.570313 24 16 C 24 20.429688 20.429688 24 16 24 C 11.570313 24 8 20.429688 8 16 C 8 11.570313 11.570313 8 16 8 Z M 15 10 L 15 19 L 17 19 L 17 10 Z M 15 20 L 15 22 L 17 22 L 17 20 Z "/>
</g>
</svg>
