<?xml version="1.0" encoding="UTF-8"?>
<svg xmlns="http://www.w3.org/2000/svg" xmlns:xlink="http://www.w3.org/1999/xlink" width="32pt" height="32pt" viewBox="0 0 32 32" version="1.1">
    <g id="surface18814081">
        <path style=" stroke:none;fill-rule:nonzero;fill-opacity:1;" d="M 27 5 L 27 15.433594 C 26.449219 15.683594 25.933594 16.035156 25.488281 16.484375 L 24.972656 17 L 22 17 L 22 19.972656 L 19.972656 22 L 17 22 L 17 24.972656 L 16.261719 25.707031 L 15.996094 27 L 5 27 L 5 5 Z M 7 10 L 10 10 L 10 7 L 7 7 Z M 12 10 L 15 10 L 15 7 L 12 7 Z M 17 10 L 20 10 L 20 7 L 17 7 Z M 22 10 L 25 10 L 25 7 L 22 7 Z M 7 15 L 10 15 L 10 12 L 7 12 Z M 12 15 L 15 15 L 15 12 L 12 12 Z M 17 15 L 20 15 L 20 12 L 17 12 Z M 22 15 L 25 15 L 25 12 L 22 12 Z M 7 20 L 10 20 L 10 17 L 7 17 Z M 12 20 L 15 20 L 15 17 L 12 17 Z M 17 20 L 20 20 L 20 17 L 17 17 Z M 7 25 L 10 25 L 10 22 L 7 22 Z M 12 25 L 15 25 L 15 22 L 12 22 Z M 12 25 "/>
        <path style=" stroke:none;fill-rule:nonzero;fill-opacity:1;" d="M 17 32 L 18.101562 26.699219 L 26.898438 17.898438 C 27.5 17.300781 28.25 17 29 17 C 29.75 17 30.5 17.300781 31.101562 17.898438 C 31.699219 18.5 32 19.25 32 20 C 32 20.75 31.699219 21.5 31.101562 22.101562 L 22.300781 30.898438 Z M 19.898438 27.699219 L 19.601562 29.398438 L 21.300781 29.101562 L 29.699219 20.699219 C 30.101562 20.300781 30.101562 19.699219 29.699219 19.300781 C 29.300781 18.898438 28.699219 18.898438 28.300781 19.300781 Z M 19.898438 27.699219 "/>
    </g>
</svg>
