<svg xmlns="http://www.w3.org/2000/svg" width="15.091" height="16.047" viewBox="0 0 15.091 16.047"><g transform="translate(-3.4 -4.2)"><path class="a" d="M16.78,8.9h-4.1a.683.683,0,1,0,0,1.366h4.1a.684.684,0,0,0,.683-.683A.645.645,0,0,0,16.78,8.9Z" transform="translate(-2.728 -1.491)"/><path class="a" d="M16.183,17.5l-.683.683v1.366h1.366V18.183Z" transform="translate(-3.838 -4.218)"/><path class="a" d="M20.866,18.183l-.683-.683-.683.683v1.366h1.366Z" transform="translate(-5.106 -4.218)"/><rect class="a" width="4.097" height="1.366" transform="translate(11.662 16.013)"/><path class="a" d="M16.743,4.2H9.231A2.739,2.739,0,0,0,6.5,6.931v4.507H7.866V6.931A1.37,1.37,0,0,1,9.231,5.566h7.511a1.37,1.37,0,0,1,1.366,1.366V17.584a1.37,1.37,0,0,1-1.366,1.366H9.231A1.327,1.327,0,0,1,8.139,18.4h-1.5a2.667,2.667,0,0,0,2.595,1.844h7.511a2.739,2.739,0,0,0,2.731-2.731V6.931A2.739,2.739,0,0,0,16.743,4.2Z" transform="translate(-0.983)"/><path class="a" d="M6.883,21.295h0v-.751c.068,0,.137-.068.2-.068l.615.615.956-.956-.615-.615c0-.068.068-.137.068-.2h.819V17.949H8.112c0-.068-.068-.137-.068-.2l.615-.615L7.7,16.173l-.615.615c-.068,0-.137-.068-.2-.068V15.9H5.517v.751h0c-.068,0-.137.068-.2.068L4.7,16.1l-.956.956.615.615c0,.068-.068.137-.068.2H3.4v1.366h.819c0,.068.068.137.068.2l-.615.615.956.956.615-.615c.068,0,.137.068.2.068v.615h0v.341H6.814v-.137Zm0-2.527a.665.665,0,0,1-.683.546.735.735,0,0,1-.683-.546v-.273a.665.665,0,0,1,.683-.546.735.735,0,0,1,.683.546Z" transform="translate(0 -3.711)"/></g></svg>