<?xml version="1.0" encoding="UTF-8"?>
<svg xmlns="http://www.w3.org/2000/svg" xmlns:xlink="http://www.w3.org/1999/xlink" viewBox="0 0 32 32" version="1.1" width="96px" height="96px">
<g id="surface1">
<path style=" " d="M 6 3 L 6 10 L 8 10 L 8 5 L 24 5 L 24 10 L 26 10 L 26 3 Z M 7 12 L 7 20 L 12 20 L 12 18 L 9 18 L 9 17 L 11 17 L 11 15 L 9 15 L 9 14 L 12 14 L 12 12 Z M 14 12 L 14 20 L 16 20 L 16 18 C 17.644531 18 19 16.644531 19 15 C 19 13.355469 17.644531 12 16 12 Z M 22.5 12 C 21.117188 12 20 13.117188 20 14.5 C 20 15.882813 21.117188 17 22.5 17 C 22.714844 17 23 17.285156 23 17.5 C 23 17.800781 22.882813 18 22.5 18 C 22.132813 18 22.074219 17.921875 22.0625 17.90625 C 22.050781 17.890625 22 17.828125 22 17.59375 L 20 17.59375 C 20 18.160156 20.164063 18.796875 20.625 19.28125 C 21.085938 19.765625 21.769531 20 22.5 20 C 23.917969 20 25 18.800781 25 17.5 C 25 16.117188 23.882813 15 22.5 15 C 22.285156 15 22 14.714844 22 14.5 C 22 14.285156 22.285156 14 22.5 14 C 22.765625 14 22.847656 14.0625 22.90625 14.125 C 22.964844 14.1875 23 14.292969 23 14.40625 L 25 14.40625 C 25 13.816406 24.785156 13.214844 24.34375 12.75 C 23.902344 12.285156 23.234375 12 22.5 12 Z M 16 14 C 16.554688 14 17 14.445313 17 15 C 17 15.554688 16.554688 16 16 16 Z M 6 22 L 6 29 L 26 29 L 26 22 L 24 22 L 24 27 L 8 27 L 8 22 Z "/>
</g>
</svg>
