<?xml version="1.0" encoding="UTF-8"?>
<svg xmlns="http://www.w3.org/2000/svg" xmlns:xlink="http://www.w3.org/1999/xlink" viewBox="0 0 32 32" version="1.1" width="96px" height="96px">
<g id="surface1">
<path style=" " d="M 20 5 L 20 8.5 L 12 14.09375 L 12 12 L 2 12 L 2 20 L 12 20 L 12 17.90625 L 20 23.5 L 20 27 L 30 27 L 30 19 L 20 19 L 20 21.09375 L 12.71875 16 L 20 10.90625 L 20 13 L 30 13 L 30 5 Z M 22 7 L 28 7 L 28 11 L 22 11 Z M 4 14 L 10 14 L 10 18 L 4 18 Z M 22 21 L 28 21 L 28 25 L 22 25 Z "/>
</g>
</svg>
