<?xml version="1.0" encoding="UTF-8"?>
<svg xmlns="http://www.w3.org/2000/svg" xmlns:xlink="http://www.w3.org/1999/xlink" viewBox="0 0 32 32" version="1.1" width="32px" height="32px">
<g id="surface1">
<path style=" " d="M 24 2 L 21 10 L 23 10 L 23.375 9 L 26.625 9 L 27 10 L 29 10 L 26 2 Z M 25 4.65625 L 25.875 7 L 24.125 7 Z M 11.21875 5 L 7.71875 19 L 12.3125 19 L 10.15625 26.71875 L 9.8125 28 L 13.96875 28 L 14.25 27.46875 L 21.25 14.46875 L 22.03125 13 L 16.625 13 L 18.625 6.28125 L 19 5 Z M 12.78125 7 L 16.34375 7 L 14.34375 13.71875 L 13.96875 15 L 18.6875 15 L 12.75 26 L 12.46875 26 L 14.625 18.28125 L 14.96875 17 L 10.28125 17 Z "/>
</g>
</svg>
