<?xml version="1.0" encoding="UTF-8"?>
<svg xmlns="http://www.w3.org/2000/svg" xmlns:xlink="http://www.w3.org/1999/xlink" viewBox="0 0 32 32" version="1.1" fill="#ffffff" width="96px" height="96px">
<g id="surface1" fill="#ffffff">
<path style=" " d="M 15 4 L 15 9 L 17 9 L 17 6.1875 C 22.039063 6.707031 26 10.820313 26 16 C 26 21.535156 21.535156 26 16 26 C 10.464844 26 6 21.535156 6 16 C 6 12.785156 7.496094 9.925781 9.84375 8.09375 L 8.625 6.53125 C 5.808594 8.726563 4 12.15625 4 16 C 4 22.617188 9.382813 28 16 28 C 22.617188 28 28 22.617188 28 16 C 28 9.382813 22.617188 4 16 4 Z M 10.71875 9.28125 L 9.28125 10.71875 L 15.28125 16.71875 C 15.460938 16.898438 15.722656 17 16 17 C 16.550781 17 17 16.550781 17 16 C 17 15.722656 16.898438 15.460938 16.71875 15.28125 Z " fill="#ffffff"/>
</g>
</svg>
