<?xml version="1.0" encoding="utf-8"?>
<!-- Generator: Adobe Illustrator 23.0.1, SVG Export Plug-In . SVG Version: 6.00 Build 0)  -->
<svg version="1.1" id="Layer_1" xmlns="http://www.w3.org/2000/svg" xmlns:xlink="http://www.w3.org/1999/xlink" x="0px" y="0px"
	 viewBox="0 0 32 32" style="enable-background:new 0 0 32 32;" xml:space="preserve">
<g>
	<polygon points="23.1,19.2 20.4,16 18.8,17.3 20.9,19.9 18.8,22.5 20.4,23.8 23.1,20.6 23.7,19.9 	"/>
	<polygon points="14.2,26.4 16.4,26.4 18.5,13.4 16.4,13.4 	"/>
	<polygon points="12.3,16 9.6,19.2 9,19.9 9.6,20.6 12.3,23.8 14,22.5 11.9,19.9 14,17.3 	"/>
	<path d="M28.3,12.2l-6.6-6.6l0,0v0h-16h-2v2v16.8v2h2H9v-2H5.7V7.6h14.5v4v2h2h4.1v10.8h-2.6v2h2.6h2v-2L28.3,12.2L28.3,12.2z
		 M22.2,9l2.7,2.7h-2.7V9z"/>
</g>
</svg>
