<?xml version="1.0" encoding="UTF-8"?>
<svg xmlns="http://www.w3.org/2000/svg" xmlns:xlink="http://www.w3.org/1999/xlink" viewBox="0 0 32 32" version="1.1" width="64px" height="64px">
<g id="surface1">
<path style=" " d="M 3 3 L 3 18 L 11 18 L 11 29 L 29 29 L 29 14 L 21 14 L 21 3 Z M 5 8 L 19 8 L 19 14 L 11 14 L 11 16 L 5 16 Z M 7 10 L 7 14 L 10 14 L 10 13 L 11 13 L 11 10 Z M 13 10 L 13 13 L 17 13 L 17 10 Z M 13 16 L 27 16 L 27 19 L 13 19 Z M 13.875 22 L 17.875 22 L 17.875 26 L 13.875 26 Z M 21.875 22 L 25.875 22 L 25.875 26 L 21.875 26 Z "/>
</g>
</svg>
