<?xml version="1.0" encoding="UTF-8"?>
<svg xmlns="http://www.w3.org/2000/svg" xmlns:xlink="http://www.w3.org/1999/xlink" viewBox="0 0 32 32" version="1.1" width="96px" height="96px">
<g id="surface1">
<path style=" " d="M 6 3 L 6 10 L 8 10 L 8 5 L 24 5 L 24 10 L 26 10 L 26 3 Z M 7 12 L 7 20 L 9 20 L 9 17 L 11 17 L 11 15 L 9 15 L 9 14 L 12 14 L 12 12 Z M 14 12 L 14 20 L 18 20 L 18 18 L 16 18 L 16 12 Z M 20 12 L 20 13.15625 L 20.0625 13.3125 L 22.0625 19.3125 L 23 22.15625 L 23.9375 19.3125 L 25.9375 13.3125 L 26 13.15625 L 26 12 L 24 12 L 24 12.875 L 23 15.875 L 22 12.875 L 22 12 Z M 6 22 L 6 29 L 26 29 L 26 22 L 24 22 L 24 27 L 8 27 L 8 22 Z "/>
</g>
</svg>
