<?xml version="1.0" encoding="UTF-8"?>
<svg xmlns="http://www.w3.org/2000/svg" xmlns:xlink="http://www.w3.org/1999/xlink" viewBox="0 0 32 32" version="1.1" width="96px" height="96px">
<g id="surface1">
<path style=" " d="M 4 4 L 4 28.03125 L 28.03125 28.03125 L 28.03125 4 Z M 6 6 L 26.03125 6 L 26.03125 26.03125 L 6 26.03125 Z M 8.03125 14.03125 L 8.03125 15.03125 L 8 21 L 8 22 L 18.625 22 L 20.34375 23.5625 L 22 25.0625 L 22 22 L 23.96875 22 L 23.96875 21 L 24 15.03125 L 24 14.03125 Z M 10.03125 16.03125 L 22 16.03125 L 21.96875 20 L 20 20 L 20 20.5625 L 19.65625 20.25 L 19.375 20 L 10 20 Z M 11 17 L 11 19 L 13 19 L 13 17 Z M 15 17 L 15 19 L 17 19 L 17 17 Z M 19 17 L 19 19 L 21 19 L 21 17 Z "/>
</g>
</svg>
