<?xml version="1.0"?>
<svg xmlns="http://www.w3.org/2000/svg" xmlns:xlink="http://www.w3.org/1999/xlink" version="1.1" viewBox="0 0 252 252" width="96px" height="96px"><g fill="none" fill-rule="nonzero" stroke="none" stroke-width="1" stroke-linecap="butt" stroke-linejoin="miter" stroke-miterlimit="10" stroke-dasharray="" stroke-dashoffset="0" font-family="none" font-weight="none" font-size="none" text-anchor="none" style="mix-blend-mode: normal"><path d="M0,252v-252h252v252z" fill="none"/><g id="original-icon" fill="#000000" opacity="0" visibility="hidden"><g id="surface1"><path d="M39.375,39.375v173.25h173.25v-173.25zM55.125,55.125h23.625v23.625h-23.625zM94.5,55.125h23.625v23.625h-23.625zM133.875,55.125h23.625v23.625h-23.625zM173.25,55.125h23.625v23.625h-23.625zM55.125,94.5h23.625v23.625h-23.625zM94.5,94.5h23.625v23.625h-23.625zM133.875,94.5h23.625v23.625h-23.625zM173.25,94.5h23.625v23.625h-23.625zM55.125,133.875h23.625v23.625h-23.625zM94.5,133.875h23.625v23.625h-23.625zM133.875,133.875h23.625v23.625h-23.625zM173.25,133.875h23.625v23.625h-23.625zM55.125,173.25h23.625v23.625h-23.625zM94.5,173.25h23.625v23.625h-23.625zM133.875,173.25h23.625v23.625h-23.625zM173.25,173.25h23.625v23.625h-23.625z"/></g></g><g id="subtracted-icon" fill="#000000"><g id="surface1 1"><path d="M212.625,39.375v70.25013c-3.86456,1.94766 -7.40656,4.58344 -10.39806,7.90733l-16.34254,16.34254h-12.63441v12.63441l-26.74059,26.74059h-12.63441v12.63441l-13.53277,13.53277l-0.80279,4.81675l-1.89987,8.39108h-78.26457v-173.25zM55.125,78.75h23.625v-23.625h-23.625zM94.5,78.75h23.625v-23.625h-23.625zM133.875,78.75h23.625v-23.625h-23.625zM173.25,78.75h23.625v-23.625h-23.625zM55.125,118.125h23.625v-23.625h-23.625zM94.5,118.125h23.625v-23.625h-23.625zM133.875,118.125h23.625v-23.625h-23.625zM173.25,118.125h23.625v-23.625h-23.625zM55.125,157.5h23.625v-23.625h-23.625zM94.5,157.5h23.625v-23.625h-23.625zM133.875,157.5h23.625v-23.625h-23.625zM55.125,196.875h23.625v-23.625h-23.625zM94.5,196.875h23.625v-23.625h-23.625z"/></g></g><g fill="#000000"><g id="IOS_copy"><path d="M123.5534,252l8.8307,-42.54794l78.67354,-78.67354c9.6335,-9.6335 24.08374,-9.6335 33.71723,0c9.6335,9.6335 9.6335,24.08374 0,33.71723l-78.67354,78.67354zM146.83434,217.47998l-2.40837,13.64745l13.64745,-2.40837l75.46238,-75.46238c3.21117,-3.21117 3.21117,-8.02791 0,-11.23908c-3.21117,-3.21117 -8.02791,-3.21117 -11.23908,0z"/><path d="M123.5534,252l8.8307,-42.54794l78.67354,-78.67354c9.6335,-9.6335 24.08374,-9.6335 33.71723,0c9.6335,9.6335 9.6335,24.08374 0,33.71723l-78.67354,78.67354zM146.83434,217.47998l-2.40837,13.64745l13.64745,-2.40837l75.46238,-75.46238c3.21117,-3.21117 3.21117,-8.02791 0,-11.23908c-3.21117,-3.21117 -8.02791,-3.21117 -11.23908,0z"/></g></g></g></svg>
