<?xml version="1.0" encoding="utf-8"?>
<!-- Generator: Adobe Illustrator 22.1.0, SVG Export Plug-In . SVG Version: 6.00 Build 0)  -->
<svg version="1.1" id="Layer_1" xmlns="http://www.w3.org/2000/svg" xmlns:xlink="http://www.w3.org/1999/xlink" x="0px" y="0px"
	 viewBox="0 0 512 512" style="enable-background:new 0 0 512 512;" xml:space="preserve">
<g>
	<path d="M231.6,485.4l16.9-84.3l161.8-161.8c9.2-9.2,21.2-14.3,33.7-14.3s24.5,5.1,33.7,14.3c9.2,9.2,14.3,21.2,14.3,33.7
		s-5.1,24.5-14.3,33.7L315.9,468.5L231.6,485.4z M277.9,416.9l-5.5,27.7l27.7-5.5l155-155c3.2-3.2,4.9-7,4.9-11.1s-1.7-7.9-4.9-11.1
		c-3.2-3.2-7-4.9-11.1-4.9s-7.9,1.7-11.1,4.9L277.9,416.9z"/>
</g>
<polygon points="219.3,369 51.3,369 51.3,62 403.3,62 403.3,185 435.3,153 435.3,30 19.3,30 19.3,401 187.3,401 "/>
<rect x="107.8" y="101" width="100" height="100"/>
<rect x="246.8" y="101" width="100" height="100"/>
<polygon points="253.8,335 108,335 108,235 353.5,235 "/>
</svg>
