<?xml version="1.0"?>
<svg xmlns="http://www.w3.org/2000/svg" xmlns:xlink="http://www.w3.org/1999/xlink" version="1.1" viewBox="0 0 224 224" width="64px" height="64px"><g fill="none" fill-rule="nonzero" stroke="none" stroke-width="1" stroke-linecap="butt" stroke-linejoin="miter" stroke-miterlimit="10" stroke-dasharray="" stroke-dashoffset="0" font-family="none" font-weight="none" font-size="none" text-anchor="none" style="mix-blend-mode: normal"><path d="M0,224v-224h224v224z" fill="none"/><g id="original-icon" fill="#000000" opacity="0" visibility="hidden"><path d="M28,28v168h91.61524c9.72387,16.68866 27.77942,28 48.38476,28c30.8,0 56,-25.2 56,-56c0,-20.60534 -11.31134,-38.66089 -28,-48.38476v-63.61524h-23.67968l-14,-28h-42h-11.32032h-30.67968zM42,42h23.67969l14,28h102.32032v43.85938c-4.48511,-1.16726 -9.16269,-1.85937 -14,-1.85937c-30.8,0 -56,25.2 -56,56c0,4.83731 0.69212,9.51489 1.85938,14h-71.85937zM81.32032,42h23.67968h2.67968l7,14h-26.35937zM123.32032,42h26.35937l7,14h-26.35937zM168,126c23.1,0 42,18.9 42,42c0,23.1 -18.9,42 -42,42c-23.1,0 -42,-18.9 -42,-42c0,-23.1 18.9,-42 42,-42zM151.89453,142.10547l-9.78907,9.78907l16.0918,16.10547l-16.0918,16.10547l9.78907,9.78907l16.10547,-16.0918l16.10547,16.0918l9.78907,-9.78907l-16.0918,-16.10547l16.0918,-16.10547l-9.78907,-9.78907l-16.10547,16.0918z"/></g><g id="subtracted-icon" fill="#000000"><path d="M158.32032,28l14,28h23.67968l0,47.82426c-4.44501,-1.94202 -9.13073,-3.43576 -14,-4.42411v-29.40015h-102.32032l-14,-28h-23.67969v140h57.40015c0.98834,4.86927 2.48209,9.55499 4.42411,14h-75.82426v-168zM88.32032,56h26.35937l-7,-14h-26.35937zM130.32032,56h26.35937l-7,-14h-26.35937z"/></g><g fill="#000000"><g id="Layer_1"><path d="M168,224c-30.8,0 -56,-25.2 -56,-56c0,-30.8 25.2,-56 56,-56c30.8,0 56,25.2 56,56c0,30.8 -25.2,56 -56,56zM168,126c-23.1,0 -42,18.9 -42,42c0,23.1 18.9,42 42,42c23.1,0 42,-18.9 42,-42c0,-23.1 -18.9,-42 -42,-42zM196,161h-21v-21h-14v21h-21v14h21v21h14v-21h21z"/></g><g id="Layer_1" opacity="0"><path d="M238,168c0,38.661 -31.339,70 -70,70c-38.661,0 -70,-31.339 -70,-70c0,-38.661 31.339,-70 70,-70c38.661,0 70,31.339 70,70z"/></g></g></g></svg>
