<?xml version="1.0" encoding="UTF-8"?>
<svg xmlns="http://www.w3.org/2000/svg" xmlns:xlink="http://www.w3.org/1999/xlink" viewBox="0 0 32 32" version="1.1" width="32px" height="32px">
<g id="surface1">
<path style=" " d="M 24.78125 5.78125 L 22.125 8.4375 L 21.6875 7.96875 C 20.714844 6.996094 19.4375 6.5 18.15625 6.5 C 16.875 6.5 15.597656 6.996094 14.625 7.96875 L 13.90625 8.65625 L 13 9.5625 L 12.21875 8.78125 L 10.78125 10.21875 L 21.78125 21.21875 L 23.21875 19.78125 L 22.4375 19 L 24.03125 17.375 C 25.976563 15.429688 25.976563 12.257813 24.03125 10.3125 L 23.5625 9.875 L 26.21875 7.21875 Z M 18.15625 8.5 C 18.921875 8.5 19.691406 8.785156 20.28125 9.375 L 22.625 11.71875 C 23.804688 12.898438 23.804688 14.789063 22.625 15.96875 L 21 17.5625 L 14.4375 11 L 16.03125 9.375 C 16.621094 8.785156 17.390625 8.5 18.15625 8.5 Z M 10.21875 10.78125 L 8.78125 12.21875 L 9.5625 13 L 8.65625 13.90625 L 7.96875 14.625 C 6.023438 16.570313 6.023438 19.742188 7.96875 21.6875 L 8.40625 22.15625 L 5.78125 24.78125 L 7.21875 26.21875 L 9.84375 23.59375 L 10.3125 24.03125 C 12.257813 25.976563 15.429688 25.976563 17.375 24.03125 L 19 22.4375 L 19.78125 23.21875 L 21.21875 21.78125 Z M 11 14.4375 L 17.5625 21 L 15.96875 22.625 C 14.789063 23.804688 12.898438 23.804688 11.71875 22.625 L 9.375 20.28125 C 8.195313 19.101563 8.195313 17.210938 9.375 16.03125 Z "/>
</g>
</svg>
