<?xml version="1.0" encoding="UTF-8"?>
<svg xmlns="http://www.w3.org/2000/svg" xmlns:xlink="http://www.w3.org/1999/xlink" viewBox="0 0 32 32" version="1.1" width="96px" height="96px">
<g id="surface1">
<path style=" " d="M 4 5 L 4 27 L 17.0625 27 L 16.375 30.46875 L 16.0625 31.9375 L 17.53125 31.625 L 21.0625 30.9375 L 21.375 30.875 L 31.125 21.125 C 32.285156 19.964844 32.285156 18.035156 31.125 16.875 C 30.542969 16.292969 29.769531 16 29 16 C 28.65625 16 28.328125 16.070313 28 16.1875 L 28 5 Z M 6 7 L 26 7 L 26 9 L 6 9 Z M 6 11 L 26 11 L 26 17.75 L 18.75 25 L 6 25 Z M 9 14 L 9 16 L 11 16 L 11 14 Z M 13 14 L 13 16 L 23 16 L 23 14 Z M 9 18 L 9 20 L 11 20 L 11 18 Z M 13 18 L 13 20 L 19 20 L 19 18 Z M 29 18 C 29.253906 18 29.519531 18.082031 29.71875 18.28125 C 30.117188 18.679688 30.117188 19.289063 29.71875 19.6875 L 20.375 29.03125 L 18.59375 29.40625 L 18.96875 27.625 L 28.3125 18.28125 C 28.511719 18.082031 28.746094 18 29 18 Z "/>
</g>
</svg>
