<svg xmlns="http://www.w3.org/2000/svg" width="14" height="13" viewBox="0 0 14 13"><g transform="translate(-2.1 -3)"><rect class="a" width="5.237" height="1" transform="translate(5.877 5.55)"/><rect class="a" width="5.237" height="1" transform="translate(5.877 7.85)"/><rect class="a" width="3.475" height="1" transform="translate(5.877 10.15)"/><path class="a" d="M18.39,13.15,13.3,18.2l-.5,2.65,2.669-.55,5.086-5.05a1.434,1.434,0,0,0,.453-1.05,1.357,1.357,0,0,0-.453-1.05A1.528,1.528,0,0,0,18.39,13.15Zm1.46,1.4L14.965,19.4l-.906.2.2-.9,4.885-4.85a.489.489,0,0,1,.705,0A.452.452,0,0,1,20,14.2.744.744,0,0,1,19.85,14.55Z" transform="translate(-5.312 -4.85)"/><path class="a" d="M4.366,10l.453.5.755-.7L3.812,8.1,2.1,9.8l.705.7.554-.5v8.55H6.683l.2-1H4.366Z" transform="translate(0 -2.55)"/><path class="a" d="M5.607,4h9.518V5.2l-.5-.5-.755.7,1.763,1.7,1.712-1.7-.705-.7-.5.5V3H4.6V4.85H5.607Z" transform="translate(-1.241)"/></g></svg>