<?xml version="1.0" encoding="UTF-8"?>
<svg xmlns="http://www.w3.org/2000/svg" xmlns:xlink="http://www.w3.org/1999/xlink" viewBox="0 0 32 32" version="1.1" width="96px" height="96px">
<g id="surface1">
<path style=" " d="M 6 3 L 6 10 L 8 10 L 8 5 L 24 5 L 24 10 L 26 10 L 26 3 Z M 10 12 L 10 17.5 C 10 17.714844 9.714844 18 9.5 18 C 9.285156 18 9 17.714844 9 17.5 L 9 17 L 7 17 L 7 17.5 C 7 18.882813 8.117188 20 9.5 20 C 10.882813 20 12 18.882813 12 17.5 L 12 12 Z M 14 12 L 14 20 L 16 20 L 16 18 C 17.644531 18 19 16.644531 19 15 C 19 13.355469 17.644531 12 16 12 Z M 22.5 12 C 21.117188 12 20 13.117188 20 14.5 L 20 17.5 C 20 18.882813 21.117188 20 22.5 20 L 25 20 L 25 16 L 23 16 L 23 18 L 22.5 18 C 22.285156 18 22 17.714844 22 17.5 L 22 14.5 C 22 14.285156 22.285156 14 22.5 14 C 22.714844 14 23 14.285156 23 14.5 L 23 15 L 25 15 L 25 14.5 C 25 13.117188 23.882813 12 22.5 12 Z M 16 14 C 16.554688 14 17 14.445313 17 15 C 17 15.554688 16.554688 16 16 16 Z M 6 22 L 6 29 L 26 29 L 26 22 L 24 22 L 24 27 L 8 27 L 8 22 Z "/>
</g>
</svg>
