<?xml version="1.0" encoding="utf-8"?>
<!-- Generator: Adobe Illustrator 25.1.0, SVG Export Plug-In . SVG Version: 6.00 Build 0)  -->
<svg version="1.1" id="Layer_1" xmlns="http://www.w3.org/2000/svg" xmlns:xlink="http://www.w3.org/1999/xlink" x="0px" y="0px"
	 viewBox="0 0 32 32" style="enable-background:new 0 0 32 32;" xml:space="preserve">
<path d="M16,4C9.4,4,4,9.4,4,16s5.4,12,12,12c4.1,0,7.6-2,9.8-5.1l-1.6-1.2C22.4,24.3,19.4,26,16,26c-5.5,0-10-4.5-10-10
	S10.5,6,16,6c3.4,0,6.4,1.7,8.2,4.2l1.6-1.2C23.6,6,20.1,4,16,4z M23.3,11.3l-1.4,1.4l2.3,2.3H12v2h12.2l-2.3,2.3l1.4,1.4l4-4L28,16
	l-0.7-0.7L23.3,11.3z"/>
</svg>
