<?xml version="1.0" encoding="utf-8"?>
<!-- Generator: Adobe Illustrator 22.1.0, SVG Export Plug-In . SVG Version: 6.00 Build 0)  -->
<svg version="1.1" id="Layer_1" xmlns="http://www.w3.org/2000/svg" xmlns:xlink="http://www.w3.org/1999/xlink" x="0px" y="0px"
	 viewBox="0 0 800 800" style="enable-background:new 0 0 800 800;" xml:space="preserve">
<g>
	<path d="M219.6,355.5h11h16.5h11c4.6,0,8.2-3.7,8.2-8.2c0-4.6-3.7-8.2-8.2-8.2h-11v-26.9h-16.5V339h-11c-4.6,0-8.2,3.7-8.2,8.2
		C211.3,351.8,215,355.5,219.6,355.5z"/>
	<path d="M219.6,407.1h38.5c4.6,0,8.2-3.7,8.2-8.2c0-4.6-3.7-8.2-8.2-8.2h-11v-26.8h-16.5v26.8h-11c-4.6,0-8.2,3.7-8.2,8.2
		C211.3,403.4,215,407.1,219.6,407.1z"/>
	<path d="M219.6,252.5h11h16.5h11c4.6,0,8.2-3.7,8.2-8.2c0-4.6-3.7-8.2-8.2-8.2h-11v-50.2c0-6.1,4.9-11,11-11h254.2
		c6.1,0,11,4.9,11,11v18.9h16.5v-18.9c0-15.2-12.3-27.5-27.5-27.5H258.1c-15.2,0-27.5,12.3-27.5,27.5V236h-11
		c-4.6,0-8.2,3.7-8.2,8.2C211.3,248.8,215,252.5,219.6,252.5z"/>
	<path d="M523.3,507.4c0,6.1-4.9,11-11,11H258.1c-6.1,0-11-4.9-11-11v-40.5h-16.5v40.5c0,15.2,12.3,27.5,27.5,27.5h254.2
		c15.2,0,27.5-12.3,27.5-27.5v-19.3h-16.5V507.4z"/>
	<path d="M219.6,304h38.5c4.6,0,8.2-3.7,8.2-8.2c0-4.6-3.7-8.2-8.2-8.2h-11v-26.8h-16.5v26.8h-11c-4.6,0-8.2,3.7-8.2,8.2
		C211.3,300.3,215,304,219.6,304z"/>
	<path d="M247.1,458.6h11c4.6,0,8.2-3.7,8.2-8.2s-3.7-8.2-8.2-8.2h-11v-26.9h-16.5v26.9h-11c-4.6,0-8.2,3.7-8.2,8.2s3.7,8.2,8.2,8.2
		h11H247.1z"/>
	<path d="M611.5,218.3h-71.7h-16.5H317.5c-10.3,0-18.7,8.4-18.7,18.7v219.1c0,10.3,8.4,18.7,18.7,18.7h205.8h16.5h71.7
		c10.3,0,18.7-8.4,18.7-18.7V237C630.2,226.7,621.8,218.3,611.5,218.3z M614.2,398.6l-46.6-42.4c-5.3-4.8-13.4-4.6-18.4,0.5
		l-9.4,9.4l-16.5,16.5l-18.9,18.9l-86-102.7c-2.5-3-6.2-4.8-10.1-4.8c0,0-0.1,0-0.1,0c-3.9,0-7.6,1.7-10.1,4.7l-83.3,96.8v-161
		h208.5h16.5h74.4V398.6z"/>
	<path d="M523.3,293.2c0,11.1,6.8,20.6,16.4,24.6c3.2,1.3,6.6,2.1,10.3,2.1c14.7,0,26.7-12,26.7-26.7c0-14.7-12-26.7-26.7-26.7
		c-3.6,0-7.1,0.7-10.3,2.1C530.1,272.5,523.3,282.1,523.3,293.2z"/>
</g>
</svg>
