<?xml version="1.0"?>
<svg xmlns="http://www.w3.org/2000/svg" viewBox="0 0 50 50" width="100px" height="100px">
    <path d="M45,18H33.414l-2.556,2.555l-1.414-1.414L32,16.585V5c0-0.552-0.447-1-1-1H5C4.448,4,4,4.448,4,5v26c0,0.553,0.448,1,1,1 h11.586l2.555-2.555l1.415,1.414L18,33.415V45c0,0.553,0.448,1,1,1h26c0.553,0,1-0.447,1-1V19C46,18.448,45.553,18,45,18z M10,21v-2 h7.586L8.293,9.707l1.414-1.414L19,17.586V10h2v11H10z M21.858,29.556l-1.414-1.414l1.697-1.696l1.414,1.414L21.858,29.556z M24.858,26.555l-1.414-1.414l1.697-1.697l1.414,1.414L24.858,26.555z M26.444,22.141l1.697-1.697l1.414,1.414l-1.697,1.697 L26.444,22.141z M40.293,41.707L31,32.414V40h-2V29h11v2h-7.586l9.293,9.293L40.293,41.707z"/>
</svg>
