<?xml version="1.0" encoding="UTF-8" standalone="yes"?>
<svg xmlns="http://www.w3.org/2000/svg" viewBox="0 0 32 32" width="32" height="32" fill="#000000">
  <path d="M 6 3 L 6 29 L 21.171875 29 L 20.585938 28.414062 L 19.171875 27 L 8 27 L 8 5 L 18 5 L 18 11 L 24 11 L 24 18 L 26 18 L 26 9.5859375 L 19.414062 3 L 6 3 z M 20 6.4140625 L 22.585938 9 L 20 9 L 20 6.4140625 z M 20.285156 13.462891 L 16 18.462891 L 12.570312 14.462891 L 9.2402344 18.349609 L 10.759766 19.650391 L 12.572266 17.535156 L 16 21.537109 L 20.285156 16.535156 L 21.240234 17.650391 L 22.759766 16.349609 L 20.285156 13.462891 z M 26 20 L 26 27 L 22 27 L 27 32 L 32 27 L 28 27 L 28 20 L 26 20 z"/>
</svg>
