<?xml version="1.0" encoding="UTF-8"?>
<svg xmlns="http://www.w3.org/2000/svg" xmlns:xlink="http://www.w3.org/1999/xlink" viewBox="0 0 32 32" version="1.1" width="96px" height="96px">
<g id="surface1">
<path style=" " d="M 6 3 L 6 10 L 8 10 L 8 5 L 24 5 L 24 10 L 26 10 L 26 3 Z M 7 12 L 7 20 L 9 20 L 9 15.34375 L 9.1875 15.59375 L 10 16.65625 L 10.8125 15.59375 L 11 15.34375 L 11 20 L 13 20 L 13 12 L 11 12 L 10.6875 12.40625 L 10 13.3125 L 9.3125 12.40625 L 9 12 Z M 16.5 12 C 15.117188 12 14 13.117188 14 14.5 L 14 17.5 C 14 18.882813 15.117188 20 16.5 20 C 17.882813 20 19 18.882813 19 17.5 L 19 14.5 C 19 13.117188 17.882813 12 16.5 12 Z M 20 12 L 20 13.15625 L 20.0625 13.3125 L 22.0625 19.3125 L 23 22.15625 L 23.9375 19.3125 L 25.9375 13.3125 L 26 13.15625 L 26 12 L 24 12 L 24 12.875 L 23 15.875 L 22 12.875 L 22 12 Z M 16.5 14 C 16.714844 14 17 14.285156 17 14.5 L 17 17.5 C 17 17.714844 16.714844 18 16.5 18 C 16.285156 18 16 17.714844 16 17.5 L 16 14.5 C 16 14.285156 16.285156 14 16.5 14 Z M 6 22 L 6 29 L 26 29 L 26 22 L 24 22 L 24 27 L 8 27 L 8 22 Z "/>
</g>
</svg>
