<?xml version="1.0" encoding="UTF-8"?>
<svg xmlns="http://www.w3.org/2000/svg" xmlns:xlink="http://www.w3.org/1999/xlink" viewBox="0 0 32 32" version="1.1" width="96px" height="96px">
<g id="surface1">
<path style=" " d="M 6 3 L 6 10 L 8 10 L 8 5 L 24 5 L 24 10 L 26 10 L 26 3 Z M 7 12 L 7 20 L 9 20 L 9 15.34375 L 9.1875 15.59375 L 10 16.65625 L 10.8125 15.59375 L 11 15.34375 L 11 20 L 13 20 L 13 12 L 11 12 L 10.6875 12.40625 L 10 13.3125 L 9.3125 12.40625 L 9 12 Z M 15 12 L 15 20 L 17 20 L 17 18 C 18.644531 18 20 16.644531 20 15 C 20 13.355469 18.644531 12 17 12 Z M 23.5 12 C 22.117188 12 21 13.117188 21 14.5 L 21 17.5 C 21 18.882813 22.117188 20 23.5 20 L 26 20 L 26 16 L 24 16 L 24 18 L 23.5 18 C 23.285156 18 23 17.714844 23 17.5 L 23 14.5 C 23 14.285156 23.285156 14 23.5 14 C 23.714844 14 24 14.285156 24 14.5 L 24 15 L 26 15 L 26 14.5 C 26 13.117188 24.882813 12 23.5 12 Z M 17 14 C 17.554688 14 18 14.445313 18 15 C 18 15.554688 17.554688 16 17 16 Z M 6 22 L 6 29 L 26 29 L 26 22 L 24 22 L 24 27 L 8 27 L 8 22 Z "/>
</g>
</svg>
