<?xml version="1.0" encoding="utf-8"?>
<!-- Generator: Adobe Illustrator 25.1.0, SVG Export Plug-In . SVG Version: 6.00 Build 0)  -->
<svg version="1.1" id="Layer_1" xmlns="http://www.w3.org/2000/svg" xmlns:xlink="http://www.w3.org/1999/xlink" x="0px" y="0px"
	 viewBox="0 0 32 32" style="enable-background:new 0 0 32 32;" xml:space="preserve">
<path d="M16,5c-3.9,0-7,3.1-7,7c0,2.4,1.2,4.6,3.1,5.8C8.5,19.3,6,22.9,6,27h2c0-2.5,1.2-4.8,3-6.2l4.3,4l0.7,0.7l0.7-0.7l4.3-4
	c1.8,1.5,3,3.7,3,6.2h2c0-4.1-2.5-7.7-6.1-9.2c1.9-1.3,3.1-3.4,3.1-5.8C23,8.1,19.9,5,16,5z M16,7c2.8,0,5,2.2,5,5s-2.2,5-5,5
	s-5-2.2-5-5S13.2,7,16,7z M16,19c1.1,0,2.2,0.2,3.2,0.7l-3.2,3l-3.2-3C13.8,19.2,14.9,19,16,19z"/>
</svg>
