<?xml version="1.0" encoding="UTF-8"?>
<svg xmlns="http://www.w3.org/2000/svg" xmlns:xlink="http://www.w3.org/1999/xlink" viewBox="0 0 32 32" version="1.1" width="96px" height="96px">
<g id="surface1">
<path style=" " d="M 3.71875 2.28125 L 2.28125 3.71875 L 28.28125 29.71875 L 29.71875 28.28125 L 19.625 18.1875 L 26.71875 11.09375 C 28.34375 9.46875 28.34375 6.90625 26.71875 5.28125 C 25.90625 4.46875 24.859375 4.0625 23.8125 4.0625 C 22.765625 4.0625 21.71875 4.46875 20.90625 5.28125 L 13.8125 12.375 Z M 23.8125 6 C 24.3125 6 24.792969 6.230469 25.28125 6.71875 C 26.253906 7.691406 26.253906 8.714844 25.28125 9.6875 L 24.6875 10.28125 L 21.71875 7.3125 L 22.3125 6.71875 C 22.800781 6.230469 23.3125 6 23.8125 6 Z M 20.3125 8.71875 L 23.28125 11.6875 L 18.1875 16.75 L 15.25 13.8125 Z M 11 15.1875 L 5.1875 21 L 5.125 21.3125 L 4.03125 26.8125 L 3.71875 28.28125 L 5.1875 27.96875 L 10.6875 26.875 L 11 26.8125 L 16.8125 21 L 15.40625 19.59375 L 11.1875 23.78125 C 10.53125 22.5 9.5 21.46875 8.21875 20.8125 L 12.40625 16.59375 Z M 6.9375 22.4375 C 8.136719 22.921875 9.078125 23.863281 9.5625 25.0625 L 6.28125 25.71875 Z "/>
</g>
</svg>
