<?xml version="1.0" encoding="UTF-8"?>
<svg xmlns="http://www.w3.org/2000/svg" xmlns:xlink="http://www.w3.org/1999/xlink" viewBox="0 0 32 32" version="1.1" fill="#f1c40f" width="96px" height="96px">
<g id="surface1" fill="#f1c40f">
<path style=" " d="M 19 5 C 16.972656 5.015625 14.945313 5.804688 13.40625 7.34375 L 7.3125 13.4375 C 6.90625 13.84375 6.285156 13.847656 5.875 13.4375 L 5.4375 13 L 4 14.40625 L 11.65625 22.03125 C 10.175781 22.207031 9 23.472656 9 25 C 9 26.644531 10.355469 28 12 28 C 13.515625 28 14.777344 26.84375 14.96875 25.375 L 17.59375 28 L 19 26.59375 L 18.5625 26.15625 C 18.15625 25.75 18.183594 25.128906 18.59375 24.71875 L 24.71875 18.65625 C 26.269531 17.105469 27 15.019531 27 13 C 27 11.550781 26.644531 10.09375 25.875 8.8125 C 26.546875 8.488281 27 7.792969 27 7 C 27 5.894531 26.105469 5 25 5 C 24.195313 5 23.503906 5.472656 23.1875 6.15625 C 21.90625 5.382813 20.449219 4.988281 19 5 Z M 19 7 C 20.554688 6.988281 22.101563 7.570313 23.28125 8.75 C 24.457031 9.925781 25 11.417969 25 13 C 25 14.53125 24.425781 16.074219 23.28125 17.21875 L 17.15625 23.3125 C 16.902344 23.566406 16.707031 23.851563 16.5625 24.15625 L 7.84375 15.4375 C 8.160156 15.292969 8.460938 15.101563 8.71875 14.84375 L 14.8125 8.75 C 15.96875 7.59375 17.472656 7.011719 19 7 Z M 12 24 C 12.5625 24 13 24.4375 13 25 C 13 25.5625 12.5625 26 12 26 C 11.4375 26 11 25.5625 11 25 C 11 24.4375 11.4375 24 12 24 Z " fill="#f1c40f"/>
</g>
</svg>
