<?xml version="1.0" encoding="utf-8"?>
<!-- Generator: Adobe Illustrator 22.1.0, SVG Export Plug-In . SVG Version: 6.00 Build 0)  -->
<svg version="1.1" id="Layer_1" xmlns="http://www.w3.org/2000/svg" xmlns:xlink="http://www.w3.org/1999/xlink" x="0px" y="0px"
	 viewBox="0 0 512 512" style="enable-background:new 0 0 512 512;" xml:space="preserve">
<g>
	<path d="M57,393V169h352v36.6c10.6,3.2,20.8,6.8,30.4,12.7l1.6,1V169v-32V73h-80V57h-32v16H137V57h-32v16H25v64v32v256h236.3
		c-8.4-9.5-14.4-20.3-19.7-32H57z M57,105h48v16h32v-16h192v16h32v-16h48v32H57V105z"/>
	<rect x="157" y="322" width="32" height="32"/>
	<rect x="93" y="322" width="32" height="32"/>
	<rect x="93" y="258" width="32" height="32"/>
	<rect x="157" y="258" width="32" height="32"/>
	<rect x="93" y="201" width="32" height="32"/>
	<rect x="157" y="201" width="32" height="32"/>
	<rect x="224" y="201" width="32" height="32"/>
	<path d="M409,285.1l-32,32l-14,14c-2.3,2.3-3.5,5.3-3.5,8.5c0,2,0.5,3.9,1.4,5.5c2,3.8,6,6.5,10.6,6.5c3.2,0,6.2-1.2,8.5-3.5l29-29
		l32-32l48.6-48.6l-16.9-16.9L441,253.1L409,285.1z"/>
	<path d="M348.2,334.5c0.1-0.2,0.1-0.4,0.2-0.7l0,0c0.3-1.2,0.6-2.4,1.1-3.5c0.1-0.1,0.2-0.3,0.2-0.5c1.2-2.8,2.9-5.2,4.9-7.3
		l22.4-22.4l7.1-7.1l-6.8-1c-0.1,0-0.2,0-0.2,0c-1.7-0.3-3.6-0.5-5.5-0.5c-9.8,0-18.9,3-26.5,8c-5.2,3.5-9.8,8-13.3,13.3
		c-5.1,7.6-8,16.7-8,26.5c0,1.9,0.1,3.7,0.3,5.5c2.7,23.8,23,42.3,47.5,42.3c15.2,0,28.7-7.1,37.5-18.2c6.4-8.1,10.3-18.4,10.3-29.6
		c0-2-0.3-3.9-0.5-5.7l-1-6.8l-8.8,8.8l-20.6,20.6c-2,2-4.5,3.7-7.3,4.9c-0.1,0.1-0.3,0.1-0.4,0.2c-1.1,0.5-2.4,0.8-3.6,1.1
		c-0.2,0.1-0.5,0.1-0.7,0.2c-0.1,0-0.1,0-0.1,0.1c-1.6,0.3-3.2,0.5-4.8,0.5c-3.2,0-6.3-0.6-9.3-1.9c-7.1-3-12.2-9.2-14-16.5
		c-0.4-1.8-0.6-3.6-0.6-5.5c0-1.6,0.2-3.2,0.5-4.7C348.1,334.7,348.1,334.6,348.2,334.5z"/>
	<path d="M393.3,283.9l15.7-15.7l2.3-2.3l-2.3-1.1l-1.5-0.7c-9.7-4.7-20-7.4-30.5-8.1c-1.8-0.1-3.7-0.2-5.5-0.2
		c-9.3,0-18.2,1.5-26.5,4.3c-24.8,8.3-44.5,28-52.8,52.8c-2.8,8.3-4.3,17.2-4.3,26.5c0,1.8,0.1,3.7,0.2,5.5
		c1.2,18.2,8.2,34.8,19.2,48c15.4,18.4,38.5,30.2,64.3,30.2c28.9,0,54.5-14.8,69.5-37.2c8.9-13.3,14.2-29.3,14.2-46.5
		c0-12.4-2.8-24.5-8.2-36l-1.8-3.8l-4.1,4.1l-13.9,13.9l0.6,1.8c2.3,6.5,3.5,13.3,3.5,20c0,18.7-8.7,35.5-22.2,46.4
		c-3.4,2.7-7.1,5.1-11,7.1c-8,4-17,6.2-26.5,6.2S353,397,345,393c-18.1-9-31-26.9-32.9-48c-0.2-1.8-0.3-3.6-0.3-5.5
		c0-9.5,2.2-18.5,6.2-26.5c5.8-11.7,15.3-21.2,27-27c8-4,17-6.2,26.5-6.2c1.8,0,3.7,0.1,5.5,0.3c4.9,0.5,9.7,1.6,14.5,3.3
		L393.3,283.9z"/>
	<path d="M473.1,276.9l-2-3.2L453.8,291l1.1,2c8,14.2,12.2,30.3,12.2,46.5c0,25.3-9.9,48.4-26.1,65.5c-7.7,8.1-16.7,14.9-26.8,20
		c-12.9,6.4-27.4,10.1-42.7,10.1s-29.8-3.6-42.7-10.1c-14.7-7.4-27.3-18.5-36.5-32c-9.4-13.9-15.2-30.3-16.3-48
		c-0.1-1.8-0.2-3.7-0.2-5.5c0-10.8,1.8-21.1,5.1-30.8c9.5-28,31.7-50.2,59.7-59.7c9.7-3.3,20-5.1,30.8-5.1c1.8,0,3.7,0.1,5.5,0.2
		c11,0.6,21.9,3.2,32,7.6c3.1,1.3,6.1,2.8,9,4.4l2,1.1l17.3-17.3l-3.2-2c-7.9-4.9-16.4-8.8-25.1-11.8c-10.3-3.5-21.1-5.5-32-6
		c-1.8-0.1-3.7-0.1-5.5-0.1c-29.8,0-57,10.9-78,29c-4.5,3.9-8.7,8.1-12.5,12.5c-18.1,20.9-29,48.2-29,78c0,1.8,0,3.7,0.1,5.5
		c0.8,17.2,5.2,33.4,12.5,48c6,11.9,14,22.8,23.4,32c21.5,21,51,34,83.4,34c65.9,0,119.5-53.6,119.5-119.5
		C491,317.5,484.8,295.8,473.1,276.9z"/>
	<path d="M224,322v32h10.1c-0.7-5.6-1.1-11.2-1.1-17c0-5.1,0.3-10.1,0.8-15H224z"/>
	<path d="M256,261.6V258h-32v32h17.4C245.2,279.9,250.1,270.4,256,261.6z"/>
	<path d="M320,210.8V201h-32v27.3C297.7,221.1,308.5,215.2,320,210.8z"/>
</g>
</svg>
