<?xml version="1.0" encoding="utf-8"?>
<!-- Generator: Adobe Illustrator 22.1.0, SVG Export Plug-In . SVG Version: 6.00 Build 0)  -->
<svg version="1.1" id="Layer_1" xmlns="http://www.w3.org/2000/svg" xmlns:xlink="http://www.w3.org/1999/xlink" x="0px" y="0px"
	 viewBox="0 0 512 512" style="enable-background:new 0 0 512 512;" xml:space="preserve">
<g>
	<rect x="153" y="160" width="32" height="160"/>
	<path d="M265,224h-24c-22.1,0-40,17.9-40,40v16c0,22.1,17.9,40,40,40h24h32v-96v-64h-32V224z M265,288h-24c-4.4,0-8-3.6-8-8v-16
		c0-4.4,3.6-8,8-8h24V288z"/>
	<path d="M41,64v352h180.1l-9.4-9.3L189,384H73V96h288v192.3c11,0.7,21.8,3,32,6.1V64H41z"/>
</g>
<path d="M460.3,372.7c-1.6-1.6-30.5-30-67.3-44.4c-10.2-4-21-6.9-32-7.9c-2.7-0.2-5.3-0.4-8-0.4c-53.8,0-105.1,50.5-107.3,52.7
	L234.3,384l0,0l11.4,11.3c0.9,0.9,10.3,10.2,24.8,20.7c20.4,14.8,51,32,82.5,32c53.8,0,105.1-50.5,107.3-52.7l11.4-11.3L460.3,372.7
	z M281.3,384c12.5-9.9,30.5-21.9,49.1-28c-8.2,6.6-13.4,16.7-13.4,28c0,11.4,5.3,21.6,13.6,28.2C311.2,405.9,293,393.3,281.3,384
	C281.3,384,281.3,384,281.3,384z M393,404.8c-5.6,2.9-11.6,5.4-17.6,7.4c8.3-6.6,13.6-16.8,13.6-28.2c0-3.7-0.7-7.1-1.7-10.4
	c-2.9,6.1-9.1,10.4-16.3,10.4c-9.9,0-18-8.1-18-18c0-5.5,2.5-10.4,6.3-13.7c0.6,0.1,1.1,0.1,1.7,0.2c11,1.4,21.9,5.5,32,10.7
	c12.5,6.4,23.6,14.4,31.7,20.8C416.6,390.4,405.5,398.4,393,404.8z"/>
</svg>
