<?xml version="1.0" encoding="UTF-8"?>
<svg xmlns="http://www.w3.org/2000/svg" xmlns:xlink="http://www.w3.org/1999/xlink" viewBox="0 0 32 32" version="1.1" width="96px" height="96px">
<g id="surface1">
<path style=" " d="M 1 5 L 1 17 L 31 17 L 31 5 Z M 3 7 L 29 7 L 29 15 L 3 15 Z M 7 9 C 5.894531 9 5 9.894531 5 11 C 5 12.105469 5.894531 13 7 13 C 8.105469 13 9 12.105469 9 11 C 9 9.894531 8.105469 9 7 9 Z M 13 9 C 11.894531 9 11 9.894531 11 11 C 11 12.105469 11.894531 13 13 13 C 14.105469 13 15 12.105469 15 11 C 15 9.894531 14.105469 9 13 9 Z M 19 9 C 17.894531 9 17 9.894531 17 11 C 17 12.105469 17.894531 13 19 13 C 20.105469 13 21 12.105469 21 11 C 21 9.894531 20.105469 9 19 9 Z M 25 9 C 23.894531 9 23 9.894531 23 11 C 23 12.105469 23.894531 13 25 13 C 26.105469 13 27 12.105469 27 11 C 27 9.894531 26.105469 9 25 9 Z M 16 19 C 13.242188 19 11 21.242188 11 24 C 11 26.757813 13.242188 29 16 29 C 18.046875 29 19.789063 27.761719 20.5625 26 L 18.21875 26 C 17.667969 26.609375 16.882813 27 16 27 C 14.347656 27 13 25.652344 13 24 C 13 22.347656 14.347656 21 16 21 C 16.882813 21 17.667969 21.390625 18.21875 22 L 16 22 L 16 24 L 21 24 L 21 19 L 19 19 L 19 20.03125 C 18.160156 19.390625 17.136719 19 16 19 Z "/>
</g>
</svg>
