<?xml version="1.0" encoding="utf-8"?>
<!-- Generator: Adobe Illustrator 23.0.3, SVG Export Plug-In . SVG Version: 6.00 Build 0)  -->
<svg version="1.1" id="Layer_1" xmlns="http://www.w3.org/2000/svg" xmlns:xlink="http://www.w3.org/1999/xlink" x="0px" y="0px"
	 viewBox="0 0 42 42" style="enable-background:new 0 0 42 42;" xml:space="preserve">
<style type="text/css">
	.st0{opacity:0.27;fill:#838383;enable-background:new    ;}
	.st1{fill:#838383;}
	.st2{fill:#FFFFFF;}
</style>
<g id="Group_2548" transform="translate(-1347.801 -788.102)">
	<circle id="Ellipse_1" class="st0" cx="1370.2" cy="809.1" r="19.6"/>
	<g id="Group_2545" transform="translate(1349.847 789.823)">
		<path id="Path_884" class="st1" d="M17.1,24.2c1.9,1.2,4.3,1.3,6.3,0.1l5.6,9.6c-0.7,0.3-1.3,0.7-1.9,0.9
			c-1.1,0.5-2.3,0.9-3.5,1.1c-1.2,0.2-2.4,0.3-3.6,0.3c-2.1-0.1-4.2-0.6-6.2-1.4c-0.7-0.3-1.3-0.6-2-1c-0.1-0.1-0.2-0.1-0.1-0.3
			c0.7-1.2,1.4-2.4,2.1-3.5c0.5-0.9,1-1.8,1.5-2.7L17.1,24.2z"/>
		<path id="Path_885" class="st1" d="M28.6,4.2c5.4,3,8.8,8.7,8.8,15H26.5c-0.1-2.3-1.4-4.4-3.4-5.4L28.6,4.2z"/>
		<path id="Path_886" class="st1" d="M11.9,4.4l5.5,9.6c-1.8,1.1-3,3.1-3,5.3H3.4c0-2.8,0.7-5.5,2-8C6.8,8.3,9.1,6,11.9,4.4z"/>
		<circle id="Ellipse_2" class="st1" cx="20.3" cy="19.3" r="4.1"/>
	</g>
	<g id="Group_2547" transform="translate(1347.801 797.007)">
		<rect id="Rectangle_958" x="0" y="16" class="st1" width="14.5" height="6.4"/>
		<g id="Group_2546" transform="translate(0.61 0.338)">
			<path id="Path_887" class="st2" d="M5,18.8c0-0.7,0-1.3,0-2c0-0.2,0.1-0.3,0.3-0.3c0.6,0,1.1,0,1.7,0.1c0.7,0.1,1.3,0.7,1.3,1.4
				c0,0.5,0,1.1,0,1.6c0,0.7-0.6,1.3-1.3,1.4c-0.6,0-1.2,0-1.8,0.1C5,21.1,5,21.1,5,20.9C5,20.2,5,19.5,5,18.8z M6,17.5v2.8h0.6
				c0.3,0,0.6-0.2,0.7-0.5c0,0,0,0,0-0.1c0-0.5,0.1-1,0-1.5c0-0.5-0.2-0.7-0.6-0.8C6.5,17.4,6.3,17.5,6,17.5L6,17.5z"/>
			<path id="Path_888" class="st2" d="M1.9,21.1H1v-4.6c0.8-0.1,1.6,0,2.4,0.2c0.7,0.3,1,1.2,0.7,1.9c-0.3,0.6-0.8,0.9-1.5,0.8
				c-0.2,0-0.5,0-0.7,0V21.1z M1.9,18.6c0.3,0,0.6,0,0.9-0.1s0.4-0.2,0.4-0.5c0-0.3-0.2-0.5-0.4-0.6c-0.3,0-0.6,0-0.9,0V18.6z"/>
			<path id="Path_889" class="st2" d="M12.3,16.6v0.9h-2v1H12v0.8h-1.7c0,0.5,0,1,0,1.5c0,0.3,0,0.3-0.3,0.3c-0.7,0-0.7,0-0.7-0.7
				c0-1.2,0-2.4,0-3.6c0-0.2,0.1-0.3,0.3-0.3c0.8,0,1.7,0,2.5,0C12.1,16.6,12.2,16.6,12.3,16.6z"/>
		</g>
	</g>
</g>
</svg>
