<?xml version="1.0" encoding="UTF-8"?>
<svg xmlns="http://www.w3.org/2000/svg" xmlns:xlink="http://www.w3.org/1999/xlink" viewBox="0 0 32 32" version="1.1" width="64px" height="64px">
<g id="surface1">
<path style=" " d="M 6 4 L 6 28 L 17.0625 28 C 17.394531 28.570313 17.796875 29.109375 18.28125 29.59375 C 21.375 32.6875 26.5 32.6875 29.59375 29.59375 C 29.734375 29.453125 29.863281 29.300781 30 29.15625 L 30 32 L 32 32 L 32 26 L 26 26 L 26 28 L 28.34375 28 C 28.285156 28.0625 28.25 28.125 28.1875 28.1875 C 25.878906 30.496094 22.027344 30.496094 19.71875 28.1875 C 17.410156 25.878906 17.410156 22.027344 19.71875 19.71875 C 22.027344 17.410156 25.878906 17.410156 28.1875 19.71875 C 29.230469 20.761719 29.824219 22.046875 29.90625 23.28125 L 31.90625 23.125 C 31.789063 21.359375 30.949219 19.636719 29.59375 18.28125 C 28.570313 17.257813 27.320313 16.59375 26 16.25 L 26 4 Z M 8 6 L 24 6 L 24 11 L 8 11 Z M 8 13 L 24 13 L 24 15.96875 C 23.980469 15.96875 23.957031 15.96875 23.9375 15.96875 C 21.882813 15.96875 19.828125 16.734375 18.28125 18.28125 C 18.050781 18.511719 17.851563 18.75 17.65625 19 L 8 19 Z M 8 21 L 16.5 21 C 15.882813 22.59375 15.789063 24.359375 16.21875 26 L 8 26 Z "/>
</g>
</svg>
