<?xml version="1.0" encoding="UTF-8"?>
<svg xmlns="http://www.w3.org/2000/svg" xmlns:xlink="http://www.w3.org/1999/xlink" viewBox="0 0 32 32" version="1.1" width="96px" height="96px">
<g id="surface1">
<path style=" " d="M 6 3 L 6 10 L 8 10 L 8 5 L 24 5 L 24 10 L 26 10 L 26 3 Z M 8 12 L 8 20 L 10 20 L 10 18 C 11.644531 18 13 16.644531 13 15 C 13 13.355469 11.644531 12 10 12 Z M 14 12 L 14 20 L 16 20 L 16 17 L 17 18.34375 L 17 20 L 19 20 L 19 12 L 17 12 L 17 15 L 16 13.65625 L 16 12 Z M 22.5 12 C 21.117188 12 20 13.117188 20 14.5 L 20 17.5 C 20 18.882813 21.117188 20 22.5 20 L 25 20 L 25 16 L 23 16 L 23 18 L 22.5 18 C 22.285156 18 22 17.714844 22 17.5 L 22 14.5 C 22 14.285156 22.285156 14 22.5 14 C 22.714844 14 23 14.285156 23 14.5 L 23 15 L 25 15 L 25 14.5 C 25 13.117188 23.882813 12 22.5 12 Z M 10 14 C 10.554688 14 11 14.445313 11 15 C 11 15.554688 10.554688 16 10 16 Z M 6 22 L 6 29 L 26 29 L 26 22 L 24 22 L 24 27 L 8 27 L 8 22 Z "/>
</g>
</svg>
