<?xml version="1.0" encoding="UTF-8"?>
<svg xmlns="http://www.w3.org/2000/svg" xmlns:xlink="http://www.w3.org/1999/xlink" viewBox="0 0 32 32" version="1.1" width="96px" height="96px">
<g id="surface1">
<path style=" " d="M 3 4 L 3 22 L 29 22 L 29 4 Z M 5 6 L 27 6 L 27 20 L 5 20 Z M 11 9 C 8.800781 9 7 10.800781 7 13 C 7 15.199219 8.800781 17 11 17 C 13.199219 17 15 15.199219 15 13 C 15 10.800781 13.199219 9 11 9 Z M 17 9 L 17 11 L 25 11 L 25 9 Z M 11 11 L 11 13 L 13 13 C 13 14.117188 12.117188 15 11 15 C 9.882813 15 9 14.117188 9 13 C 9 11.882813 9.882813 11 11 11 Z M 17 12 L 17 14 L 23 14 L 23 12 Z M 17 15 L 17 17 L 25 17 L 25 15 Z M 15 23 L 15 25.28125 C 14.402344 25.628906 14 26.269531 14 27 C 14 28.09375 14.90625 29 16 29 C 17.09375 29 18 28.09375 18 27 C 18 26.269531 17.597656 25.628906 17 25.28125 L 17 23 Z "/>
</g>
</svg>
