<?xml version="1.0" encoding="utf-8"?>
<!-- Generator: Adobe Illustrator 22.1.0, SVG Export Plug-In . SVG Version: 6.00 Build 0)  -->
<svg version="1.1" id="Layer_1" xmlns="http://www.w3.org/2000/svg" xmlns:xlink="http://www.w3.org/1999/xlink" x="0px" y="0px"
	 viewBox="0 0 800 800" style="enable-background:new 0 0 800 800;" xml:space="preserve">
<g>
	<path d="M178.1,443.5h11.1h16.7h11.1c4.6,0,8.3-3.7,8.3-8.3c0-4.6-3.7-8.3-8.3-8.3h-11.1v-27.2h-16.7v27.2h-11.1
		c-4.6,0-8.3,3.7-8.3,8.3C169.8,439.8,173.5,443.5,178.1,443.5z"/>
	<path d="M178.1,495.7h38.9c4.6,0,8.3-3.7,8.3-8.3c0-4.6-3.7-8.3-8.3-8.3h-11.1v-27.1h-16.7V479h-11.1c-4.6,0-8.3,3.7-8.3,8.3
		C169.8,492,173.5,495.7,178.1,495.7z"/>
	<path d="M217.1,244c-15.3,0-27.8,12.5-27.8,27.8v50.8h-11.1c-4.6,0-8.3,3.7-8.3,8.3c0,4.6,3.7,8.3,8.3,8.3h11.1h16.7h11.1
		c4.6,0,8.3-3.7,8.3-8.3c0-4.6-3.7-8.3-8.3-8.3h-11.1v-50.8c0-6.1,5-11.1,11.1-11.1h31.1V244H217.1z"/>
	<path d="M485.4,597.2c0,6.1-5,11.1-11.1,11.1H217.1c-6.1,0-11.1-5-11.1-11.1v-41h-16.7v41c0,15.3,12.5,27.8,27.8,27.8h257.2
		c15.3,0,27.8-12.5,27.8-27.8v-77.4l-16.7,9.6V597.2z"/>
	<path d="M189.3,347.6v27.1h-11.1c-4.6,0-8.3,3.7-8.3,8.3c0,4.6,3.7,8.3,8.3,8.3h38.9c4.6,0,8.3-3.7,8.3-8.3c0-4.6-3.7-8.3-8.3-8.3
		h-11.1v-27.1H189.3z"/>
	<path d="M205.9,547.8h11.1c4.6,0,8.3-3.7,8.3-8.3c0-4.6-3.7-8.3-8.3-8.3h-11.1v-27.2h-16.7v27.2h-11.1c-4.6,0-8.3,3.7-8.3,8.3
		c0,4.6,3.7,8.3,8.3,8.3h11.1H205.9z"/>
	<polygon points="495.7,309.9 479.1,319.5 464.5,327.9 450.4,336.1 450.4,528.3 479.1,511.7 495.7,502.1 616.7,432.2 616.7,240 	"/>
	<polygon points="505.5,284.2 513.7,279.5 553.6,256.4 613.1,221.8 441.3,122.6 269.4,221.8 321.6,251.9 350.5,268.5 441.3,321 
		488.9,293.7 	"/>
	<polygon points="313.4,269 288,254.3 267.3,242.4 267.3,254.3 267.3,433 432.2,528.3 432.2,337.7 371.4,302.7 	"/>
</g>
</svg>
