<?xml version="1.0" encoding="UTF-8"?>
<svg xmlns="http://www.w3.org/2000/svg" xmlns:xlink="http://www.w3.org/1999/xlink" viewBox="0 0 32 32" version="1.1" width="96px" height="96px">
<g id="surface1">
<path style=" " d="M 6 3 L 6 10 L 8 10 L 8 5 L 24 5 L 24 10 L 26 10 L 26 3 Z M 8 12 L 8 20 L 10 20 L 10 18 C 11.644531 18 13 16.644531 13 15 C 13 13.355469 11.644531 12 10 12 Z M 16.5 12 C 15.117188 12 14 13.117188 14 14.5 C 14 15.882813 15.117188 17 16.5 17 C 16.714844 17 17 17.285156 17 17.5 C 17 17.800781 16.882813 18 16.5 18 C 16.132813 18 16.074219 17.921875 16.0625 17.90625 C 16.050781 17.890625 16 17.828125 16 17.59375 L 14 17.59375 C 14 18.160156 14.164063 18.796875 14.625 19.28125 C 15.085938 19.765625 15.769531 20 16.5 20 C 17.917969 20 19 18.800781 19 17.5 C 19 16.117188 17.882813 15 16.5 15 C 16.285156 15 16 14.714844 16 14.5 C 16 14.285156 16.285156 14 16.5 14 C 16.765625 14 16.847656 14.0625 16.90625 14.125 C 16.964844 14.1875 17 14.292969 17 14.40625 L 19 14.40625 C 19 13.816406 18.785156 13.214844 18.34375 12.75 C 17.902344 12.285156 17.234375 12 16.5 12 Z M 20 12 L 20 20 L 22 20 C 23.644531 20 25 18.644531 25 17 L 25 15 C 25 13.355469 23.644531 12 22 12 Z M 10 14 C 10.554688 14 11 14.445313 11 15 C 11 15.554688 10.554688 16 10 16 Z M 22 14 C 22.554688 14 23 14.445313 23 15 L 23 17 C 23 17.554688 22.554688 18 22 18 Z M 6 22 L 6 29 L 26 29 L 26 22 L 24 22 L 24 27 L 8 27 L 8 22 Z "/>
</g>
</svg>
