<?xml version="1.0" encoding="UTF-8"?>
<svg xmlns="http://www.w3.org/2000/svg" xmlns:xlink="http://www.w3.org/1999/xlink" viewBox="0 0 32 32" version="1.1" width="96px" height="96px">
<g id="surface1">
<path style=" " d="M 9 5 L 9 19 L 11 19 L 11 7 L 25 7 L 25 23 C 25 24.117188 24.117188 25 23 25 C 21.882813 25 21 24.117188 21 23 L 21 20 L 5 20 L 5 23 C 5 25.199219 6.800781 27 9 27 L 23 27 C 25.199219 27 27 25.199219 27 23 L 27 5 Z M 13 11 L 13 13 L 15 13 L 15 11 Z M 17 11 L 17 13 L 23 13 L 23 11 Z M 13 15 L 13 17 L 15 17 L 15 15 Z M 17 15 L 17 17 L 23 17 L 23 15 Z M 7 22 L 19 22 L 19 23 C 19 23.734375 19.214844 24.40625 19.5625 25 L 9 25 C 7.882813 25 7 24.117188 7 23 Z "/>
</g>
</svg>
