<?xml version="1.0" encoding="utf-8"?>
<!-- Generator: Adobe Illustrator 23.0.1, SVG Export Plug-In . SVG Version: 6.00 Build 0)  -->
<svg version="1.1" id="Layer_1" xmlns="http://www.w3.org/2000/svg" xmlns:xlink="http://www.w3.org/1999/xlink" x="0px" y="0px"
	 viewBox="0 0 26 26" style="enable-background:new 0 0 26 26;" xml:space="preserve">
<g>
	<g>
		<path d="M13.8,16.4c-1.1,0-2.2-0.4-3-1.2c-0.4-0.4-0.4-1.2,0-1.6c0.4-0.4,1.2-0.4,1.6,0c0.8,0.8,2.1,0.7,3-0.2L19,9.8
			c0.5-0.5,0.8-1.1,0.8-1.7c0-0.4-0.1-0.9-0.6-1.3c-0.5-0.5-1.1-0.6-1.4-0.6c-0.6,0-1.1,0.3-1.6,0.7L14.1,9c-0.5-0.5-2.4-0.8-3-0.3
			l3.4-3.4c0.8-0.8,2-1.3,3.1-1.4c1.2-0.1,2.3,0.4,3.2,1.2c0.8,0.8,1.2,1.8,1.2,3c0,1.2-0.5,2.4-1.4,3.3l-3.5,3.5
			C16.2,15.9,15,16.4,13.8,16.4z"/>
	</g>
	<g>
		<path d="M12.2,9.6c1.1,0,2.2,0.4,3,1.2c0.4,0.4,0.4,1.2,0,1.6s-1.2,0.4-1.6,0c-0.8-0.8-2.1-0.7-3,0.2L7,16.2
			c-0.5,0.5-0.8,1.1-0.8,1.7c0,0.4,0.1,0.9,0.6,1.3c0.5,0.5,1.1,0.6,1.4,0.6c0.6,0,1.1-0.3,1.6-0.7l2.1-2.1c0.5,0.5,2.4,0.8,3,0.3
			l-3.4,3.4c-0.8,0.8-2,1.3-3.1,1.4c-1.2,0.1-2.3-0.4-3.2-1.2c-0.8-0.8-1.2-1.8-1.2-3c0-1.2,0.5-2.4,1.4-3.3l3.5-3.5
			C9.8,10.1,11,9.6,12.2,9.6z"/>
	</g>
</g>
</svg>
