<?xml version="1.0"?>
<svg xmlns="http://www.w3.org/2000/svg" viewBox="0 0 24 24" fill="#ef6118" width="96px" height="96px">
    <path d="M 12 2 C 6.486 2 2 6.486 2 12 C 2 17.514 6.486 22 12 22 C 17.514 22 22 17.514 22 12 C 22 6.486 17.514 2 12 2 z M 9 7 L 13 7 C 14.654 7 16 8.346 16 10 C 16 11.421 15.004781 12.609969 13.675781 12.917969 L 16.009766 17 L 13.705078 17 L 11.419922 13 L 11 13 L 11 17 L 9 17 L 9 7 z M 11 9 L 11 11 L 13 11 C 13.551 11 14 10.552 14 10 C 14 9.448 13.551 9 13 9 L 11 9 z" fill="#ef6118"/>
</svg>
