<?xml version="1.0" encoding="utf-8"?>
<!-- Generator: Adobe Illustrator 23.0.3, SVG Export Plug-In . SVG Version: 6.00 Build 0)  -->
<svg version="1.1" id="Layer_1" xmlns="http://www.w3.org/2000/svg" xmlns:xlink="http://www.w3.org/1999/xlink" x="0px" y="0px"
	 viewBox="0 0 32 32" style="enable-background:new 0 0 32 32;" xml:space="preserve">
<g>
	<polygon points="25,20 23.3,20 23,20 23,21.9 23,23 20,23 20,25 23,25 23,28 25,28 25,25 28,25 28,23 25,23 	"/>
	<path d="M24,16c-1.7,0-3.2,0.5-4.5,1.4l-1.3-1.3c0-0.1,0.1-0.2,0.1-0.4l2.9-1.4c0.4,0.3,1,0.5,1.5,0.4c1.2-0.1,2.1-1.3,2-2.5
		c-0.1-1.2-1.3-2.1-2.5-2c-1.1,0.1-1.9,1-2,2l-2.9,1.4c-0.1-0.1-0.2-0.2-0.4-0.2l-0.3-2.9c0.6-0.5,1-1.2,0.9-2.1
		c-0.1-1.2-1.3-2.1-2.5-2c-1.2,0.1-2.1,1.3-2,2.5c0.1,0.8,0.6,1.5,1.3,1.8l0.3,2.9c-0.1,0.1-0.2,0.2-0.3,0.3l-3.2-0.7
		c-0.3-1-1.3-1.7-2.4-1.5c-1.2,0.1-2.1,1.3-2,2.5c0.1,1.2,1.3,2.1,2.5,2c0.6-0.1,1.1-0.3,1.4-0.7l3.2,0.7c0,0.1,0.1,0.2,0.2,0.3
		l-1.8,2.8c-0.1,0-0.2,0-0.3,0c-1.2,0.1-2.1,1.3-2,2.5c0.1,1.2,1.3,2.1,2.5,2c1.2-0.1,2.1-1.3,2-2.5c0-0.3-0.1-0.6-0.2-0.8l1.8-2.8
		c0.1,0,0.2,0,0.3,0c0.1,0,0.2,0,0.3-0.1l1.2,1.2C16.7,20.3,16,22.1,16,24c0,4.4,3.6,8,8,8s8-3.6,8-8C32,19.6,28.4,16,24,16z M24,30
		c-3.3,0-6-2.7-6-6c0-1.2,0.3-2.3,0.9-3.2c0.7-1,1.6-1.9,2.8-2.3c0.7-0.3,1.5-0.5,2.3-0.5c3.3,0,6,2.7,6,6S27.3,30,24,30z"/>
</g>
</svg>
