<?xml version="1.0" encoding="utf-8"?>
<!-- Generator: Adobe Illustrator 23.0.1, SVG Export Plug-In . SVG Version: 6.00 Build 0)  -->
<svg version="1.1" id="Layer_1" xmlns="http://www.w3.org/2000/svg" xmlns:xlink="http://www.w3.org/1999/xlink" x="0px" y="0px"
	 viewBox="0 0 32 32" style="enable-background:new 0 0 32 32;" xml:space="preserve">
<path d="M9.4,16.6c0.6,0,1.1-0.2,1.5-0.6l3.1,1c0,0.1,0.1,0.2,0.1,0.4L11.9,20c-0.1,0-0.2,0-0.3,0c-1.2,0-2.3,1-2.3,2.3
	c0,1.2,1,2.3,2.3,2.3s2.3-1,2.3-2.3c0-0.3-0.1-0.6-0.2-0.8l2.1-2.6c0.1,0,0.2,0,0.3,0c0.1,0,0.2,0,0.3,0l2.1,2.6
	c-0.1,0.3-0.2,0.5-0.2,0.8c0,1.2,1,2.3,2.3,2.3s2.3-1,2.3-2.3c0-1.2-1-2.3-2.3-2.3c-0.1,0-0.2,0-0.3,0l-2.1-2.6
	c0-0.1,0.1-0.2,0.1-0.4l3.1-1c0.4,0.4,0.9,0.6,1.5,0.6c1.2,0,2.3-1,2.3-2.3c0-1.2-1-2.3-2.3-2.3c-1.1,0-2,0.8-2.2,1.8l-3.1,1
	c-0.1-0.1-0.2-0.2-0.4-0.3v-2.9c0.7-0.4,1.1-1.1,1.1-1.9c0-1.2-1-2.3-2.3-2.3s-2.3,1-2.3,2.3c0,0.8,0.5,1.5,1.1,1.9v2.9
	c-0.1,0.1-0.2,0.2-0.4,0.3l-3.1-1c-0.2-1-1.1-1.8-2.2-1.8c-1.2,0-2.3,1-2.3,2.3C7.1,15.6,8.1,16.6,9.4,16.6z"/>
</svg>
