<?xml version="1.0" encoding="UTF-8"?>
<svg xmlns="http://www.w3.org/2000/svg" xmlns:xlink="http://www.w3.org/1999/xlink" viewBox="0 0 32 32" version="1.1" width="96px" height="96px">
<g id="surface1">
<path style=" " d="M 7 4 L 7 10 L 3 10 L 3 23 C 3 24.644531 4.355469 26 6 26 L 14.21875 26 C 14.085938 25.351563 14 24.683594 14 24 L 8.8125 24 C 8.925781 23.683594 9 23.351563 9 23 L 9 6 L 25 6 L 25 14.0625 C 25.691406 14.132813 26.359375 14.265625 27 14.46875 L 27 4 Z M 11 8 L 11 13 L 23 13 L 23 8 Z M 13 10 L 21 10 L 21 11 L 13 11 Z M 5 12 L 7 12 L 7 23 C 7 23.554688 6.554688 24 6 24 C 5.445313 24 5 23.554688 5 23 Z M 11 14 L 11 16 L 16 16 L 16 14 Z M 18 14 L 18 16 L 18.03125 16 C 19.449219 14.9375 21.144531 14.246094 23 14.0625 L 23 14 Z M 24 16 C 19.589844 16 16 19.589844 16 24 C 16 28.070313 19.058594 31.441406 23 31.9375 L 23 29.90625 C 20.167969 29.429688 18 26.96875 18 24 C 18 20.691406 20.691406 18 24 18 C 27.308594 18 30 20.691406 30 24 C 30 25.765625 29.21875 27.339844 28 28.4375 L 28 26 L 26 26 L 26 32 L 32 32 L 32 30 L 29.28125 30 C 30.949219 28.535156 32 26.390625 32 24 C 32 19.589844 28.410156 16 24 16 Z M 11 17 L 11 19 L 15.34375 19 C 15.539063 18.660156 15.765625 18.34375 16 18.03125 L 16 17 Z M 11 20 L 11 22 L 14.1875 22 C 14.328125 21.304688 14.566406 20.636719 14.84375 20 Z "/>
</g>
</svg>
