<?xml version="1.0" encoding="UTF-8"?>
<svg xmlns="http://www.w3.org/2000/svg" xmlns:xlink="http://www.w3.org/1999/xlink" viewBox="0 0 32 32" version="1.1" fill="#ffffff" width="32px" height="32px">
<g id="surface1" fill="#ffffff">
<path style=" " d="M 5 5 L 5 27 L 19.96875 27 L 17.96875 25 L 11 25 L 11 18 L 14.15625 18 L 13.75 16.125 L 13.75 16 L 9 16 L 9 25 L 7 25 L 7 7 L 10 7 L 10 13 L 22 13 L 22 7.40625 L 25 10.40625 L 25 17.96875 L 27 19.96875 L 27 9.59375 L 22.40625 5 Z M 12 7 L 16 7 L 16 9 L 18 9 L 18 7 L 20 7 L 20 11 L 12 11 Z M 15.71875 15.71875 L 16.03125 17.1875 L 16.71875 20.6875 L 16.78125 21 L 17 21.21875 L 26.90625 31.09375 C 28.058594 32.246094 29.941406 32.246094 31.09375 31.09375 C 32.246094 29.941406 32.246094 28.058594 31.09375 26.90625 L 21.21875 17 L 21 16.78125 L 20.6875 16.71875 L 17.1875 16.03125 Z M 18.28125 18.28125 L 20 18.625 L 29.6875 28.3125 C 30.132813 28.757813 30.132813 29.242188 29.6875 29.6875 C 29.242188 30.132813 28.757813 30.132813 28.3125 29.6875 L 18.625 20 Z " fill="#ffffff"/>
</g>
</svg>
