<?xml version="1.0"?>
<svg xmlns="http://www.w3.org/2000/svg" xmlns:xlink="http://www.w3.org/1999/xlink" version="1.1" viewBox="0 0 251 251" width="96px" height="96px"><g transform=""><g fill="none" fill-rule="nonzero" stroke="none" stroke-width="1" stroke-linecap="butt" stroke-linejoin="miter" stroke-miterlimit="10" stroke-dasharray="" stroke-dashoffset="0" font-family="none" font-weight="none" font-size="none" text-anchor="none" style="mix-blend-mode: normal"><path d="M0,251.98863v-251.98863h251.98863v251.98863z" fill="none"/><path d="M0.49432,125.99432c0,-69.31174 56.18826,-125.5 125.5,-125.5c69.31174,0 125.5,56.18826 125.5,125.5c0,69.31174 -56.18826,125.5 -125.5,125.5c-69.31174,0 -125.5,-56.18826 -125.5,-125.5zM125.99432,246.47432c66.53927,0 120.48,-53.94073 120.48,-120.48c0,-66.53927 -53.94073,-120.48 -120.48,-120.48c-66.53927,0 -120.48,53.94073 -120.48,120.48c0,66.53927 53.94073,120.48 120.48,120.48z" fill="#a7a9ac"/><g id="original-icon" fill="#606266"><g id="surface1"><path d="M125.5,56.475c-24.19307,0 -43.925,19.73193 -43.925,43.925c0,15.12373 7.72119,28.55615 19.41328,36.47344c-22.3792,9.60859 -38.23828,31.81621 -38.23828,57.65156h12.55c0,-18.13867 9.58408,-33.92422 23.92344,-42.74844c4.21602,10.34395 14.48643,17.64844 26.27656,17.64844c11.79014,0 22.06055,-7.30449 26.27656,-17.64844c14.33935,8.82422 23.92344,24.60977 23.92344,42.74844h12.55c0,-25.83535 -15.85908,-48.04297 -38.23828,-57.65156c11.69209,-7.91729 19.41328,-21.34971 19.41328,-36.47344c0,-24.19307 -19.73193,-43.925 -43.925,-43.925zM125.5,69.025c17.40332,0 31.375,13.97168 31.375,31.375c0,17.40332 -13.97168,31.375 -31.375,31.375c-17.40332,0 -31.375,-13.97168 -31.375,-31.375c0,-17.40332 13.97168,-31.375 31.375,-31.375zM125.5,144.325c5.14746,0 10.04981,0.73535 14.70703,2.15703c-2.18154,6.0544 -7.86826,10.39297 -14.70703,10.39297c-6.83877,0 -12.52549,-4.33857 -14.70703,-10.39297c4.65723,-1.42168 9.55957,-2.15703 14.70703,-2.15703z"/></g></g><path d="M125.99432,251.49432c-69.31174,0 -125.5,-56.18826 -125.5,-125.5v0c0,-69.31174 56.18826,-125.5 125.5,-125.5v0c69.31174,0 125.5,56.18826 125.5,125.5v0c0,69.31174 -56.18826,125.5 -125.5,125.5z" fill="none"/><path d="M125.99432,246.47432c-66.53927,0 -120.48,-53.94073 -120.48,-120.48v0c0,-66.53927 53.94073,-120.48 120.48,-120.48h0c66.53927,0 120.48,53.94073 120.48,120.48v0c0,66.53927 -53.94073,120.48 -120.48,120.48z" fill="none"/><path d="M125.99432,251.49432c-69.31174,0 -125.5,-56.18826 -125.5,-125.5v0c0,-69.31174 56.18826,-125.5 125.5,-125.5v0c69.31174,0 125.5,56.18826 125.5,125.5v0c0,69.31174 -56.18826,125.5 -125.5,125.5z" fill="none"/><path d="M125.99432,246.47432c-66.53927,0 -120.48,-53.94073 -120.48,-120.48v0c0,-66.53927 53.94073,-120.48 120.48,-120.48h0c66.53927,0 120.48,53.94073 120.48,120.48v0c0,66.53927 -53.94073,120.48 -120.48,120.48z" fill="none"/><path d="M125.99432,251.49432c-69.31174,0 -125.5,-56.18826 -125.5,-125.5v0c0,-69.31174 56.18826,-125.5 125.5,-125.5v0c69.31174,0 125.5,56.18826 125.5,125.5v0c0,69.31174 -56.18826,125.5 -125.5,125.5z" fill="none"/><path d="M125.99432,246.47432c-66.53927,0 -120.48,-53.94073 -120.48,-120.48v0c0,-66.53927 53.94073,-120.48 120.48,-120.48h0c66.53927,0 120.48,53.94073 120.48,120.48v0c0,66.53927 -53.94073,120.48 -120.48,120.48z" fill="none"/><path d="M125.99432,251.49432c-69.31174,0 -125.5,-56.18826 -125.5,-125.5v0c0,-69.31174 56.18826,-125.5 125.5,-125.5v0c69.31174,0 125.5,56.18826 125.5,125.5v0c0,69.31174 -56.18826,125.5 -125.5,125.5z" fill="none"/><path d="M125.99432,246.47432c-66.53927,0 -120.48,-53.94073 -120.48,-120.48v0c0,-66.53927 53.94073,-120.48 120.48,-120.48h0c66.53927,0 120.48,53.94073 120.48,120.48v0c0,66.53927 -53.94073,120.48 -120.48,120.48z" fill="none"/><path d="M125.99432,251.49432c-69.31174,0 -125.5,-56.18826 -125.5,-125.5v0c0,-69.31174 56.18826,-125.5 125.5,-125.5v0c69.31174,0 125.5,56.18826 125.5,125.5v0c0,69.31174 -56.18826,125.5 -125.5,125.5z" fill="none"/><path d="M125.99432,246.47432c-66.53927,0 -120.48,-53.94073 -120.48,-120.48v0c0,-66.53927 53.94073,-120.48 120.48,-120.48h0c66.53927,0 120.48,53.94073 120.48,120.48v0c0,66.53927 -53.94073,120.48 -120.48,120.48z" fill="none"/><path d="M125.99432,251.49432c-69.31174,0 -125.5,-56.18826 -125.5,-125.5v0c0,-69.31174 56.18826,-125.5 125.5,-125.5v0c69.31174,0 125.5,56.18826 125.5,125.5v0c0,69.31174 -56.18826,125.5 -125.5,125.5z" fill="none"/><path d="M125.99432,246.47432c-66.53927,0 -120.48,-53.94073 -120.48,-120.48v0c0,-66.53927 53.94073,-120.48 120.48,-120.48h0c66.53927,0 120.48,53.94073 120.48,120.48v0c0,66.53927 -53.94073,120.48 -120.48,120.48z" fill="none"/><path d="M125.99432,251.49432c-69.31174,0 -125.5,-56.18826 -125.5,-125.5v0c0,-69.31174 56.18826,-125.5 125.5,-125.5v0c69.31174,0 125.5,56.18826 125.5,125.5v0c0,69.31174 -56.18826,125.5 -125.5,125.5z" fill="none"/><path d="M125.99432,246.47432c-66.53927,0 -120.48,-53.94073 -120.48,-120.48v0c0,-66.53927 53.94073,-120.48 120.48,-120.48h0c66.53927,0 120.48,53.94073 120.48,120.48v0c0,66.53927 -53.94073,120.48 -120.48,120.48z" fill="none"/><path d="M125.99432,251.49432c-69.31174,0 -125.5,-56.18826 -125.5,-125.5v0c0,-69.31174 56.18826,-125.5 125.5,-125.5v0c69.31174,0 125.5,56.18826 125.5,125.5v0c0,69.31174 -56.18826,125.5 -125.5,125.5z" fill="none"/><path d="M125.99432,246.47432c-66.53927,0 -120.48,-53.94073 -120.48,-120.48v0c0,-66.53927 53.94073,-120.48 120.48,-120.48h0c66.53927,0 120.48,53.94073 120.48,120.48v0c0,66.53927 -53.94073,120.48 -120.48,120.48z" fill="none"/><path d="M125.99432,251.49432c-69.31174,0 -125.5,-56.18826 -125.5,-125.5v0c0,-69.31174 56.18826,-125.5 125.5,-125.5v0c69.31174,0 125.5,56.18826 125.5,125.5v0c0,69.31174 -56.18826,125.5 -125.5,125.5z" fill="none"/><path d="M125.99432,246.47432c-66.53927,0 -120.48,-53.94073 -120.48,-120.48v0c0,-66.53927 53.94073,-120.48 120.48,-120.48h0c66.53927,0 120.48,53.94073 120.48,120.48v0c0,66.53927 -53.94073,120.48 -120.48,120.48z" fill="none"/><path d="" fill="none"/><path d="" fill="none"/><path d="M125.99432,251.49432c-69.31174,0 -125.5,-56.18826 -125.5,-125.5v0c0,-69.31174 56.18826,-125.5 125.5,-125.5v0c69.31174,0 125.5,56.18826 125.5,125.5v0c0,69.31174 -56.18826,125.5 -125.5,125.5z" fill="none"/><path d="M125.99432,246.47432c-66.53927,0 -120.48,-53.94073 -120.48,-120.48v0c0,-66.53927 53.94073,-120.48 120.48,-120.48h0c66.53927,0 120.48,53.94073 120.48,120.48v0c0,66.53927 -53.94073,120.48 -120.48,120.48z" fill="none"/></g></g></svg>
