<?xml version="1.0" encoding="utf-8"?>
<!-- Generator: Adobe Illustrator 23.0.1, SVG Export Plug-In . SVG Version: 6.00 Build 0)  -->
<svg version="1.1" id="Layer_1" xmlns="http://www.w3.org/2000/svg" xmlns:xlink="http://www.w3.org/1999/xlink" x="0px" y="0px"
	 viewBox="0 0 32 32" style="enable-background:new 0 0 32 32;" xml:space="preserve">
<g>
	<path d="M2.9,7.9h3.5v11.2c0,0.2,0.1,0.4,0.2,0.5c0.1,0.1,0.3,0.2,0.5,0.2h0.9c0.2,0,0.4-0.1,0.5-0.2c0.1-0.1,0.2-0.3,0.2-0.5V7.9
		h3.5c0.2,0,0.4-0.1,0.5-0.2C13,7.5,13,7.3,13,7.1V6.4C13,6.2,13,6,12.8,5.9c-0.1-0.1-0.3-0.2-0.5-0.2H2.9c-0.2,0-0.4,0.1-0.5,0.2
		C2.3,6,2.2,6.2,2.2,6.4v0.8c0,0.2,0.1,0.4,0.2,0.5C2.6,7.8,2.7,7.9,2.9,7.9z"/>
	<polygon points="24.6,19.2 21.9,16 20.3,17.3 22.4,19.9 20.3,22.5 21.9,23.8 24.6,20.6 25.2,19.9 	"/>
	<polygon points="15.7,26.4 17.9,26.4 20,13.4 17.9,13.4 	"/>
	<polygon points="13.8,16 11.1,19.2 10.5,19.9 11.1,20.6 13.8,23.8 15.5,22.5 13.4,19.9 15.5,17.3 	"/>
	<polygon points="4.2,21 2.2,21 2.2,24.4 2.2,26.1 2.2,26.4 10.5,26.4 10.5,24.4 4.2,24.4 	"/>
	<path d="M29.8,12.2l-6.6-6.6l0,0v0h-9v2h7.6v4v2h2h4.1v10.8h-2.6v2h2.6h2v-2L29.8,12.2L29.8,12.2z M23.7,9l2.7,2.7h-2.7V9z"/>
</g>
</svg>
