<?xml version="1.0" encoding="utf-8"?>
<!-- Generator: Adobe Illustrator 23.0.1, SVG Export Plug-In . SVG Version: 6.00 Build 0)  -->
<svg version="1.1" id="Layer_1" xmlns="http://www.w3.org/2000/svg" xmlns:xlink="http://www.w3.org/1999/xlink" x="0px" y="0px"
	 viewBox="0 0 32 32" style="enable-background:new 0 0 32 32;" xml:space="preserve">
<g>
	<path d="M2.9,19.5h1c0.2,0,0.4-0.1,0.5-0.2c0.1-0.1,0.2-0.3,0.2-0.5v-4.5h3.2c1.5,0,2.7-0.4,3.5-1.1c0.9-0.7,1.3-1.8,1.3-3.2
		c0-1.4-0.4-2.5-1.3-3.2C10.4,6,9.2,5.6,7.7,5.6H2.9c-0.2,0-0.4,0.1-0.5,0.2C2.3,6,2.2,6.1,2.2,6.3v12.4c0,0.2,0.1,0.4,0.2,0.5
		C2.5,19.4,2.7,19.5,2.9,19.5z M4.5,7.7h3.1c0.9,0,1.6,0.2,2,0.6c0.4,0.4,0.6,0.9,0.6,1.7c0,1.5-0.8,2.2-2.6,2.2H4.5V7.7z"/>
	<polygon points="24.6,19.2 21.9,16 20.3,17.3 22.4,19.9 20.3,22.5 21.9,23.8 24.6,20.6 25.2,19.9 	"/>
	<polygon points="15.7,26.4 17.9,26.4 20,13.4 17.9,13.4 	"/>
	<polygon points="13.8,16 11.1,19.2 10.5,19.9 11.1,20.6 13.8,23.8 15.5,22.5 13.4,19.9 15.5,17.3 	"/>
	<polygon points="4.2,21 2.2,21 2.2,24.4 2.2,26.4 4.2,26.4 10.5,26.4 10.5,24.4 4.2,24.4 	"/>
	<path d="M29.8,12.2l-6.6-6.6l0,0v0h-9v2h7.6v4v2h2h4.1v10.8h-2.6v2h2.6h2v-2L29.8,12.2L29.8,12.2z M23.7,9l2.7,2.7h-2.7V9z"/>
</g>
</svg>
