<?xml version="1.0" encoding="utf-8"?>
<!-- Generator: Adobe Illustrator 23.0.1, SVG Export Plug-In . SVG Version: 6.00 Build 0)  -->
<svg version="1.1" id="Layer_1" xmlns="http://www.w3.org/2000/svg" xmlns:xlink="http://www.w3.org/1999/xlink" x="0px" y="0px"
	 viewBox="0 0 32 32" style="enable-background:new 0 0 32 32;" xml:space="preserve">
<g>
	<polygon points="24.6,19.2 21.9,16 20.3,17.3 22.4,19.9 20.3,22.5 21.9,23.8 24.6,20.6 25.2,19.9 	"/>
	<polygon points="15.7,26.4 17.9,26.4 20,13.4 17.9,13.4 	"/>
	<polygon points="13.8,16 11.1,19.2 10.5,19.9 11.1,20.6 13.8,23.8 15.5,22.5 13.4,19.9 15.5,17.3 	"/>
	<polygon points="4.2,18.8 2.2,18.8 2.2,24.4 2.2,26.4 4.2,26.4 10.5,26.4 10.5,24.4 4.2,24.4 	"/>
	<polygon points="7,17.2 9,17.2 9,12.3 13.8,12.3 13.8,10.3 9,10.3 9,5.6 7,5.6 7,10.3 2.2,10.3 2.2,12.3 7,12.3 	"/>
	<path d="M29.8,12.2l-6.6-6.6l0,0v0h-7.7v2h6.3v4v2h2h4.1v10.8h-2.6v2h2.6h2v-2L29.8,12.2L29.8,12.2z M23.7,9l2.7,2.7h-2.7V9z"/>
</g>
</svg>
