<?xml version="1.0" encoding="UTF-8"?>
<svg xmlns="http://www.w3.org/2000/svg" xmlns:xlink="http://www.w3.org/1999/xlink" viewBox="0 0 32 32" version="1.1" width="96px" height="96px">
<g id="surface1">
<path style=" " d="M 9 4.59375 L 8.28125 5.28125 L 3.28125 10.28125 L 4.71875 11.71875 L 8 8.4375 L 8 14.5 C 8 16.972656 10.027344 19 12.5 19 C 13.890625 19 15 20.109375 15 21.5 L 15 28 L 17 28 L 17 21.5 C 17 19.027344 14.972656 17 12.5 17 C 11.109375 17 10 15.890625 10 14.5 L 10 8.4375 L 13.28125 11.71875 L 14.71875 10.28125 L 9.71875 5.28125 Z M 23 4.59375 L 22.28125 5.28125 L 17.28125 10.28125 L 18.71875 11.71875 L 22 8.4375 L 22 14.5 C 22 15.878906 20.878906 17 19.5 17 C 18.628906 17 17.816406 17.257813 17.125 17.6875 C 17.546875 18.199219 17.890625 18.773438 18.125 19.40625 C 18.519531 19.144531 18.988281 19 19.5 19 C 21.980469 19 24 16.980469 24 14.5 L 24 8.4375 L 27.28125 11.71875 L 28.71875 10.28125 L 23.71875 5.28125 Z "/>
</g>
</svg>
