<?xml version="1.0" encoding="utf-8"?>
<!-- Generator: Adobe Illustrator 25.1.0, SVG Export Plug-In . SVG Version: 6.00 Build 0)  -->
<svg version="1.1" id="Layer_1" xmlns="http://www.w3.org/2000/svg" xmlns:xlink="http://www.w3.org/1999/xlink" x="0px" y="0px"
	 viewBox="0 0 32 32" style="enable-background:new 0 0 32 32;" xml:space="preserve">
<g>
	<path d="M27.8,20.3c-0.5-1.4-1.9-2.3-3.4-2.1h0l-5.5,0.9c0,0,0,0-0.1,0c0,0,0,0-0.1,0l-0.3-0.2l0,0c-0.1-0.1-0.2-0.1-0.2-0.2
		c-0.5-0.3-1.2-0.7-1.9-1.1c-1.5-0.8-3.2-1.5-4.9-1.5C8.3,16,4,17.8,4,17.8l0.7,1.9c0,0,4.3-1.6,6.7-1.6c1,0,2.6,0.6,4,1.3
		c0.7,0.3,1.3,0.7,1.7,1c0.2,0.1,0.4,0.3,0.5,0.4c0,0,0,0,0,0c0,0,0.1,0.1,0.1,0.1l0.1,0.1c0.1,0.2,0.1,0.5,0,0.8
		C17.7,22,17.3,22.1,17,22l-4.4-2.1l-0.9,1.8l4.5,2.1l0.1,0c1.2,0.4,2.5,0,3.2-1h0v0c0.4-0.6,0.5-1.2,0.5-1.9l4.8-0.8h0
		c0.5-0.1,1,0.2,1.2,0.7c0.2,0.5-0.1,1.1-0.6,1.3c-1.5,0.6-3.8,1.6-6,2.4c-1.1,0.4-2.1,0.8-2.8,1c-0.4,0.1-0.7,0.2-1,0.3
		c-0.2,0-0.3,0.1-0.4,0.1c0,0-0.4-0.1-0.8-0.3c-0.5-0.3-1-0.6-1.6-1s-1.2-0.8-1.8-1.1S9.9,23,9.2,23c-1.6,0-3.1,0.6-3.1,0.6l0.8,1.8
		c0,0,1.2-0.5,2.3-0.5c0,0,0.4,0.1,0.9,0.4s1.1,0.6,1.6,1s1.2,0.8,1.8,1.1s1.1,0.6,1.8,0.6c0.3,0,0.5-0.1,0.9-0.1s0.7-0.2,1.1-0.3
		c0.8-0.3,1.8-0.6,2.9-1c2.2-0.8,4.5-1.8,6.1-2.4C27.6,23.4,28.3,21.8,27.8,20.3z"/>
	<path d="M16.4,11.3l-1.5,1.5l1.4,1.4l1.5-1.5c0.3,0.2,0.6,0.3,1,0.4v2.2h2v-2.2c0.4-0.1,0.7-0.2,1-0.4l1.5,1.5l1.4-1.4l-1.5-1.5
		c0.2-0.3,0.3-0.7,0.4-1h2.2v-2h-2.2c-0.1-0.4-0.2-0.7-0.4-1l1.5-1.5l-1.4-1.4l-1.5,1.5c-0.3-0.2-0.6-0.3-1-0.4V3.3h-2v2.2
		c-0.4,0.1-0.7,0.2-1,0.4l-1.5-1.5l-1.4,1.4l1.5,1.5c-0.2,0.3-0.3,0.7-0.4,1h-2.2v2H16C16.1,10.6,16.2,11,16.4,11.3z M18.3,7.9
		c0.3-0.4,0.8-0.6,1.5-0.6s1.2,0.2,1.5,0.6c0.3,0.4,0.5,0.9,0.5,1.4s-0.2,1-0.5,1.4c-0.3,0.4-0.8,0.6-1.5,0.6s-1.2-0.2-1.5-0.6
		c-0.3-0.4-0.5-0.9-0.5-1.4S18,8.2,18.3,7.9z"/>
</g>
</svg>
