<?xml version="1.0" encoding="utf-8"?>
<!-- Generator: Adobe Illustrator 22.1.0, SVG Export Plug-In . SVG Version: 6.00 Build 0)  -->
<svg version="1.1" id="Layer_1" xmlns="http://www.w3.org/2000/svg" xmlns:xlink="http://www.w3.org/1999/xlink" x="0px" y="0px"
	 viewBox="0 0 800 800" style="enable-background:new 0 0 800 800;" xml:space="preserve">
<style type="text/css">
	.st0{fill:#FFFFFF;}
</style>
<g>
	<rect x="405.4" y="463.9" width="31.4" height="30.7"/>
	<rect x="436.8" y="432.5" width="31.4" height="31.4"/>
	<polygon points="436.8,495.3 436.8,526 468,526 468,495.3 	"/>
	<rect x="468.1" y="401.2" width="31.4" height="31.4"/>
	<polygon points="374,494.6 374,463.9 405.4,463.9 405.4,432.5 436.8,432.5 436.8,401.2 468.1,401.2 468.1,369.8 499.5,369.8 
		499.5,338.4 530.8,338.4 530.8,307.2 514.9,287 499.5,306.9 484.6,287 468.2,306.9 452.7,287 437.6,307.2 422.5,287 405.6,306.9 
		390.6,286.8 374.3,306.9 358.7,286.8 343,306.9 327.6,286.8 311.7,306.9 294.9,286.7 280.4,306.9 280.4,525.9 343.1,525.9 
		343.1,494.6 	"/>
	<polygon points="374.5,495.3 374.5,525.9 405.4,525.9 405.4,495.3 	"/>
	<rect x="499.5" y="432.5" width="31.4" height="31.1"/>
	<rect x="499.5" y="369.8" width="31.4" height="31.4"/>
	<polygon points="499.5,463.9 468.1,463.9 468.1,494.6 499.4,494.6 499.4,526 530.8,526 530.8,495 499.5,495 	"/>
	<rect x="468" y="494.6" class="st0" width="0.1" height="0.6"/>
	<rect x="374" y="494.6" class="st0" width="0.5" height="0.6"/>
	<polygon points="530.8,256.4 509.2,243.9 509.2,253.3 288.9,253.3 288.9,243.9 267.2,256.4 288.9,268.9 288.9,259.5 509.2,259.5 
		509.2,268.9 	"/>
	<polygon points="253.4,298.5 262.8,298.5 250.3,276.8 237.7,298.5 247.1,298.5 246.8,504.3 237.5,504.3 250,526 262.5,504.3 
		253.1,504.3 	"/>
</g>
</svg>
