<?xml version="1.0"?>
<svg xmlns="http://www.w3.org/2000/svg" xmlns:xlink="http://www.w3.org/1999/xlink" version="1.1" viewBox="0 0 252 252" width="50px" height="50px"><g fill="none" fill-rule="nonzero" stroke="none" stroke-width="1" stroke-linecap="butt" stroke-linejoin="miter" stroke-miterlimit="10" stroke-dasharray="" stroke-dashoffset="0" font-family="none" font-weight="none" font-size="none" text-anchor="none" style="mix-blend-mode: normal"><path d="M0,252v-252h252v252z" fill="none"/><path d="M61.488,226.8c-20.04131,0 -36.288,-16.24669 -36.288,-36.288v-129.024c0,-20.04131 16.24669,-36.288 36.288,-36.288h129.024c20.04131,0 36.288,16.24669 36.288,36.288v129.024c0,20.04131 -16.24669,36.288 -36.288,36.288z" fill="#ffffff"/><g fill="#cccccc"><g id="surface1"><path d="M196.56,20.16h-141.12c-19.64812,0 -35.28,15.63188 -35.28,35.28v141.12c0,19.64813 15.63188,35.28 35.28,35.28h141.12c19.64813,0 35.28,-15.63187 35.28,-35.28v-141.12c0,-19.64812 -15.63187,-35.28 -35.28,-35.28zM211.68,196.56c0,8.56406 -6.55594,15.12 -15.12,15.12h-141.12c-8.56406,0 -15.12,-6.55594 -15.12,-15.12v-141.12c0,-8.56406 6.55594,-15.12 15.12,-15.12h141.12c8.56406,0 15.12,6.55594 15.12,15.12z"/></g></g></g></svg>
