<?xml version="1.0" encoding="UTF-8"?>
<svg xmlns="http://www.w3.org/2000/svg" xmlns:xlink="http://www.w3.org/1999/xlink" viewBox="0 0 32 32" version="1.1" width="96px" height="96px">
<g id="surface1">
<path style=" " d="M 6 5 L 6 7 L 5 7 L 5 9 L 6 9 L 6 11 L 5 11 L 5 13 L 6 13 L 6 15 L 5 15 L 5 17 L 6 17 L 6 19 L 5 19 L 5 21 L 6 21 L 6 23 L 5 23 L 5 25 L 6 25 L 6 27 L 8 27 C 8 26.203125 8.726563 24.570313 10 22.71875 C 10.382813 22.164063 10.820313 21.59375 11.28125 21 L 12 21 L 12 23 L 11 23 C 11 23 9.84375 24.585938 9.84375 25 L 12 25 L 12 27 L 14 27 C 14 26.566406 14.242188 25.847656 14.65625 25 L 17 25 L 17 23 L 15.8125 23 C 15.878906 22.902344 15.933594 22.816406 16 22.71875 C 16.378906 22.167969 16.800781 21.589844 17.25 21 L 20 21 L 20 19 L 18.8125 19 C 19.347656 18.335938 19.882813 17.675781 20.4375 17 L 23 17 L 23 15 L 22.0625 15 C 22.605469 14.328125 23.144531 13.65625 23.65625 13 L 26 13 L 26 11 L 25.15625 11 C 25.304688 10.789063 25.484375 10.582031 25.625 10.375 C 25.949219 9.90625 26.253906 9.445313 26.53125 9 L 28.46875 9 L 28.46875 7 L 27.5625 7 C 27.828125 6.324219 28 5.660156 28 5 L 26 5 C 26 5.421875 25.738281 6.140625 25.3125 7 L 22.5625 7 C 22.222656 7.945313 21.5625 9 21.5625 9 L 24.15625 9 C 24.097656 9.085938 24.058594 9.164063 24 9.25 C 23.613281 9.808594 23.179688 10.398438 22.71875 11 L 20.46875 11 L 18.90625 13 L 21.125 13 C 20.589844 13.660156 20.054688 14.324219 19.5 15 L 17.46875 15 L 15.90625 17 L 17.875 17 C 17.335938 17.667969 16.820313 18.347656 16.3125 19 L 15 19 L 15 20.75 C 14.792969 21.035156 14.566406 21.316406 14.375 21.59375 C 14.242188 21.789063 14.125 21.96875 14 22.15625 L 14 17.59375 C 14.265625 17.269531 14.511719 16.949219 14.78125 16.625 C 16.53125 14.503906 18.273438 12.367188 19.625 10.40625 C 20.976563 8.445313 22 6.714844 22 5 L 20 5 C 20 5.433594 19.757813 6.152344 19.34375 7 L 18 7 L 18 9 L 18.1875 9 C 18.121094 9.097656 18.066406 9.183594 18 9.28125 C 16.917969 10.847656 15.476563 12.617188 14 14.40625 L 14 13 L 15 13 L 15 11 L 14 11 L 14 9 L 15 9 L 15 7 L 14 7 L 14 5 L 12 5 L 12 7 L 9 7 L 9 9 L 12 9 L 12 11 L 9 11 L 9 13 L 12 13 L 12 15 L 9 15 L 9 17 L 11.875 17 C 11.328125 17.671875 10.796875 18.339844 10.28125 19 L 9 19 L 9 20.71875 C 8.796875 21 8.5625 21.289063 8.375 21.5625 C 8.242188 21.757813 8.125 21.933594 8 22.125 L 8 5 Z "/>
</g>
</svg>
