<?xml version="1.0" encoding="UTF-8"?>
<svg xmlns="http://www.w3.org/2000/svg" xmlns:xlink="http://www.w3.org/1999/xlink" width="96pt" height="96pt" viewBox="0 0 96 96" version="1.1">
<g id="surface1828638">
<path style=" stroke:none;fill-rule:nonzero;fill:rgb(0%,0%,0%);fill-opacity:1;" d="M 84 12 L 84 22.96875 L 93 34.96875 L 93 36 C 93 40.933594 88.933594 45 84 45 L 84 58.289062 L 81.898438 58.289062 L 78 62.1875 L 78 42.65625 C 76.40625 44.097656 74.296875 45 72 45 C 69.703125 45 67.59375 44.097656 66 42.65625 C 64.40625 44.097656 62.296875 45 60 45 C 57.703125 45 55.59375 44.097656 54 42.65625 C 52.40625 44.097656 50.296875 45 48 45 C 45.703125 45 43.59375 44.097656 42 42.65625 C 40.40625 44.097656 38.296875 45 36 45 C 33.703125 45 31.59375 44.097656 30 42.65625 C 28.40625 44.097656 26.296875 45 24 45 C 21.703125 45 19.59375 44.097656 18 42.65625 L 18 78 L 48.367188 78 C 47.554688 79.921875 47.074219 81.960938 46.929688 84 L 12 84 L 12 45 C 7.066406 45 3 40.933594 3 36 L 3 34.96875 L 12 22.96875 L 12 12 Z M 66 57 L 60 57 L 60 67.878906 C 57.710938 68.457031 55.707031 69.445312 54 70.71875 L 54 51 L 72 51 L 72 67.289062 L 66 67.289062 Z M 18 21 L 78 21 L 78 18 L 18 18 Z M 9.28125 36.65625 C 9.609375 37.957031 10.59375 39 12 39 C 13.664062 39 15 37.664062 15 36 L 21 36 C 21 37.664062 22.335938 39 24 39 C 25.664062 39 27 37.664062 27 36 L 33 36 C 33 37.664062 34.335938 39 36 39 C 37.664062 39 39 37.664062 39 36 L 45 36 C 45 37.664062 46.335938 39 48 39 C 49.664062 39 51 37.664062 51 36 L 57 36 C 57 37.664062 58.335938 39 60 39 C 61.664062 39 63 37.664062 63 36 L 69 36 C 69 37.664062 70.335938 39 72 39 C 73.664062 39 75 37.664062 75 36 L 81 36 C 81 37.664062 82.335938 39 84 39 C 85.40625 39 86.390625 37.957031 86.71875 36.65625 L 79.5 27 L 16.5 27 Z M 48 51 L 48 72 L 24 72 L 24 51 Z M 30 66 L 42 66 L 42 57 L 30 57 Z M 30 66 "/>
<path style=" stroke:none;fill-rule:nonzero;fill:rgb(0%,0%,0%);fill-opacity:1;" d="M 52.882812 84.835938 L 52.882812 108.835938 L 58.882812 108.835938 L 58.882812 84.835938 C 58.882812 83.335938 59.484375 78.835938 64.882812 78.835938 L 83.183594 78.835938 L 79.285156 82.738281 L 83.484375 86.9375 L 94.882812 75.835938 L 83.484375 64.738281 L 79.285156 68.9375 L 83.183594 72.835938 L 64.882812 72.835938 C 56.183594 72.835938 52.882812 80.039062 52.882812 84.835938 Z M 52.882812 84.835938 "/>
</g>
</svg>
