<?xml version="1.0" encoding="UTF-8"?>
<svg xmlns="http://www.w3.org/2000/svg" xmlns:xlink="http://www.w3.org/1999/xlink" viewBox="0 0 32 32" version="1.1" width="96px" height="96px">
<g id="surface1">
<path style=" " d="M 4 5 L 4 27 L 13.40625 27.03125 L 14.5625 25 L 6 25 L 6 11 L 26 11 L 26 15.96875 L 28 19.40625 L 28 5 Z M 6 7 L 26 7 L 26 9 L 6 9 Z M 9 14 L 9 16 L 11 16 L 11 14 Z M 13 14 L 13 16 L 19.40625 16 L 20.53125 14 Z M 23 15.875 C 22.285156 15.875 21.578125 16.226563 21.1875 16.90625 L 14.28125 28.84375 C 13.496094 30.203125 14.523438 32 16.09375 32 L 29.90625 32 C 31.476563 32 32.503906 30.203125 31.71875 28.84375 L 24.8125 16.90625 C 24.421875 16.226563 23.714844 15.875 23 15.875 Z M 23 17.8125 C 23.03125 17.8125 23.0625 17.851563 23.09375 17.90625 L 30 29.84375 C 30.0625 29.953125 30.03125 30 29.90625 30 L 16.09375 30 C 15.96875 30 15.9375 29.953125 16 29.84375 L 22.90625 17.90625 C 22.9375 17.851563 22.96875 17.8125 23 17.8125 Z M 9 18 L 9 20 L 11 20 L 11 18 Z M 13 18 L 13 20 L 17.40625 20 L 18.53125 18 Z M 22 21 L 22 25.5 L 24 25.5 L 24 21 Z M 22 27 L 22 29 L 24 29 L 24 27 Z "/>
</g>
</svg>
