<?xml version="1.0" encoding="UTF-8"?>
<svg xmlns="http://www.w3.org/2000/svg" xmlns:xlink="http://www.w3.org/1999/xlink" viewBox="0 0 32 32" version="1.1" fill="#ffffff" width="96px" height="96px">
<g id="surface1" fill="#ffffff">
<path style=" " d="M 16 3.8125 L 15.4375 4.15625 L 12.6875 6 L 6 6 L 6 27 L 26 27 L 26 6 L 19.3125 6 L 16.5625 4.15625 Z M 16 6.21875 L 18.4375 7.84375 L 18.6875 8 L 24 8 L 24 25 L 8 25 L 8 8 L 13.3125 8 L 13.5625 7.84375 Z M 10 12 L 10 14 L 12 14 L 12 12 Z M 14 12 L 14 14 L 22 14 L 22 12 Z M 10 16 L 10 18 L 12 18 L 12 16 Z M 14 16 L 14 18 L 22 18 L 22 16 Z M 10 20 L 10 22 L 12 22 L 12 20 Z M 14 20 L 14 22 L 22 22 L 22 20 Z " fill="#ffffff"/>
</g>
</svg>
