<svg xmlns="http://www.w3.org/2000/svg" width="13" height="13" viewBox="0 0 13 13">
  <g id="surface1" transform="translate(-3 -3)">
    <path id="Path_820" data-name="Path 820" d="M7.25,3a4.247,4.247,0,0,0-1.012,8.373l.879-.881a3.247,3.247,0,1,1,3.375-3.375l.881-.879A4.255,4.255,0,0,0,7.25,3ZM15.5,3a.5.5,0,1,0,.5.5A.5.5,0,0,0,15.5,3ZM14,4.5a.5.5,0,1,0,.5.5A.5.5,0,0,0,14,4.5Zm-7.648,1-.2,1.744.586.15c0-.037.164-.186.477-.186A.529.529,0,0,1,7.8,7.8c0,.074-.006.639-.516.639a.477.477,0,0,1-.512-.453h-.7C6.043,8.324,6.354,9,7.291,9A1.124,1.124,0,0,0,8.5,7.836a1.051,1.051,0,0,0-1.086-1.15,1.636,1.636,0,0,0-.551.117l.074-.744H8.391V5.5ZM12.5,6a.5.5,0,1,0,.5.5A.5.5,0,0,0,12.5,6ZM11,7.5a.5.5,0,1,0,.5.5A.5.5,0,0,0,11,7.5Zm1.879.156-.857.857a3.249,3.249,0,1,1-3.508,3.51l-.857.855a4.248,4.248,0,1,0,5.223-5.223ZM9.5,9a.5.5,0,1,0,.5.5A.5.5,0,0,0,9.5,9Zm2.68,1a5.9,5.9,0,0,1-1.43.57v.516a3.932,3.932,0,0,0,.988-.281v2.7H12.5V10ZM8,10.5a.5.5,0,1,0,.5.5A.5.5,0,0,0,8,10.5ZM6.5,12a.5.5,0,1,0,.5.5A.5.5,0,0,0,6.5,12ZM5,13.5a.5.5,0,1,0,.5.5A.5.5,0,0,0,5,13.5ZM3.5,15a.5.5,0,1,0,.5.5A.5.5,0,0,0,3.5,15Z" transform="translate(0 0)" fill="#666"/>
  </g>
</svg>
