<?xml version="1.0" encoding="utf-8"?>
<!-- Generator: Adobe Illustrator 24.0.2, SVG Export Plug-In . SVG Version: 6.00 Build 0)  -->
<svg version="1.1" id="Layer_1" xmlns="http://www.w3.org/2000/svg" xmlns:xlink="http://www.w3.org/1999/xlink" x="0px" y="0px"
	 viewBox="0 0 32 32" style="enable-background:new 0 0 32 32;" xml:space="preserve">
<g id="surface2534252" transform="translate(-0.656 -8)">
	<path id="Path_934" d="M16.3,28.1c-0.4,0-0.8,0-1.1-0.1c-7.9-0.6-13.9-7.4-13.9-7.4l-0.6-0.7l0.6-0.7c0,0,6.5-7.5,15.1-7.5
		c8,0,14.3,6.7,15,7.4c-1.3-0.9-2.8-1.3-4.3-1.3c-0.1,0-0.2,0-0.3,0c-0.5-0.3-1-0.7-1.5-1.1c0.1,0.4,0.2,0.8,0.2,1.2
		c-0.7,0.1-1.4,0.4-2,0.7c0-1.2-0.4-2.5-1-3.5c-1.9-0.9-4-1.4-6.1-1.4c-2.1,0-4.3,0.5-6.2,1.5h0c-2,3.4-0.9,7.8,2.5,9.8
		c0.9,0.5,1.8,0.8,2.8,0.9c0.3,0,0.5,0,0.8,0s0.5,0,0.7,0c0,0,0,0,0.1,0c0.8-0.1,1.6-0.3,2.3-0.6v0.2c0,0.1,0,0.2,0,0.4L17.3,28
		C17,28.1,16.6,28.1,16.3,28.1z M19.4,18.9c0,1.7-1.4,3.1-3.1,3.1s-3.1-1.4-3.1-3.1c0-1.7,1.4-3.1,3.1-3.1
		C18,15.8,19.4,17.2,19.4,18.9L19.4,18.9z M3.6,19.9c1.5,1.5,3.1,2.8,4.9,3.9c-1.3-2.1-1.7-4.6-1.1-7C6,17.7,4.7,18.8,3.6,19.9z"/>
	<path id="Path_935" d="M27,19.9c-3.1,0-5.6,2.5-5.6,5.6c0,0.4,0,0.7,0.1,1.1c-1.6,1.6-3.9,4-4.3,4.4c-1.2,1.2-1.2,3.1,0,4.3
		s3.1,1.2,4.3,0c0.5-0.5,2.8-2.7,4.4-4.3c3,0.6,6-1.4,6.6-4.4c0.6-3-1.4-6-4.4-6.6C27.8,20,27.4,19.9,27,19.9L27,19.9z M27,29.1
		c-0.6,0-1.1-0.1-1.6-0.4c-2,1.9-5,4.9-5.3,5.2c-0.4,0.4-1,0.4-1.4,0s-0.4-1,0-1.4l0,0c0.3-0.3,3.4-3.5,5.2-5.3
		c-0.3-0.5-0.4-1.1-0.4-1.6c0-2,1.6-3.6,3.6-3.6c0.4,0,0.8,0.1,1.2,0.2l-2.7,2.7l2.2,2.2l2.7-2.7c0.1,0.4,0.2,0.8,0.2,1.2
		C30.6,27.5,29,29.1,27,29.1z"/>
</g>
</svg>
