<?xml version="1.0" encoding="UTF-8"?>
<svg xmlns="http://www.w3.org/2000/svg" xmlns:xlink="http://www.w3.org/1999/xlink" viewBox="0 0 32 32" version="1.1" width="96px" height="96px">
<g id="surface1">
<path style=" " d="M 11 6 C 5.484375 6 1 10.484375 1 16 C 1 21.515625 5.484375 26 11 26 C 11.980469 26 12.917969 25.855469 13.8125 25.59375 C 13.15625 25.101563 12.570313 24.550781 12.03125 23.9375 C 11.695313 23.980469 11.347656 24 11 24 C 6.589844 24 3 20.410156 3 16 C 3 11.589844 6.589844 8 11 8 C 15.410156 8 19 11.589844 19 16 C 19 17.789063 18.402344 19.445313 17.40625 20.78125 C 17.945313 21.1875 18.5625 21.480469 19.21875 21.6875 C 20.347656 20.070313 21 18.117188 21 16 C 21 10.484375 16.515625 6 11 6 Z M 21 6 C 20.023438 6 19.082031 6.144531 18.1875 6.40625 C 18.839844 6.898438 19.429688 7.449219 19.96875 8.0625 C 20.304688 8.019531 20.65625 8 21 8 C 25.410156 8 29 11.589844 29 16 C 29 20.410156 25.410156 24 21 24 C 16.589844 24 13 20.410156 13 16 C 13 14.203125 13.589844 12.554688 14.59375 11.21875 C 14.058594 10.8125 13.46875 10.488281 12.8125 10.28125 C 11.675781 11.902344 11 13.875 11 16 C 11 21.515625 15.484375 26 21 26 C 26.515625 26 31 21.515625 31 16 C 31 10.484375 26.515625 6 21 6 Z "/>
</g>
</svg>
